M48
METRIC,LZ,000.000
;FILE_FORMAT=3:3
;TYPE=PLATED
;Layer: PTH_Through
;EasyEDA v6.5.51, 2026-10-07 05:10:36
;197882fafefe4d2ba97ff6944c954397,10
;Gerber Generator version 0.2
;Holesize 1 = 0.310 mm
T01C0.310
;Holesize 2 = 0.900 mm
T02C0.900
;Holesize 3 = 0.901 mm
T03C0.901
;Holesize 4 = 1.000 mm
T04C1.000
%
G05
G90
T01
X144867Y117221
X127417Y147819
T02
X123774Y138176
X117272Y138176
T03
X151019Y118491
X153019Y118491
X160401Y144399
X157861Y129159
X152780Y129159
X147700Y129159
X142620Y129159
X137540Y129159
X132460Y129159
X127380Y129159
X124841Y144399
X129922Y144399
X135002Y144399
X140082Y144399
X145162Y144399
X150242Y144399
X155321Y144399
X157861Y144399
X152781Y144399
X147701Y144399
X142621Y144399
X137541Y144399
X132461Y144399
X127381Y144399
X124841Y129159
X129921Y129159
X135001Y129159
X140081Y129159
X145161Y129159
X150241Y129159
X155321Y129159
X160401Y129159
T04
X147320Y123442
X144780Y123442
X142240Y123442
X139700Y123445
M30
