G04 Layer: TopSolderMaskLayer*
G04 EasyEDA v6.5.51, 2026-10-07 05:10:36*
G04 197882fafefe4d2ba97ff6944c954397,10*
G04 Gerber Generator version 0.2*
G04 Scale: 100 percent, Rotated: No, Reflected: No *
G04 Dimensions in millimeters *
G04 leading zeros omitted , absolute positions ,4 integer and 5 decimal *
%FSLAX45Y45*%
%MOMM*%

%AMMACRO1*4,1,8,-0.7211,-0.7508,-0.7508,-0.721,-0.7508,0.7211,-0.7211,0.7508,0.721,0.7508,0.7508,0.7211,0.7508,-0.721,0.721,-0.7508,-0.7211,-0.7508,0*%
%AMMACRO2*4,1,8,-0.6711,-0.9508,-0.7008,-0.921,-0.7008,0.9211,-0.6711,0.9508,0.671,0.9508,0.7008,0.9211,0.7008,-0.921,0.671,-0.9508,-0.6711,-0.9508,0*%
%AMMACRO3*4,1,8,-0.6211,-1.1508,-0.6508,-1.121,-0.6508,1.1211,-0.6211,1.1508,0.621,1.1508,0.6508,1.1211,0.6508,-1.121,0.621,-1.1508,-0.6211,-1.1508,0*%
%AMMACRO4*4,1,8,-0.8211,-0.8508,-0.8508,-0.821,-0.8508,0.8211,-0.8211,0.8508,0.821,0.8508,0.8508,0.8211,0.8508,-0.821,0.821,-0.8508,-0.8211,-0.8508,0*%
%ADD10MACRO1*%
%ADD11C,1.5016*%
%ADD12MACRO2*%
%ADD13MACRO3*%
%ADD14MACRO4*%
%ADD15C,1.7016*%
%ADD16C,1.7516*%
%ADD17C,1.8796*%
%ADD18C,0.0169*%

%LPD*%
D10*
G01*
X15101900Y11849100D03*
D11*
G01*
X15301899Y11849100D03*
D12*
G01*
X13191705Y15621899D03*
G01*
X12741694Y14781900D03*
G01*
X13191705Y14781900D03*
G01*
X12741694Y15621899D03*
G01*
X15307094Y14769200D03*
G01*
X15757105Y15609199D03*
G01*
X15307094Y15609199D03*
G01*
X15757105Y14769200D03*
D13*
G01*
X13986700Y11722110D03*
G01*
X14236700Y11722110D03*
G01*
X14486699Y11722110D03*
D14*
G01*
X16040100Y14439900D03*
D15*
G01*
X15786100Y12915900D03*
G01*
X15278100Y12915900D03*
G01*
X14770100Y12915900D03*
G01*
X14262100Y12915900D03*
G01*
X13754100Y12915900D03*
G01*
X13246100Y12915900D03*
G01*
X12738100Y12915900D03*
G01*
X12484100Y14439900D03*
G01*
X12992100Y14439900D03*
G01*
X13500100Y14439900D03*
G01*
X14008100Y14439900D03*
G01*
X14516100Y14439900D03*
G01*
X15024100Y14439900D03*
G01*
X15532100Y14439900D03*
G01*
X15786100Y14439900D03*
G01*
X15278100Y14439900D03*
G01*
X14770100Y14439900D03*
G01*
X14262100Y14439900D03*
G01*
X13754100Y14439900D03*
G01*
X13246100Y14439900D03*
G01*
X12738100Y14439900D03*
G01*
X12484100Y12915900D03*
G01*
X12992100Y12915900D03*
G01*
X13500100Y12915900D03*
G01*
X14008100Y12915900D03*
G01*
X14516100Y12915900D03*
G01*
X15024100Y12915900D03*
G01*
X15532100Y12915900D03*
D14*
G01*
X16040100Y12915900D03*
D16*
G01*
X14732000Y12344272D03*
G01*
X14478000Y12344272D03*
G01*
X14224000Y12344272D03*
G01*
X13970000Y12344527D03*
D17*
G01*
X12377420Y13817600D03*
G01*
X11727179Y13817600D03*
M02*
