G04 Layer: TopSilkscreenLayer*
G04 EasyEDA v6.5.51, 2026-10-07 05:10:36*
G04 197882fafefe4d2ba97ff6944c954397,10*
G04 Gerber Generator version 0.2*
G04 Scale: 100 percent, Rotated: No, Reflected: No *
G04 Dimensions in millimeters *
G04 leading zeros omitted , absolute positions ,4 integer and 5 decimal *
%FSLAX45Y45*%
%MOMM*%

%ADD10C,0.2032*%
%ADD11C,0.2030*%
%ADD12C,0.1000*%
%ADD13C,0.1524*%
%ADD14C,0.1500*%
%ADD15C,0.2500*%
%ADD16C,0.2540*%
%ADD17C,0.1520*%
%ADD18C,0.0155*%

%LPD*%
G36*
X13660882Y13462000D02*
G01*
X13655903Y13461746D01*
X13650620Y13460831D01*
X13645184Y13459104D01*
X13639800Y13456412D01*
X13639546Y13440156D01*
X13645642Y13440156D01*
X13648436Y13454380D01*
X13651280Y13455650D01*
X13654125Y13456564D01*
X13656919Y13457021D01*
X13659612Y13457174D01*
X13665250Y13456615D01*
X13670483Y13454938D01*
X13675156Y13452246D01*
X13679271Y13448436D01*
X13682624Y13443610D01*
X13685164Y13437768D01*
X13686739Y13430961D01*
X13687298Y13423138D01*
X13686790Y13415263D01*
X13685316Y13408406D01*
X13682929Y13402563D01*
X13679728Y13397738D01*
X13675766Y13393978D01*
X13671092Y13391286D01*
X13665860Y13389660D01*
X13660119Y13389101D01*
X13656970Y13389254D01*
X13653769Y13389762D01*
X13650569Y13390626D01*
X13647419Y13391896D01*
X13644626Y13405866D01*
X13638530Y13405866D01*
X13638784Y13389610D01*
X13644016Y13387171D01*
X13649451Y13385495D01*
X13655090Y13384580D01*
X13660882Y13384276D01*
X13666368Y13384580D01*
X13671550Y13385546D01*
X13676325Y13387120D01*
X13680744Y13389203D01*
X13684757Y13391896D01*
X13688263Y13395045D01*
X13691362Y13398703D01*
X13693952Y13402767D01*
X13695984Y13407339D01*
X13697508Y13412216D01*
X13698423Y13417499D01*
X13698728Y13423138D01*
X13698423Y13428675D01*
X13697457Y13433856D01*
X13695883Y13438733D01*
X13693749Y13443254D01*
X13691107Y13447369D01*
X13688009Y13451027D01*
X13684402Y13454227D01*
X13680389Y13456970D01*
X13676020Y13459104D01*
X13671245Y13460679D01*
X13666216Y13461644D01*
G37*
G36*
X13554710Y13462000D02*
G01*
X13549731Y13461746D01*
X13544448Y13460831D01*
X13539012Y13459104D01*
X13533628Y13456412D01*
X13533374Y13440156D01*
X13539469Y13440156D01*
X13542263Y13454380D01*
X13545108Y13455650D01*
X13547953Y13456564D01*
X13550747Y13457021D01*
X13553440Y13457174D01*
X13559078Y13456615D01*
X13564311Y13454938D01*
X13568984Y13452246D01*
X13573099Y13448436D01*
X13576452Y13443610D01*
X13578992Y13437768D01*
X13580567Y13430961D01*
X13581126Y13423138D01*
X13580618Y13415263D01*
X13579144Y13408406D01*
X13576757Y13402563D01*
X13573556Y13397738D01*
X13569594Y13393978D01*
X13564920Y13391286D01*
X13559688Y13389660D01*
X13553948Y13389101D01*
X13550798Y13389254D01*
X13547598Y13389762D01*
X13544397Y13390626D01*
X13541248Y13391896D01*
X13538454Y13405866D01*
X13532357Y13405866D01*
X13532612Y13389610D01*
X13537844Y13387171D01*
X13543280Y13385495D01*
X13548918Y13384580D01*
X13554710Y13384276D01*
X13560196Y13384580D01*
X13565378Y13385546D01*
X13570153Y13387120D01*
X13574572Y13389203D01*
X13578586Y13391896D01*
X13582091Y13395045D01*
X13585190Y13398703D01*
X13587780Y13402767D01*
X13589812Y13407339D01*
X13591336Y13412216D01*
X13592251Y13417499D01*
X13592556Y13423138D01*
X13592251Y13428675D01*
X13591286Y13433856D01*
X13589711Y13438733D01*
X13587577Y13443254D01*
X13584936Y13447369D01*
X13581837Y13451027D01*
X13578230Y13454227D01*
X13574217Y13456970D01*
X13569848Y13459104D01*
X13565073Y13460679D01*
X13560044Y13461644D01*
G37*
G36*
X13747750Y13460222D02*
G01*
X13747750Y13456412D01*
X13758163Y13455396D01*
X13758418Y13433145D01*
X13758163Y13390880D01*
X13747750Y13389610D01*
X13747750Y13385800D01*
X13778992Y13385800D01*
X13778992Y13389610D01*
X13768832Y13390880D01*
X13768578Y13433094D01*
X13768832Y13455396D01*
X13778992Y13456412D01*
X13778992Y13460222D01*
G37*
G36*
X13706601Y13460222D02*
G01*
X13706601Y13456412D01*
X13717016Y13455396D01*
X13717016Y13390880D01*
X13706601Y13389610D01*
X13706601Y13385800D01*
X13737844Y13385800D01*
X13737844Y13389610D01*
X13727430Y13390880D01*
X13727176Y13433094D01*
X13727430Y13455396D01*
X13737844Y13456412D01*
X13737844Y13460222D01*
G37*
G36*
X13200380Y13453872D02*
G01*
X13200888Y13438632D01*
X13186156Y13438632D01*
X13186156Y13433551D01*
X13201142Y13433551D01*
X13201142Y13397738D01*
X13200684Y13393978D01*
X13199414Y13391337D01*
X13197382Y13389863D01*
X13194792Y13389356D01*
X13192810Y13389559D01*
X13190982Y13390168D01*
X13189153Y13391184D01*
X13187172Y13392657D01*
X13184886Y13390118D01*
X13187273Y13387679D01*
X13190219Y13385850D01*
X13193725Y13384682D01*
X13197840Y13384276D01*
X13203123Y13385038D01*
X13207034Y13387425D01*
X13209473Y13391540D01*
X13210286Y13397484D01*
X13210286Y13433551D01*
X13219684Y13433551D01*
X13219684Y13437616D01*
X13209778Y13438886D01*
X13206730Y13453872D01*
G37*
G36*
X13497051Y13440156D02*
G01*
X13492327Y13439698D01*
X13487704Y13438378D01*
X13483437Y13436142D01*
X13479576Y13432993D01*
X13476325Y13429030D01*
X13473836Y13424204D01*
X13472210Y13418515D01*
X13471651Y13411962D01*
X13481812Y13411962D01*
X13482828Y13422223D01*
X13485825Y13429691D01*
X13490600Y13434263D01*
X13497051Y13435838D01*
X13503656Y13434263D01*
X13508532Y13429691D01*
X13511530Y13422223D01*
X13512546Y13411962D01*
X13511530Y13401903D01*
X13508532Y13394537D01*
X13503656Y13390118D01*
X13497051Y13388594D01*
X13490600Y13390118D01*
X13485825Y13394588D01*
X13482828Y13401903D01*
X13481812Y13411962D01*
X13471651Y13411962D01*
X13472210Y13405510D01*
X13473785Y13399922D01*
X13476274Y13395147D01*
X13479475Y13391286D01*
X13483336Y13388238D01*
X13487603Y13386054D01*
X13492226Y13384733D01*
X13497051Y13384276D01*
X13501928Y13384733D01*
X13506653Y13386054D01*
X13510971Y13388238D01*
X13514832Y13391235D01*
X13518083Y13395147D01*
X13520572Y13399922D01*
X13522147Y13405510D01*
X13522706Y13411962D01*
X13522147Y13418515D01*
X13520572Y13424204D01*
X13518083Y13429030D01*
X13514832Y13432993D01*
X13510971Y13436142D01*
X13506653Y13438378D01*
X13501928Y13439698D01*
G37*
G36*
X13424662Y13440156D02*
G01*
X13418464Y13438987D01*
X13414044Y13435330D01*
X13411352Y13429030D01*
X13410438Y13419836D01*
X13410184Y13390372D01*
X13402563Y13389356D01*
X13402563Y13385800D01*
X13427963Y13385800D01*
X13427963Y13389356D01*
X13419836Y13390372D01*
X13419582Y13419582D01*
X13420140Y13425881D01*
X13421817Y13430046D01*
X13424712Y13432332D01*
X13428980Y13433044D01*
X13432637Y13432637D01*
X13436346Y13431367D01*
X13440257Y13429081D01*
X13444474Y13425678D01*
X13444219Y13390372D01*
X13436600Y13389356D01*
X13436600Y13385800D01*
X13462000Y13385800D01*
X13462000Y13389356D01*
X13453872Y13390372D01*
X13453618Y13409168D01*
X13453872Y13429488D01*
X13462762Y13430504D01*
X13462762Y13433806D01*
X13447268Y13439901D01*
X13445744Y13438886D01*
X13444728Y13429742D01*
X13440206Y13434060D01*
X13435177Y13437311D01*
X13429894Y13439444D01*
G37*
G36*
X13357351Y13440156D02*
G01*
X13351052Y13438987D01*
X13346633Y13435330D01*
X13343991Y13429030D01*
X13343128Y13419836D01*
X13342874Y13390372D01*
X13335000Y13389356D01*
X13335000Y13385800D01*
X13360654Y13385800D01*
X13360654Y13389356D01*
X13352272Y13390372D01*
X13352272Y13419582D01*
X13352780Y13425881D01*
X13354354Y13430046D01*
X13357199Y13432332D01*
X13361416Y13433044D01*
X13365175Y13432637D01*
X13368883Y13431367D01*
X13372744Y13429081D01*
X13376910Y13425678D01*
X13376859Y13400074D01*
X13376656Y13390372D01*
X13369036Y13389356D01*
X13369036Y13385800D01*
X13394690Y13385800D01*
X13394690Y13389356D01*
X13386307Y13390372D01*
X13386358Y13423036D01*
X13386562Y13429488D01*
X13395451Y13430504D01*
X13395451Y13433806D01*
X13379704Y13439901D01*
X13378180Y13438886D01*
X13377163Y13429742D01*
X13372693Y13434060D01*
X13367715Y13437311D01*
X13362533Y13439444D01*
G37*
G36*
X13301218Y13440156D02*
G01*
X13292937Y13438682D01*
X13286333Y13434466D01*
X13281964Y13427710D01*
X13281109Y13422884D01*
X13289280Y13422884D01*
X13290194Y13427811D01*
X13292734Y13431926D01*
X13296696Y13434771D01*
X13301726Y13435838D01*
X13306806Y13434720D01*
X13311428Y13431266D01*
X13314883Y13425322D01*
X13316712Y13416788D01*
X13295376Y13416788D01*
X13292378Y13417245D01*
X13290499Y13418515D01*
X13289534Y13420445D01*
X13289280Y13422884D01*
X13281109Y13422884D01*
X13280390Y13418819D01*
X13280593Y13415365D01*
X13281151Y13412724D01*
X13316966Y13412724D01*
X13315492Y13403072D01*
X13311682Y13396163D01*
X13305891Y13391997D01*
X13298424Y13390626D01*
X13293445Y13391235D01*
X13289330Y13392861D01*
X13285825Y13395350D01*
X13282676Y13398500D01*
X13280644Y13396976D01*
X13284250Y13391794D01*
X13288975Y13387781D01*
X13294715Y13385190D01*
X13301472Y13384276D01*
X13306856Y13384733D01*
X13311733Y13386155D01*
X13316000Y13388390D01*
X13319658Y13391489D01*
X13322604Y13395451D01*
X13324789Y13400125D01*
X13326160Y13405561D01*
X13326618Y13411707D01*
X13326110Y13417905D01*
X13324586Y13423442D01*
X13322198Y13428319D01*
X13319048Y13432383D01*
X13315289Y13435685D01*
X13310971Y13438124D01*
X13306247Y13439648D01*
G37*
G36*
X13244576Y13440156D02*
G01*
X13237565Y13439089D01*
X13231672Y13436092D01*
X13227304Y13431570D01*
X13225018Y13425932D01*
X13225627Y13424103D01*
X13226643Y13422833D01*
X13228066Y13422122D01*
X13229844Y13421868D01*
X13232180Y13422223D01*
X13233907Y13423239D01*
X13235076Y13424865D01*
X13237972Y13434822D01*
X13240969Y13435634D01*
X13243813Y13435838D01*
X13250773Y13434313D01*
X13256158Y13429843D01*
X13259612Y13422680D01*
X13260832Y13412978D01*
X13259460Y13403478D01*
X13255701Y13396468D01*
X13249910Y13392099D01*
X13242544Y13390626D01*
X13237921Y13391184D01*
X13233755Y13392810D01*
X13230098Y13395451D01*
X13227050Y13399007D01*
X13224763Y13397992D01*
X13227913Y13392200D01*
X13232384Y13387882D01*
X13238175Y13385190D01*
X13245338Y13384276D01*
X13250722Y13384784D01*
X13255599Y13386206D01*
X13259866Y13388543D01*
X13263524Y13391743D01*
X13266470Y13395706D01*
X13268655Y13400481D01*
X13270026Y13405866D01*
X13270484Y13411962D01*
X13269925Y13418210D01*
X13268350Y13423747D01*
X13265861Y13428573D01*
X13262559Y13432637D01*
X13258698Y13435838D01*
X13254278Y13438225D01*
X13249554Y13439648D01*
G37*
G36*
X13153898Y13440156D02*
G01*
X13149072Y13439698D01*
X13144449Y13438378D01*
X13140080Y13436142D01*
X13136219Y13432993D01*
X13132968Y13429030D01*
X13130428Y13424204D01*
X13128802Y13418515D01*
X13128244Y13411962D01*
X13138404Y13411962D01*
X13139470Y13422223D01*
X13142518Y13429691D01*
X13147395Y13434263D01*
X13153898Y13435838D01*
X13160349Y13434263D01*
X13165124Y13429691D01*
X13168122Y13422223D01*
X13169138Y13411962D01*
X13168122Y13401903D01*
X13165124Y13394537D01*
X13160349Y13390118D01*
X13153898Y13388594D01*
X13147395Y13390118D01*
X13142518Y13394588D01*
X13139470Y13401903D01*
X13138404Y13411962D01*
X13128244Y13411962D01*
X13128802Y13405510D01*
X13130428Y13399922D01*
X13132968Y13395147D01*
X13136219Y13391286D01*
X13140080Y13388238D01*
X13144449Y13386054D01*
X13149072Y13384733D01*
X13153898Y13384276D01*
X13158724Y13384733D01*
X13163346Y13386054D01*
X13167613Y13388238D01*
X13171474Y13391235D01*
X13174675Y13395147D01*
X13177164Y13399922D01*
X13178739Y13405510D01*
X13179298Y13411962D01*
X13178739Y13418515D01*
X13177164Y13424204D01*
X13174675Y13429030D01*
X13171474Y13432993D01*
X13167613Y13436142D01*
X13163346Y13438378D01*
X13158724Y13439698D01*
G37*
G36*
X13085063Y13440156D02*
G01*
X13082473Y13439851D01*
X13080136Y13439038D01*
X13078256Y13437666D01*
X13076936Y13435838D01*
X13077291Y13432739D01*
X13078409Y13430300D01*
X13080390Y13428776D01*
X13083286Y13428218D01*
X13085165Y13428472D01*
X13086892Y13429081D01*
X13088569Y13430148D01*
X13091413Y13432536D01*
X13094563Y13429792D01*
X13097205Y13426490D01*
X13099338Y13422528D01*
X13101065Y13417804D01*
X13100812Y13390626D01*
X13091668Y13389356D01*
X13091668Y13385800D01*
X13118592Y13385800D01*
X13118592Y13389356D01*
X13110463Y13390372D01*
X13110514Y13423036D01*
X13110718Y13429488D01*
X13119607Y13430504D01*
X13119607Y13433806D01*
X13103860Y13439901D01*
X13102336Y13438886D01*
X13101319Y13425424D01*
X13098018Y13431570D01*
X13094055Y13436244D01*
X13089636Y13439140D01*
G37*
G36*
X13603478Y13417042D02*
G01*
X13603478Y13410438D01*
X13629386Y13410438D01*
X13629386Y13417042D01*
G37*
D10*
X15081758Y12140692D02*
G01*
X15081758Y11974576D01*
X14998700Y12057634D02*
G01*
X15165070Y12057634D01*
X15227300Y12057634D02*
G01*
X15393670Y12057634D01*
D11*
X13730986Y14032992D02*
G01*
X13712443Y14051534D01*
X13684758Y14060678D01*
X13647927Y14060678D01*
X13620241Y14051534D01*
X13601700Y14032992D01*
X13601700Y14014450D01*
X13610843Y13996162D01*
X13620241Y13986763D01*
X13638529Y13977620D01*
X13694156Y13959078D01*
X13712443Y13949934D01*
X13721841Y13940789D01*
X13730986Y13922247D01*
X13730986Y13894562D01*
X13712443Y13876020D01*
X13684758Y13866876D01*
X13647927Y13866876D01*
X13620241Y13876020D01*
X13601700Y13894562D01*
X13791945Y13996162D02*
G01*
X13791945Y13866876D01*
X13791945Y13959078D02*
G01*
X13819631Y13986763D01*
X13838174Y13996162D01*
X13865859Y13996162D01*
X13884402Y13986763D01*
X13893545Y13959078D01*
X13893545Y13866876D01*
X14065250Y13996162D02*
G01*
X14065250Y13866876D01*
X14065250Y13968476D02*
G01*
X14046961Y13986763D01*
X14028420Y13996162D01*
X14000734Y13996162D01*
X13982191Y13986763D01*
X13963650Y13968476D01*
X13954506Y13940789D01*
X13954506Y13922247D01*
X13963650Y13894562D01*
X13982191Y13876020D01*
X14000734Y13866876D01*
X14028420Y13866876D01*
X14046961Y13876020D01*
X14065250Y13894562D01*
X14126209Y13996162D02*
G01*
X14126209Y13802105D01*
X14126209Y13968476D02*
G01*
X14144752Y13986763D01*
X14163293Y13996162D01*
X14190979Y13996162D01*
X14209522Y13986763D01*
X14227809Y13968476D01*
X14237208Y13940789D01*
X14237208Y13922247D01*
X14227809Y13894562D01*
X14209522Y13876020D01*
X14190979Y13866876D01*
X14163293Y13866876D01*
X14144752Y13876020D01*
X14126209Y13894562D01*
X14298168Y14060678D02*
G01*
X14298168Y13866876D01*
X14298168Y14060678D02*
G01*
X14381225Y14060678D01*
X14408911Y14051534D01*
X14418309Y14042389D01*
X14427454Y14023847D01*
X14427454Y13996162D01*
X14418309Y13977620D01*
X14408911Y13968476D01*
X14381225Y13959078D01*
X14298168Y13959078D01*
X14488413Y14060678D02*
G01*
X14497558Y14051534D01*
X14506956Y14060678D01*
X14497558Y14070076D01*
X14488413Y14060678D01*
X14497558Y13996162D02*
G01*
X14497558Y13866876D01*
X14567916Y13996162D02*
G01*
X14669516Y13866876D01*
X14669516Y13996162D02*
G01*
X14567916Y13866876D01*
X14730475Y13940789D02*
G01*
X14841220Y13940789D01*
X14841220Y13959078D01*
X14832075Y13977620D01*
X14822677Y13986763D01*
X14804390Y13996162D01*
X14776450Y13996162D01*
X14758161Y13986763D01*
X14739620Y13968476D01*
X14730475Y13940789D01*
X14730475Y13922247D01*
X14739620Y13894562D01*
X14758161Y13876020D01*
X14776450Y13866876D01*
X14804390Y13866876D01*
X14822677Y13876020D01*
X14841220Y13894562D01*
X14902179Y14060678D02*
G01*
X14902179Y13866876D01*
D12*
X14249400Y13819378D02*
G01*
X14249400Y13625576D01*
X14249400Y13727176D02*
G01*
X14267941Y13745463D01*
X14286229Y13754862D01*
X14314170Y13754862D01*
X14332458Y13745463D01*
X14351000Y13727176D01*
X14360143Y13699489D01*
X14360143Y13680947D01*
X14351000Y13653262D01*
X14332458Y13634720D01*
X14314170Y13625576D01*
X14286229Y13625576D01*
X14267941Y13634720D01*
X14249400Y13653262D01*
X14430502Y13754862D02*
G01*
X14485874Y13625576D01*
X14541245Y13754862D02*
G01*
X14485874Y13625576D01*
X14467331Y13588492D01*
X14448790Y13569950D01*
X14430502Y13560805D01*
X14421104Y13560805D01*
X14818359Y13819378D02*
G01*
X14744445Y13625576D01*
X14818359Y13819378D02*
G01*
X14892274Y13625576D01*
X14772131Y13690092D02*
G01*
X14864588Y13690092D01*
X14962377Y13754862D02*
G01*
X15017750Y13625576D01*
X15073375Y13754862D02*
G01*
X15017750Y13625576D01*
X14999461Y13588492D01*
X14980920Y13569950D01*
X14962377Y13560805D01*
X14953234Y13560805D01*
X15134336Y13754862D02*
G01*
X15134336Y13662405D01*
X15143479Y13634720D01*
X15162022Y13625576D01*
X15189708Y13625576D01*
X15208250Y13634720D01*
X15235936Y13662405D01*
X15235936Y13754862D02*
G01*
X15235936Y13625576D01*
X15398495Y13727176D02*
G01*
X15389097Y13745463D01*
X15361411Y13754862D01*
X15333725Y13754862D01*
X15306040Y13745463D01*
X15296895Y13727176D01*
X15306040Y13708634D01*
X15324581Y13699489D01*
X15370809Y13690092D01*
X15389097Y13680947D01*
X15398495Y13662405D01*
X15398495Y13653262D01*
X15389097Y13634720D01*
X15361411Y13625576D01*
X15333725Y13625576D01*
X15306040Y13634720D01*
X15296895Y13653262D01*
X15459456Y13819378D02*
G01*
X15459456Y13625576D01*
X15459456Y13717778D02*
G01*
X15487141Y13745463D01*
X15505429Y13754862D01*
X15533370Y13754862D01*
X15551658Y13745463D01*
X15561056Y13717778D01*
X15561056Y13625576D01*
D13*
X15036800Y12332715D02*
G01*
X15036800Y12223750D01*
X15036800Y12332715D02*
G01*
X15083536Y12332715D01*
X15099029Y12327636D01*
X15104363Y12322302D01*
X15109443Y12311887D01*
X15109443Y12301474D01*
X15104363Y12291060D01*
X15099029Y12285979D01*
X15083536Y12280900D01*
X15036800Y12280900D02*
G01*
X15083536Y12280900D01*
X15099029Y12275565D01*
X15104363Y12270486D01*
X15109443Y12260071D01*
X15109443Y12244324D01*
X15104363Y12233910D01*
X15099029Y12228829D01*
X15083536Y12223750D01*
X15036800Y12223750D01*
X15185390Y12332715D02*
G01*
X15143734Y12223750D01*
X15185390Y12332715D02*
G01*
X15227045Y12223750D01*
X15159481Y12260071D02*
G01*
X15211297Y12260071D01*
X15297658Y12332715D02*
G01*
X15297658Y12223750D01*
X15261336Y12332715D02*
G01*
X15333979Y12332715D01*
X13396734Y15129255D02*
G01*
X13407148Y15139670D01*
X13412228Y15155163D01*
X13412228Y15175992D01*
X13407148Y15191486D01*
X13396734Y15201900D01*
X13386320Y15201900D01*
X13375906Y15196820D01*
X13370572Y15191486D01*
X13365492Y15181071D01*
X13355078Y15149829D01*
X13349998Y15139670D01*
X13344664Y15134336D01*
X13334250Y15129255D01*
X13318756Y15129255D01*
X13308342Y15139670D01*
X13303262Y15155163D01*
X13303262Y15175992D01*
X13308342Y15191486D01*
X13318756Y15201900D01*
X13412228Y15094966D02*
G01*
X13303262Y15068804D01*
X13412228Y15042895D02*
G01*
X13303262Y15068804D01*
X13412228Y15042895D02*
G01*
X13303262Y15016987D01*
X13412228Y14991079D02*
G01*
X13303262Y15016987D01*
X13391400Y14956789D02*
G01*
X13396734Y14946376D01*
X13412228Y14930628D01*
X13303262Y14930628D01*
X15102065Y15261844D02*
G01*
X15091651Y15251429D01*
X15086571Y15235936D01*
X15086571Y15215107D01*
X15091651Y15199613D01*
X15102065Y15189200D01*
X15112479Y15189200D01*
X15122893Y15194279D01*
X15128227Y15199613D01*
X15133307Y15210028D01*
X15143721Y15241270D01*
X15148801Y15251429D01*
X15154135Y15256763D01*
X15164549Y15261844D01*
X15180043Y15261844D01*
X15190457Y15251429D01*
X15195537Y15235936D01*
X15195537Y15215107D01*
X15190457Y15199613D01*
X15180043Y15189200D01*
X15086571Y15296134D02*
G01*
X15195537Y15322295D01*
X15086571Y15348204D02*
G01*
X15195537Y15322295D01*
X15086571Y15348204D02*
G01*
X15195537Y15374112D01*
X15086571Y15400020D02*
G01*
X15195537Y15374112D01*
X15112479Y15439644D02*
G01*
X15107399Y15439644D01*
X15096985Y15444724D01*
X15091651Y15450057D01*
X15086571Y15460471D01*
X15086571Y15481300D01*
X15091651Y15491460D01*
X15096985Y15496794D01*
X15107399Y15501874D01*
X15117813Y15501874D01*
X15128227Y15496794D01*
X15143721Y15486379D01*
X15195537Y15434310D01*
X15195537Y15507207D01*
D14*
X12438062Y13078894D02*
G01*
X12533566Y13078894D01*
X12438062Y13078894D02*
G01*
X12438062Y13110644D01*
X12442634Y13124360D01*
X12451524Y13133504D01*
X12460668Y13138076D01*
X12474384Y13142648D01*
X12496990Y13142648D01*
X12510706Y13138076D01*
X12519850Y13133504D01*
X12528994Y13124360D01*
X12533566Y13110644D01*
X12533566Y13078894D01*
X12456096Y13172620D02*
G01*
X12451524Y13181510D01*
X12438062Y13195226D01*
X12533566Y13195226D01*
X12438062Y13234342D02*
G01*
X12438062Y13284380D01*
X12474384Y13257202D01*
X12474384Y13270664D01*
X12478956Y13279808D01*
X12483528Y13284380D01*
X12496990Y13288952D01*
X12506134Y13288952D01*
X12519850Y13284380D01*
X12528994Y13275236D01*
X12533566Y13261520D01*
X12533566Y13248058D01*
X12528994Y13234342D01*
X12524422Y13229770D01*
X12515278Y13225198D01*
X12692057Y13088033D02*
G01*
X12692057Y13138071D01*
X12728379Y13110639D01*
X12728379Y13124355D01*
X12732951Y13133499D01*
X12737523Y13138071D01*
X12750985Y13142643D01*
X12760129Y13142643D01*
X12773845Y13138071D01*
X12782989Y13128927D01*
X12787561Y13115211D01*
X12787561Y13101495D01*
X12782989Y13088033D01*
X12778417Y13083461D01*
X12769273Y13078889D01*
X12692057Y13172615D02*
G01*
X12787561Y13208937D01*
X12692057Y13245259D02*
G01*
X12787561Y13208937D01*
X12692057Y13284375D02*
G01*
X12692057Y13334413D01*
X12728379Y13306981D01*
X12728379Y13320697D01*
X12732951Y13329841D01*
X12737523Y13334413D01*
X12750985Y13338985D01*
X12760129Y13338985D01*
X12773845Y13334413D01*
X12782989Y13325269D01*
X12787561Y13311553D01*
X12787561Y13298091D01*
X12782989Y13284375D01*
X12778417Y13279803D01*
X12769273Y13275231D01*
X12946057Y13078889D02*
G01*
X13041561Y13078889D01*
X12946057Y13078889D02*
G01*
X12946057Y13119783D01*
X12950629Y13133499D01*
X12955201Y13138071D01*
X12964091Y13142643D01*
X12973235Y13142643D01*
X12982379Y13138071D01*
X12986951Y13133499D01*
X12991523Y13119783D01*
X12991523Y13078889D01*
X12991523Y13110639D02*
G01*
X13041561Y13142643D01*
X12946057Y13172615D02*
G01*
X13041561Y13172615D01*
X12946057Y13172615D02*
G01*
X12946057Y13231543D01*
X12991523Y13172615D02*
G01*
X12991523Y13208937D01*
X13041561Y13172615D02*
G01*
X13041561Y13231543D01*
X12946057Y13261515D02*
G01*
X13041561Y13261515D01*
X12946057Y13261515D02*
G01*
X12946057Y13320697D01*
X12991523Y13261515D02*
G01*
X12991523Y13298091D01*
X13200059Y13115213D02*
G01*
X13295563Y13078891D01*
X13200059Y13115213D02*
G01*
X13295563Y13151535D01*
X13263559Y13092607D02*
G01*
X13263559Y13138073D01*
X13200059Y13208939D02*
G01*
X13204631Y13195223D01*
X13218093Y13186079D01*
X13240953Y13181507D01*
X13254415Y13181507D01*
X13277275Y13186079D01*
X13290991Y13195223D01*
X13295563Y13208939D01*
X13295563Y13218083D01*
X13290991Y13231545D01*
X13277275Y13240689D01*
X13254415Y13245261D01*
X13240953Y13245261D01*
X13218093Y13240689D01*
X13204631Y13231545D01*
X13200059Y13218083D01*
X13200059Y13208939D01*
X13454057Y13115211D02*
G01*
X13549561Y13078889D01*
X13454057Y13115211D02*
G01*
X13549561Y13151533D01*
X13517557Y13092605D02*
G01*
X13517557Y13138071D01*
X13472091Y13181505D02*
G01*
X13467519Y13190649D01*
X13454057Y13204365D01*
X13549561Y13204365D01*
X13708059Y13115213D02*
G01*
X13803563Y13078891D01*
X13708059Y13115213D02*
G01*
X13803563Y13151535D01*
X13771559Y13092607D02*
G01*
X13771559Y13138073D01*
X13730665Y13186079D02*
G01*
X13726093Y13186079D01*
X13717203Y13190651D01*
X13712631Y13195223D01*
X13708059Y13204367D01*
X13708059Y13222401D01*
X13712631Y13231545D01*
X13717203Y13236117D01*
X13726093Y13240689D01*
X13735237Y13240689D01*
X13744381Y13236117D01*
X13758097Y13226973D01*
X13803563Y13181507D01*
X13803563Y13245261D01*
X13962059Y13115213D02*
G01*
X14057563Y13078891D01*
X13962059Y13115213D02*
G01*
X14057563Y13151535D01*
X14025559Y13092607D02*
G01*
X14025559Y13138073D01*
X13962059Y13190651D02*
G01*
X13962059Y13240689D01*
X13998381Y13213511D01*
X13998381Y13226973D01*
X14002953Y13236117D01*
X14007525Y13240689D01*
X14020987Y13245261D01*
X14030131Y13245261D01*
X14043847Y13240689D01*
X14052991Y13231545D01*
X14057563Y13218083D01*
X14057563Y13204367D01*
X14052991Y13190651D01*
X14048419Y13186079D01*
X14039275Y13181507D01*
X14216062Y13115216D02*
G01*
X14311566Y13078894D01*
X14216062Y13115216D02*
G01*
X14311566Y13151538D01*
X14279562Y13092610D02*
G01*
X14279562Y13138076D01*
X14216062Y13226976D02*
G01*
X14279562Y13181510D01*
X14279562Y13249836D01*
X14216062Y13226976D02*
G01*
X14311566Y13226976D01*
X14470059Y13115213D02*
G01*
X14565563Y13078891D01*
X14470059Y13115213D02*
G01*
X14565563Y13151535D01*
X14533559Y13092607D02*
G01*
X14533559Y13138073D01*
X14470059Y13236117D02*
G01*
X14470059Y13190651D01*
X14510953Y13186079D01*
X14506381Y13190651D01*
X14501809Y13204367D01*
X14501809Y13218083D01*
X14506381Y13231545D01*
X14515525Y13240689D01*
X14528987Y13245261D01*
X14538131Y13245261D01*
X14551847Y13240689D01*
X14560991Y13231545D01*
X14565563Y13218083D01*
X14565563Y13204367D01*
X14560991Y13190651D01*
X14556419Y13186079D01*
X14547275Y13181507D01*
X14724062Y13115216D02*
G01*
X14819566Y13078894D01*
X14724062Y13115216D02*
G01*
X14819566Y13151538D01*
X14787562Y13092610D02*
G01*
X14787562Y13138076D01*
X14737524Y13236120D02*
G01*
X14728634Y13231548D01*
X14724062Y13218086D01*
X14724062Y13208942D01*
X14728634Y13195226D01*
X14742096Y13186082D01*
X14764956Y13181510D01*
X14787562Y13181510D01*
X14805850Y13186082D01*
X14814994Y13195226D01*
X14819566Y13208942D01*
X14819566Y13213514D01*
X14814994Y13226976D01*
X14805850Y13236120D01*
X14792134Y13240692D01*
X14787562Y13240692D01*
X14774100Y13236120D01*
X14764956Y13226976D01*
X14760384Y13213514D01*
X14760384Y13208942D01*
X14764956Y13195226D01*
X14774100Y13186082D01*
X14787562Y13181510D01*
X14978059Y13115213D02*
G01*
X15073563Y13078891D01*
X14978059Y13115213D02*
G01*
X15073563Y13151535D01*
X15041559Y13092607D02*
G01*
X15041559Y13138073D01*
X14978059Y13245261D02*
G01*
X15073563Y13199795D01*
X14978059Y13181507D02*
G01*
X14978059Y13245261D01*
X15232059Y13133501D02*
G01*
X15232059Y13088035D01*
X15272953Y13083463D01*
X15268381Y13088035D01*
X15263809Y13101497D01*
X15263809Y13115213D01*
X15268381Y13128929D01*
X15277525Y13138073D01*
X15290987Y13142645D01*
X15300131Y13142645D01*
X15313847Y13138073D01*
X15322991Y13128929D01*
X15327563Y13115213D01*
X15327563Y13101497D01*
X15322991Y13088035D01*
X15318419Y13083463D01*
X15309275Y13078891D01*
X15232059Y13172617D02*
G01*
X15327563Y13208939D01*
X15232059Y13245261D02*
G01*
X15327563Y13208939D01*
X15486057Y13078889D02*
G01*
X15581561Y13078889D01*
X15486057Y13078889D02*
G01*
X15486057Y13119783D01*
X15490629Y13133499D01*
X15495201Y13138071D01*
X15504091Y13142643D01*
X15513235Y13142643D01*
X15522379Y13138071D01*
X15526951Y13133499D01*
X15531523Y13119783D01*
X15531523Y13078889D01*
X15531523Y13110639D02*
G01*
X15581561Y13142643D01*
X15499519Y13236115D02*
G01*
X15490629Y13226971D01*
X15486057Y13213509D01*
X15486057Y13195221D01*
X15490629Y13181505D01*
X15499519Y13172615D01*
X15508663Y13172615D01*
X15517807Y13177187D01*
X15522379Y13181505D01*
X15526951Y13190649D01*
X15536095Y13218081D01*
X15540413Y13226971D01*
X15544985Y13231543D01*
X15554129Y13236115D01*
X15567845Y13236115D01*
X15576989Y13226971D01*
X15581561Y13213509D01*
X15581561Y13195221D01*
X15576989Y13181505D01*
X15567845Y13172615D01*
X15486057Y13298091D02*
G01*
X15581561Y13298091D01*
X15486057Y13266087D02*
G01*
X15486057Y13329841D01*
X15762665Y13146963D02*
G01*
X15753521Y13142645D01*
X15744631Y13133501D01*
X15740059Y13124357D01*
X15740059Y13106069D01*
X15744631Y13097179D01*
X15753521Y13088035D01*
X15762665Y13083463D01*
X15776381Y13078891D01*
X15798987Y13078891D01*
X15812703Y13083463D01*
X15821847Y13088035D01*
X15830991Y13097179D01*
X15835563Y13106069D01*
X15835563Y13124357D01*
X15830991Y13133501D01*
X15821847Y13142645D01*
X15812703Y13146963D01*
X15798987Y13146963D01*
X15798987Y13124357D02*
G01*
X15798987Y13146963D01*
X15740059Y13177189D02*
G01*
X15835563Y13177189D01*
X15740059Y13177189D02*
G01*
X15835563Y13240689D01*
X15740059Y13240689D02*
G01*
X15835563Y13240689D01*
X15740059Y13270661D02*
G01*
X15835563Y13270661D01*
X15740059Y13270661D02*
G01*
X15740059Y13302411D01*
X15744631Y13316127D01*
X15753521Y13325271D01*
X15762665Y13329843D01*
X15776381Y13334415D01*
X15798987Y13334415D01*
X15812703Y13329843D01*
X15821847Y13325271D01*
X15830991Y13316127D01*
X15835563Y13302411D01*
X15835563Y13270661D01*
X15994062Y13078894D02*
G01*
X16089566Y13115216D01*
X15994062Y13151538D02*
G01*
X16089566Y13115216D01*
X15994062Y13181510D02*
G01*
X16089566Y13181510D01*
X15994062Y13211736D02*
G01*
X16089566Y13211736D01*
X15994062Y13211736D02*
G01*
X16089566Y13275236D01*
X15994062Y13275236D02*
G01*
X16089566Y13275236D01*
X12436058Y14067792D02*
G01*
X12531562Y14067792D01*
X12436058Y14067792D02*
G01*
X12436058Y14099542D01*
X12440630Y14113258D01*
X12449520Y14122402D01*
X12458664Y14126974D01*
X12472380Y14131546D01*
X12494986Y14131546D01*
X12508702Y14126974D01*
X12517846Y14122402D01*
X12526990Y14113258D01*
X12531562Y14099542D01*
X12531562Y14067792D01*
X12454092Y14161518D02*
G01*
X12449520Y14170408D01*
X12436058Y14184124D01*
X12531562Y14184124D01*
X12458664Y14218668D02*
G01*
X12454092Y14218668D01*
X12445202Y14223240D01*
X12440630Y14227812D01*
X12436058Y14236956D01*
X12436058Y14254990D01*
X12440630Y14264134D01*
X12445202Y14268706D01*
X12454092Y14273278D01*
X12463236Y14273278D01*
X12472380Y14268706D01*
X12486096Y14259562D01*
X12531562Y14214096D01*
X12531562Y14277850D01*
X12690055Y14108686D02*
G01*
X12785559Y14108686D01*
X12690055Y14108686D02*
G01*
X12690055Y14140436D01*
X12694627Y14154152D01*
X12703517Y14163296D01*
X12712661Y14167868D01*
X12726377Y14172440D01*
X12748983Y14172440D01*
X12762699Y14167868D01*
X12771843Y14163296D01*
X12780987Y14154152D01*
X12785559Y14140436D01*
X12785559Y14108686D01*
X12708089Y14202412D02*
G01*
X12703517Y14211302D01*
X12690055Y14225018D01*
X12785559Y14225018D01*
X12708089Y14254990D02*
G01*
X12703517Y14264134D01*
X12690055Y14277850D01*
X12785559Y14277850D01*
X12944058Y14067792D02*
G01*
X13039562Y14067792D01*
X12944058Y14067792D02*
G01*
X12944058Y14099542D01*
X12948630Y14113258D01*
X12957520Y14122402D01*
X12966664Y14126974D01*
X12980380Y14131546D01*
X13002986Y14131546D01*
X13016702Y14126974D01*
X13025846Y14122402D01*
X13034990Y14113258D01*
X13039562Y14099542D01*
X13039562Y14067792D01*
X12962092Y14161518D02*
G01*
X12957520Y14170408D01*
X12944058Y14184124D01*
X13039562Y14184124D01*
X12944058Y14241528D02*
G01*
X12948630Y14227812D01*
X12962092Y14218668D01*
X12984952Y14214096D01*
X12998414Y14214096D01*
X13021274Y14218668D01*
X13034990Y14227812D01*
X13039562Y14241528D01*
X13039562Y14250418D01*
X13034990Y14264134D01*
X13021274Y14273278D01*
X12998414Y14277850D01*
X12984952Y14277850D01*
X12962092Y14273278D01*
X12948630Y14264134D01*
X12944058Y14250418D01*
X12944058Y14241528D01*
X13198058Y14125196D02*
G01*
X13293562Y14125196D01*
X13198058Y14125196D02*
G01*
X13198058Y14156946D01*
X13202630Y14170662D01*
X13211520Y14179806D01*
X13220664Y14184378D01*
X13234380Y14188950D01*
X13256986Y14188950D01*
X13270702Y14184378D01*
X13279846Y14179806D01*
X13288990Y14170662D01*
X13293562Y14156946D01*
X13293562Y14125196D01*
X13229808Y14277850D02*
G01*
X13243524Y14273278D01*
X13252414Y14264388D01*
X13256986Y14250672D01*
X13256986Y14246100D01*
X13252414Y14232384D01*
X13243524Y14223494D01*
X13229808Y14218922D01*
X13225236Y14218922D01*
X13211520Y14223494D01*
X13202630Y14232384D01*
X13198058Y14246100D01*
X13198058Y14250672D01*
X13202630Y14264388D01*
X13211520Y14273278D01*
X13229808Y14277850D01*
X13252414Y14277850D01*
X13275274Y14273278D01*
X13288990Y14264388D01*
X13293562Y14250672D01*
X13293562Y14241528D01*
X13288990Y14227812D01*
X13279846Y14223494D01*
X13452055Y14120624D02*
G01*
X13547559Y14120624D01*
X13452055Y14120624D02*
G01*
X13452055Y14152374D01*
X13456627Y14166090D01*
X13465517Y14175234D01*
X13474661Y14179806D01*
X13488377Y14184378D01*
X13510983Y14184378D01*
X13524699Y14179806D01*
X13533843Y14175234D01*
X13542987Y14166090D01*
X13547559Y14152374D01*
X13547559Y14120624D01*
X13452055Y14236956D02*
G01*
X13456627Y14223240D01*
X13465517Y14218922D01*
X13474661Y14218922D01*
X13483805Y14223240D01*
X13488377Y14232384D01*
X13492949Y14250672D01*
X13497521Y14264134D01*
X13506411Y14273278D01*
X13515555Y14277850D01*
X13529271Y14277850D01*
X13538415Y14273278D01*
X13542987Y14268706D01*
X13547559Y14255244D01*
X13547559Y14236956D01*
X13542987Y14223240D01*
X13538415Y14218922D01*
X13529271Y14214350D01*
X13515555Y14214350D01*
X13506411Y14218922D01*
X13497521Y14227812D01*
X13492949Y14241528D01*
X13488377Y14259816D01*
X13483805Y14268706D01*
X13474661Y14273278D01*
X13465517Y14273278D01*
X13456627Y14268706D01*
X13452055Y14255244D01*
X13452055Y14236956D01*
X13706058Y14120624D02*
G01*
X13801562Y14120624D01*
X13706058Y14120624D02*
G01*
X13706058Y14152374D01*
X13710630Y14166090D01*
X13719520Y14175234D01*
X13728664Y14179806D01*
X13742380Y14184378D01*
X13764986Y14184378D01*
X13778702Y14179806D01*
X13787846Y14175234D01*
X13796990Y14166090D01*
X13801562Y14152374D01*
X13801562Y14120624D01*
X13706058Y14277850D02*
G01*
X13801562Y14232384D01*
X13706058Y14214350D02*
G01*
X13706058Y14277850D01*
X13960058Y14125196D02*
G01*
X14055562Y14125196D01*
X13960058Y14125196D02*
G01*
X13960058Y14156946D01*
X13964630Y14170662D01*
X13973520Y14179806D01*
X13982664Y14184378D01*
X13996380Y14188950D01*
X14018986Y14188950D01*
X14032702Y14184378D01*
X14041846Y14179806D01*
X14050990Y14170662D01*
X14055562Y14156946D01*
X14055562Y14125196D01*
X13973520Y14273278D02*
G01*
X13964630Y14268706D01*
X13960058Y14255244D01*
X13960058Y14246100D01*
X13964630Y14232384D01*
X13978092Y14223494D01*
X14000952Y14218922D01*
X14023558Y14218922D01*
X14041846Y14223494D01*
X14050990Y14232384D01*
X14055562Y14246100D01*
X14055562Y14250672D01*
X14050990Y14264388D01*
X14041846Y14273278D01*
X14028130Y14277850D01*
X14023558Y14277850D01*
X14010096Y14273278D01*
X14000952Y14264388D01*
X13996380Y14250672D01*
X13996380Y14246100D01*
X14000952Y14232384D01*
X14010096Y14223494D01*
X14023558Y14218922D01*
X14214055Y14120624D02*
G01*
X14309559Y14120624D01*
X14214055Y14120624D02*
G01*
X14214055Y14152374D01*
X14218627Y14166090D01*
X14227517Y14175234D01*
X14236661Y14179806D01*
X14250377Y14184378D01*
X14272983Y14184378D01*
X14286699Y14179806D01*
X14295843Y14175234D01*
X14304987Y14166090D01*
X14309559Y14152374D01*
X14309559Y14120624D01*
X14214055Y14268706D02*
G01*
X14214055Y14223240D01*
X14254949Y14218922D01*
X14250377Y14223240D01*
X14245805Y14236956D01*
X14245805Y14250672D01*
X14250377Y14264134D01*
X14259521Y14273278D01*
X14272983Y14277850D01*
X14282127Y14277850D01*
X14295843Y14273278D01*
X14304987Y14264134D01*
X14309559Y14250672D01*
X14309559Y14236956D01*
X14304987Y14223240D01*
X14300415Y14218922D01*
X14291271Y14214350D01*
X14468058Y14116052D02*
G01*
X14563562Y14116052D01*
X14468058Y14116052D02*
G01*
X14468058Y14147802D01*
X14472630Y14161518D01*
X14481520Y14170662D01*
X14490664Y14175234D01*
X14504380Y14179806D01*
X14526986Y14179806D01*
X14540702Y14175234D01*
X14549846Y14170662D01*
X14558990Y14161518D01*
X14563562Y14147802D01*
X14563562Y14116052D01*
X14468058Y14255244D02*
G01*
X14531558Y14209778D01*
X14531558Y14277850D01*
X14468058Y14255244D02*
G01*
X14563562Y14255244D01*
X14722058Y14120624D02*
G01*
X14817562Y14120624D01*
X14722058Y14120624D02*
G01*
X14722058Y14152374D01*
X14726630Y14166090D01*
X14735520Y14175234D01*
X14744664Y14179806D01*
X14758380Y14184378D01*
X14780986Y14184378D01*
X14794702Y14179806D01*
X14803846Y14175234D01*
X14812990Y14166090D01*
X14817562Y14152374D01*
X14817562Y14120624D01*
X14722058Y14223240D02*
G01*
X14722058Y14273278D01*
X14758380Y14246100D01*
X14758380Y14259816D01*
X14762952Y14268706D01*
X14767524Y14273278D01*
X14780986Y14277850D01*
X14790130Y14277850D01*
X14803846Y14273278D01*
X14812990Y14264134D01*
X14817562Y14250672D01*
X14817562Y14236956D01*
X14812990Y14223240D01*
X14808418Y14218922D01*
X14799274Y14214350D01*
X14976055Y14120624D02*
G01*
X15071559Y14120624D01*
X14976055Y14120624D02*
G01*
X14976055Y14152374D01*
X14980627Y14166090D01*
X14989517Y14175234D01*
X14998661Y14179806D01*
X15012377Y14184378D01*
X15034983Y14184378D01*
X15048699Y14179806D01*
X15057843Y14175234D01*
X15066987Y14166090D01*
X15071559Y14152374D01*
X15071559Y14120624D01*
X14998661Y14218922D02*
G01*
X14994089Y14218922D01*
X14985199Y14223240D01*
X14980627Y14227812D01*
X14976055Y14236956D01*
X14976055Y14255244D01*
X14980627Y14264134D01*
X14985199Y14268706D01*
X14994089Y14273278D01*
X15003233Y14273278D01*
X15012377Y14268706D01*
X15026093Y14259816D01*
X15071559Y14214350D01*
X15071559Y14277850D01*
X15252664Y14090398D02*
G01*
X15243520Y14086080D01*
X15234630Y14076936D01*
X15230058Y14067792D01*
X15230058Y14049504D01*
X15234630Y14040614D01*
X15243520Y14031470D01*
X15252664Y14026898D01*
X15266380Y14022326D01*
X15288986Y14022326D01*
X15302702Y14026898D01*
X15311846Y14031470D01*
X15320990Y14040614D01*
X15325562Y14049504D01*
X15325562Y14067792D01*
X15320990Y14076936D01*
X15311846Y14086080D01*
X15302702Y14090398D01*
X15288986Y14090398D01*
X15288986Y14067792D02*
G01*
X15288986Y14090398D01*
X15230058Y14120624D02*
G01*
X15325562Y14120624D01*
X15230058Y14120624D02*
G01*
X15325562Y14184124D01*
X15230058Y14184124D02*
G01*
X15325562Y14184124D01*
X15230058Y14214096D02*
G01*
X15325562Y14214096D01*
X15230058Y14214096D02*
G01*
X15230058Y14245846D01*
X15234630Y14259562D01*
X15243520Y14268706D01*
X15252664Y14273278D01*
X15266380Y14277850D01*
X15288986Y14277850D01*
X15302702Y14273278D01*
X15311846Y14268706D01*
X15320990Y14259562D01*
X15325562Y14245846D01*
X15325562Y14214096D01*
X15484058Y14026898D02*
G01*
X15579562Y14026898D01*
X15484058Y14026898D02*
G01*
X15484058Y14067792D01*
X15488630Y14081508D01*
X15493202Y14086080D01*
X15502092Y14090652D01*
X15511236Y14090652D01*
X15520380Y14086080D01*
X15524952Y14081508D01*
X15529524Y14067792D01*
X15529524Y14026898D01*
X15529524Y14058648D02*
G01*
X15579562Y14090652D01*
X15497520Y14184124D02*
G01*
X15488630Y14174980D01*
X15484058Y14161518D01*
X15484058Y14143230D01*
X15488630Y14129514D01*
X15497520Y14120624D01*
X15506664Y14120624D01*
X15515808Y14125196D01*
X15520380Y14129514D01*
X15524952Y14138658D01*
X15534096Y14166090D01*
X15538414Y14174980D01*
X15542986Y14179552D01*
X15552130Y14184124D01*
X15565846Y14184124D01*
X15574990Y14174980D01*
X15579562Y14161518D01*
X15579562Y14143230D01*
X15574990Y14129514D01*
X15565846Y14120624D01*
X15484058Y14246100D02*
G01*
X15579562Y14246100D01*
X15484058Y14214096D02*
G01*
X15484058Y14277850D01*
X15738055Y14026898D02*
G01*
X15833559Y14026898D01*
X15738055Y14026898D02*
G01*
X15738055Y14067792D01*
X15742627Y14081508D01*
X15747199Y14086080D01*
X15756089Y14090652D01*
X15765233Y14090652D01*
X15774377Y14086080D01*
X15778949Y14081508D01*
X15783521Y14067792D01*
X15783521Y14026898D01*
X15783521Y14058648D02*
G01*
X15833559Y14090652D01*
X15738055Y14120624D02*
G01*
X15833559Y14184124D01*
X15738055Y14184124D02*
G01*
X15833559Y14120624D01*
X15738055Y14214096D02*
G01*
X15833559Y14214096D01*
X15738055Y14214096D02*
G01*
X15738055Y14246100D01*
X15742627Y14259562D01*
X15751517Y14268706D01*
X15760661Y14273278D01*
X15774377Y14277850D01*
X15796983Y14277850D01*
X15810699Y14273278D01*
X15819843Y14268706D01*
X15828987Y14259562D01*
X15833559Y14246100D01*
X15833559Y14214096D01*
X15992058Y14058648D02*
G01*
X16087562Y14058648D01*
X15992058Y14026898D02*
G01*
X15992058Y14090652D01*
X15992058Y14120624D02*
G01*
X16087562Y14184124D01*
X15992058Y14184124D02*
G01*
X16087562Y14120624D01*
X15992058Y14214096D02*
G01*
X16087562Y14214096D01*
X15992058Y14214096D02*
G01*
X15992058Y14246100D01*
X15996630Y14259562D01*
X16005520Y14268706D01*
X16014664Y14273278D01*
X16028380Y14277850D01*
X16050986Y14277850D01*
X16064702Y14273278D01*
X16073846Y14268706D01*
X16082990Y14259562D01*
X16087562Y14246100D01*
X16087562Y14214096D01*
D15*
X14699274Y13328220D02*
G01*
X14715637Y13333674D01*
X14726546Y13350036D01*
X14732000Y13377306D01*
X14732000Y13393668D01*
X14726546Y13420938D01*
X14715637Y13437301D01*
X14699274Y13442754D01*
X14688367Y13442754D01*
X14672005Y13437301D01*
X14661095Y13420938D01*
X14655642Y13393668D01*
X14655642Y13377306D01*
X14661095Y13350036D01*
X14672005Y13333674D01*
X14688367Y13328220D01*
X14699274Y13328220D01*
X14614192Y13415484D02*
G01*
X14619645Y13420938D01*
X14614192Y13426391D01*
X14608738Y13420938D01*
X14614192Y13415484D01*
X14501837Y13366396D02*
G01*
X14507291Y13382759D01*
X14518200Y13393668D01*
X14534563Y13399122D01*
X14540016Y13399122D01*
X14556379Y13393668D01*
X14567286Y13382759D01*
X14572741Y13366396D01*
X14572741Y13360943D01*
X14567286Y13344580D01*
X14556379Y13333674D01*
X14540016Y13328220D01*
X14534563Y13328220D01*
X14518200Y13333674D01*
X14507291Y13344580D01*
X14501837Y13366396D01*
X14501837Y13393668D01*
X14507291Y13420938D01*
X14518200Y13437301D01*
X14534563Y13442754D01*
X14545470Y13442754D01*
X14561832Y13437301D01*
X14567286Y13426391D01*
X14400392Y13344580D02*
G01*
X14405846Y13333674D01*
X14422208Y13328220D01*
X14433115Y13328220D01*
X14449478Y13333674D01*
X14460387Y13350036D01*
X14465841Y13377306D01*
X14465841Y13404575D01*
X14460387Y13426391D01*
X14449478Y13437301D01*
X14433115Y13442754D01*
X14427662Y13442754D01*
X14411299Y13437301D01*
X14400392Y13426391D01*
X14394939Y13410031D01*
X14394939Y13404575D01*
X14400392Y13388215D01*
X14411299Y13377306D01*
X14427662Y13371852D01*
X14433115Y13371852D01*
X14449478Y13377306D01*
X14460387Y13388215D01*
X14465841Y13404575D01*
X14348033Y13311858D02*
G01*
X14348033Y13344580D01*
X14290220Y13328220D02*
G01*
X14301127Y13333674D01*
X14312036Y13344580D01*
X14317489Y13355490D01*
X14322945Y13371852D01*
X14322945Y13399122D01*
X14317489Y13415484D01*
X14312036Y13426391D01*
X14301127Y13437301D01*
X14290220Y13442754D01*
X14268404Y13442754D01*
X14257494Y13437301D01*
X14246588Y13426391D01*
X14241132Y13415484D01*
X14235678Y13399122D01*
X14235678Y13371852D01*
X14241132Y13355490D01*
X14246588Y13344580D01*
X14257494Y13333674D01*
X14268404Y13328220D01*
X14290220Y13328220D01*
X14199682Y13328220D02*
G01*
X14199682Y13442754D01*
X14199682Y13442754D02*
G01*
X14134233Y13442754D01*
X14098236Y13328220D02*
G01*
X14098236Y13442754D01*
X14098236Y13328220D02*
G01*
X14027332Y13328220D01*
X14098236Y13382759D02*
G01*
X14054604Y13382759D01*
X14098236Y13442754D02*
G01*
X14027332Y13442754D01*
X13991336Y13328220D02*
G01*
X13991336Y13442754D01*
X13991336Y13328220D02*
G01*
X13953157Y13328220D01*
X13936797Y13333674D01*
X13925887Y13344580D01*
X13920434Y13355490D01*
X13914981Y13371852D01*
X13914981Y13399122D01*
X13920434Y13415484D01*
X13925887Y13426391D01*
X13936797Y13437301D01*
X13953157Y13442754D01*
X13991336Y13442754D01*
D13*
X11785600Y14136116D02*
G01*
X11785600Y14027150D01*
X11785600Y14136116D02*
G01*
X11832336Y14136116D01*
X11847829Y14131036D01*
X11853163Y14125702D01*
X11858243Y14115287D01*
X11858243Y14104874D01*
X11853163Y14094460D01*
X11847829Y14089379D01*
X11832336Y14084300D01*
X11785600Y14084300D02*
G01*
X11832336Y14084300D01*
X11847829Y14078966D01*
X11853163Y14073886D01*
X11858243Y14063471D01*
X11858243Y14047724D01*
X11853163Y14037310D01*
X11847829Y14032229D01*
X11832336Y14027150D01*
X11785600Y14027150D01*
X11892534Y14136116D02*
G01*
X11892534Y14058137D01*
X11897868Y14042644D01*
X11908281Y14032229D01*
X11923775Y14027150D01*
X11934190Y14027150D01*
X11949684Y14032229D01*
X11960097Y14042644D01*
X11965431Y14058137D01*
X11965431Y14136116D01*
X12072365Y14136116D02*
G01*
X11999722Y14027150D01*
X11999722Y14136116D02*
G01*
X12072365Y14136116D01*
X11999722Y14027150D02*
G01*
X12072365Y14027150D01*
X12179300Y14136116D02*
G01*
X12106656Y14027150D01*
X12106656Y14136116D02*
G01*
X12179300Y14136116D01*
X12106656Y14027150D02*
G01*
X12179300Y14027150D01*
X12213590Y14136116D02*
G01*
X12213590Y14027150D01*
X12213590Y14136116D02*
G01*
X12281154Y14136116D01*
X12213590Y14084300D02*
G01*
X12255245Y14084300D01*
X12213590Y14027150D02*
G01*
X12281154Y14027150D01*
X12315443Y14136116D02*
G01*
X12315443Y14027150D01*
X12315443Y14136116D02*
G01*
X12362179Y14136116D01*
X12377927Y14131036D01*
X12383008Y14125702D01*
X12388341Y14115287D01*
X12388341Y14104874D01*
X12383008Y14094460D01*
X12377927Y14089379D01*
X12362179Y14084300D01*
X12315443Y14084300D01*
X12352020Y14084300D02*
G01*
X12388341Y14027150D01*
D16*
X15201696Y11951639D02*
G01*
X15201696Y11749100D01*
D10*
X15002840Y11951639D02*
G01*
X15403499Y11951639D01*
X15403499Y11749100D01*
X15002840Y11749100D01*
X15002840Y11951639D01*
D16*
X12670886Y14901900D02*
G01*
X12666738Y14901900D01*
X13120888Y14901900D02*
G01*
X12812511Y14901900D01*
X13266699Y14901900D02*
G01*
X13262513Y14901900D01*
X12670886Y15501899D02*
G01*
X12666738Y15501899D01*
X13120888Y15501899D02*
G01*
X12812511Y15501899D01*
X13266699Y15501899D02*
G01*
X13262513Y15501899D01*
X12666738Y14901926D02*
G01*
X12666738Y15501874D01*
X13266699Y15501899D02*
G01*
X13266699Y14901900D01*
X15827913Y15489199D02*
G01*
X15832061Y15489199D01*
X15377911Y15489199D02*
G01*
X15686288Y15489199D01*
X15232100Y15489199D02*
G01*
X15236286Y15489199D01*
X15827913Y14889200D02*
G01*
X15832061Y14889200D01*
X15377911Y14889200D02*
G01*
X15686288Y14889200D01*
X15232100Y14889200D02*
G01*
X15236286Y14889200D01*
X15832061Y15489174D02*
G01*
X15832061Y14889226D01*
X15232100Y14889200D02*
G01*
X15232100Y15489199D01*
X14193588Y10827110D02*
G01*
X14193588Y11227109D01*
X14043586Y10827110D02*
G01*
X14193588Y10827110D01*
X14043586Y11227109D02*
G01*
X14043586Y10827110D01*
X13781702Y11577109D02*
G01*
X14691700Y11577109D01*
X14691700Y11227109D02*
G01*
X14691700Y11577109D01*
X13781702Y11227109D02*
G01*
X13781702Y11577109D01*
X13781702Y11227109D02*
G01*
X14691700Y11227109D01*
D17*
X14579559Y12788960D02*
G01*
X14643059Y12852460D01*
X14706559Y12788960D01*
X12420574Y13042948D02*
G01*
X12357074Y12979448D01*
X12357074Y12852448D01*
X12420574Y12788948D01*
X12674574Y13042948D02*
G01*
X12611074Y12979448D01*
X12547574Y13042948D01*
X12928574Y13042948D02*
G01*
X12865074Y12979448D01*
X12801574Y13042948D01*
X13182528Y13042948D02*
G01*
X13119051Y12979448D01*
X13055551Y13042948D01*
X13436523Y13042948D02*
G01*
X13373023Y12979448D01*
X13309523Y13042948D01*
X13690523Y13042948D02*
G01*
X13627023Y12979448D01*
X13563523Y13042948D01*
X13944523Y13042948D02*
G01*
X13881023Y12979448D01*
X13817523Y13042948D01*
X14198523Y13042948D02*
G01*
X14135023Y12979448D01*
X14071523Y13042948D01*
X14452523Y13042948D02*
G01*
X14389023Y12979448D01*
X14325523Y13042948D01*
X14706523Y13042948D02*
G01*
X14643023Y12979448D01*
X14579523Y13042948D01*
X14960523Y13042948D02*
G01*
X14897023Y12979448D01*
X14833523Y13042948D01*
X15214523Y13042948D02*
G01*
X15151023Y12979448D01*
X15087523Y13042948D01*
X15468551Y13042948D02*
G01*
X15405028Y12979448D01*
X15341523Y13042948D01*
X15722559Y13042948D02*
G01*
X15659059Y12979448D01*
X15595559Y13042948D01*
X15976559Y13042948D02*
G01*
X15913059Y12979448D01*
X15849559Y13042948D01*
X16103559Y12788948D02*
G01*
X16167059Y12852448D01*
X16167059Y12979448D01*
X16103559Y13042948D01*
X15849559Y12788948D02*
G01*
X15913059Y12852448D01*
X15976559Y12788948D01*
X15595559Y12788948D02*
G01*
X15659059Y12852448D01*
X15722559Y12788948D01*
X15341523Y12788948D02*
G01*
X15405028Y12852448D01*
X15468551Y12788948D01*
X13055551Y12788948D02*
G01*
X13119051Y12852448D01*
X13182528Y12788948D01*
X12547574Y12788948D02*
G01*
X12611074Y12852448D01*
X12674574Y12788948D01*
X12801574Y12788948D02*
G01*
X12865074Y12852448D01*
X12928574Y12788948D01*
X13309523Y12788948D02*
G01*
X13373023Y12852448D01*
X13436523Y12788948D01*
X13563523Y12788948D02*
G01*
X13627023Y12852448D01*
X13690523Y12788948D01*
X13817523Y12788948D02*
G01*
X13881023Y12852448D01*
X13944523Y12788948D01*
X14071523Y12788948D02*
G01*
X14135023Y12852448D01*
X14198523Y12788948D01*
X14325523Y12788948D02*
G01*
X14389023Y12852448D01*
X14452523Y12788948D01*
X14833523Y12788948D02*
G01*
X14897023Y12852448D01*
X14960523Y12788948D01*
X15087523Y12788948D02*
G01*
X15151023Y12852448D01*
X15214523Y12788948D01*
X15341523Y12788948D02*
G01*
X15405028Y12852448D01*
X15468551Y12788948D01*
X15595559Y12788948D01*
X15659059Y12852448D01*
X15722559Y12788948D01*
X15849559Y12788948D01*
X15913059Y12852448D01*
X15976559Y12788948D01*
X16103559Y12788948D01*
X16167059Y12852448D01*
X16167059Y12979448D01*
X16103559Y13042948D01*
X15976559Y13042948D01*
X15913059Y12979448D01*
X15849559Y13042948D01*
X15722559Y13042948D01*
X15659059Y12979448D01*
X15595559Y13042948D01*
X15468551Y13042948D01*
X15405028Y12979448D01*
X15341523Y13042948D01*
X15214523Y13042948D01*
X15151023Y12979448D01*
X15087523Y13042948D01*
X14960523Y13042948D01*
X14897023Y12979448D01*
X14833523Y13042948D01*
X14706523Y13042948D01*
X14643023Y12979448D01*
X14579523Y13042948D01*
X14452523Y13042948D01*
X14389023Y12979448D01*
X14325523Y13042948D01*
X14198523Y13042948D01*
X14135023Y12979448D01*
X14071523Y13042948D01*
X13944523Y13042948D01*
X13881023Y12979448D01*
X13817523Y13042948D01*
X13690523Y13042948D01*
X13627023Y12979448D01*
X13563523Y13042948D01*
X13436523Y13042948D01*
X13373023Y12979448D01*
X13309523Y13042948D01*
X13182528Y13042948D01*
X13119051Y12979448D01*
X13055551Y13042948D01*
X12928574Y13042948D01*
X12865074Y12979448D01*
X12801574Y13042948D01*
X12674574Y13042948D01*
X12611074Y12979448D01*
X12547574Y13042948D01*
X12420574Y13042948D01*
X12357074Y12979448D01*
X12357074Y12852448D01*
X12420574Y12788948D01*
X13944625Y14566856D02*
G01*
X13881125Y14503356D01*
X13817625Y14566856D01*
X13182666Y14566866D02*
G01*
X13119163Y14503366D01*
X13055638Y14566866D01*
X12928625Y14566866D01*
X12865125Y14503366D01*
X12801625Y14566866D01*
X12674625Y14566866D01*
X12611125Y14503366D01*
X12547625Y14566866D01*
X12420625Y14566866D01*
X12357125Y14503366D01*
X12357125Y14376366D01*
X12420625Y14312866D01*
X12547625Y14312866D01*
X12611125Y14376366D01*
X12674625Y14312866D01*
X12801625Y14312866D01*
X12865125Y14376366D01*
X12928625Y14312866D01*
X13055638Y14312866D01*
X13119163Y14376366D01*
X13182666Y14312866D01*
X13309666Y14312866D01*
X13373166Y14376366D01*
X13436666Y14312866D01*
X13563666Y14312866D01*
X13627166Y14376366D01*
X13690666Y14312866D01*
X13817666Y14312866D01*
X13881166Y14376366D01*
X13944666Y14312866D01*
X14071666Y14312866D01*
X14135166Y14376366D01*
X14198666Y14312866D01*
X14325666Y14312866D01*
X14389166Y14376366D01*
X14452666Y14312866D01*
X14579666Y14312866D01*
X14643166Y14376366D01*
X14706666Y14312866D01*
X14833666Y14312866D01*
X14897166Y14376366D01*
X14960666Y14312866D01*
X15087666Y14312866D01*
X15151166Y14376366D01*
X15214666Y14312866D01*
X15341660Y14312866D01*
X15405138Y14376366D01*
X15468638Y14312866D01*
X15595615Y14312866D01*
X15659115Y14376366D01*
X15722615Y14312866D01*
X15849615Y14312866D01*
X15913115Y14376366D01*
X15976615Y14312866D01*
X16103615Y14312866D01*
X16167115Y14376366D01*
X16167115Y14503366D01*
X16103615Y14566866D01*
X15468638Y14566866D02*
G01*
X15405138Y14503366D01*
X15341660Y14566866D01*
X15976615Y14566866D02*
G01*
X15913115Y14503366D01*
X15849615Y14566866D01*
X15722615Y14566866D02*
G01*
X15659115Y14503366D01*
X15595615Y14566866D01*
X15214666Y14566866D02*
G01*
X15151166Y14503366D01*
X15087666Y14566866D01*
X14960666Y14566866D02*
G01*
X14897166Y14503366D01*
X14833666Y14566866D01*
X14706666Y14566866D02*
G01*
X14643166Y14503366D01*
X14579666Y14566866D01*
X14452666Y14566866D02*
G01*
X14389166Y14503366D01*
X14325666Y14566866D01*
X14198666Y14566866D02*
G01*
X14135166Y14503366D01*
X14071666Y14566866D01*
X13690666Y14566866D02*
G01*
X13627166Y14503366D01*
X13563666Y14566866D01*
X13436666Y14566866D02*
G01*
X13373166Y14503366D01*
X13309666Y14566866D01*
X12491720Y13957300D02*
G01*
X12491720Y13931910D01*
X12103100Y13957300D02*
G01*
X11950700Y13957300D01*
X11950700Y13398500D01*
X12491720Y13398500D01*
X12491720Y13419404D01*
X12103100Y13957300D02*
G01*
X12491720Y13957300D01*
X12491720Y13931910D02*
G01*
X12491720Y13423900D01*
D13*
X12095479Y14574517D02*
G01*
X16428712Y14574517D01*
X16428712Y12781279D01*
X12095479Y12781279D01*
X12095479Y14574517D01*
D16*
G75*
G01
X13106730Y15201900D02*
G03X13106730Y15201900I-140005J0D01*
G75*
G01
X13202768Y15001900D02*
G03X13202768Y15001900I-36068J0D01*
G75*
G01
X13202768Y15401900D02*
G03X13202768Y15401900I-36068J0D01*
G75*
G01
X12802768Y15401900D02*
G03X12802768Y15401900I-36068J0D01*
G75*
G01
X12802768Y15001900D02*
G03X12802768Y15001900I-36068J0D01*
G75*
G01
X15672105Y15189200D02*
G03X15672105Y15189200I-140005J0D01*
G75*
G01
X15368194Y15389200D02*
G03X15368194Y15389200I-36068J0D01*
G75*
G01
X15368194Y14989200D02*
G03X15368194Y14989200I-36068J0D01*
G75*
G01
X15768193Y14989200D02*
G03X15768193Y14989200I-36068J0D01*
G75*
G01
X15768193Y15389200D02*
G03X15768193Y15389200I-36068J0D01*
M02*
