G04 Layer: BottomLayer*
G04 EasyEDA v6.5.51, 2026-10-07 05:10:36*
G04 197882fafefe4d2ba97ff6944c954397,10*
G04 Gerber Generator version 0.2*
G04 Scale: 100 percent, Rotated: No, Reflected: No *
G04 Dimensions in millimeters *
G04 leading zeros omitted , absolute positions ,4 integer and 5 decimal *
%FSLAX45Y45*%
%MOMM*%

%ADD10C,0.6000*%
%ADD11C,0.2540*%
%ADD12R,1.4000X1.4000*%
%ADD13C,1.4000*%
%ADD14R,1.6000X1.6000*%
%ADD15C,1.6000*%
%ADD16C,1.6500*%
%ADD17C,1.7780*%
%ADD18C,0.6200*%
%ADD19C,0.0159*%

%LPD*%
G36*
X15120213Y14365884D02*
G01*
X15116149Y14367001D01*
X15112847Y14369694D01*
X15110968Y14373504D01*
X15110815Y14377720D01*
X15112339Y14381683D01*
X15115844Y14386915D01*
X15121991Y14399310D01*
X15126411Y14412468D01*
X15129154Y14426031D01*
X15130018Y14439849D01*
X15129154Y14453666D01*
X15126411Y14467281D01*
X15121991Y14480387D01*
X15115844Y14492782D01*
X15112187Y14498319D01*
X15110612Y14502231D01*
X15110764Y14506498D01*
X15112695Y14510257D01*
X15115946Y14512950D01*
X15120061Y14514068D01*
X15124226Y14513458D01*
X15127782Y14511121D01*
X15171267Y14467636D01*
X15173198Y14464944D01*
X15174163Y14461794D01*
X15174061Y14458492D01*
X15173096Y14453717D01*
X15172232Y14439900D01*
X15173096Y14426082D01*
X15174061Y14421307D01*
X15174163Y14418005D01*
X15173198Y14414855D01*
X15171267Y14412163D01*
X15127986Y14368881D01*
X15124430Y14366544D01*
G37*

%LPD*%
G36*
X11986768Y12713208D02*
G01*
X11982856Y12713970D01*
X11979605Y12716205D01*
X11977370Y12719456D01*
X11976608Y12723368D01*
X11976608Y13194690D01*
X11975795Y13201192D01*
X11973712Y13206730D01*
X11970156Y13211860D01*
X11967159Y13214908D01*
X11963552Y13217550D01*
X11958015Y13220039D01*
X11950547Y13221207D01*
X11466068Y13221207D01*
X11462156Y13221969D01*
X11458905Y13224205D01*
X11456670Y13227456D01*
X11455908Y13231368D01*
X11455908Y14695932D01*
X11456670Y14699843D01*
X11458905Y14703094D01*
X11462156Y14705330D01*
X11466068Y14706092D01*
X11937390Y14706092D01*
X11943892Y14706904D01*
X11949430Y14708987D01*
X11954560Y14712543D01*
X11957608Y14715540D01*
X11960250Y14719147D01*
X11962739Y14724684D01*
X11963908Y14732152D01*
X11963908Y15203932D01*
X11964670Y15207843D01*
X11966905Y15211094D01*
X11970156Y15213330D01*
X11974068Y15214092D01*
X12470790Y15214092D01*
X12477292Y15214904D01*
X12482830Y15216987D01*
X12487960Y15220543D01*
X12491008Y15223540D01*
X12493650Y15227147D01*
X12496139Y15232684D01*
X12497308Y15240152D01*
X12497308Y15724632D01*
X12498070Y15728543D01*
X12500305Y15731794D01*
X12503556Y15734030D01*
X12507468Y15734792D01*
X13425932Y15734792D01*
X13429843Y15734030D01*
X13433094Y15731794D01*
X13435330Y15728543D01*
X13436092Y15724632D01*
X13436092Y15240609D01*
X13436904Y15234107D01*
X13438987Y15228569D01*
X13442543Y15223439D01*
X13445540Y15220391D01*
X13449147Y15217749D01*
X13454684Y15215260D01*
X13462152Y15214092D01*
X13933932Y15214092D01*
X13937843Y15213330D01*
X13941094Y15211094D01*
X13943330Y15207843D01*
X13944092Y15203932D01*
X13944092Y14759127D01*
X13943228Y14754961D01*
X13940739Y14751557D01*
X13937691Y14748814D01*
X13935506Y14745969D01*
X13932916Y14740432D01*
X13931696Y14734387D01*
X13931696Y14729409D01*
X13932255Y14725700D01*
X13934440Y14719960D01*
X13937792Y14715083D01*
X13942466Y14710968D01*
X13945565Y14709089D01*
X13951407Y14706904D01*
X13954099Y14706549D01*
X13958214Y14705126D01*
X13961363Y14702078D01*
X13962938Y14698014D01*
X13962684Y14693696D01*
X13960601Y14689886D01*
X13957147Y14687245D01*
X13952880Y14686330D01*
X12807746Y14686330D01*
X12803886Y14687092D01*
X12800584Y14689277D01*
X12798399Y14692579D01*
X12797586Y14696490D01*
X12797586Y14770404D01*
X12798602Y14781936D01*
X12797739Y14791537D01*
X12795351Y14800834D01*
X12791338Y14809622D01*
X12785953Y14817648D01*
X12779298Y14824608D01*
X12771526Y14830348D01*
X12762890Y14834666D01*
X12753695Y14837511D01*
X12744145Y14838730D01*
X12734493Y14838324D01*
X12725044Y14836292D01*
X12716103Y14832685D01*
X12707874Y14827656D01*
X12700660Y14821255D01*
X12694564Y14813737D01*
X12689890Y14805355D01*
X12686690Y14796262D01*
X12685064Y14786711D01*
X12685064Y14777110D01*
X12685776Y14771878D01*
X12685776Y14651532D01*
X12685268Y14648332D01*
X12684099Y14644776D01*
X12683032Y14640102D01*
X12682423Y14635276D01*
X12682220Y14630400D01*
X12682423Y14625523D01*
X12683032Y14620697D01*
X12684099Y14615922D01*
X12685572Y14611299D01*
X12687452Y14606778D01*
X12689687Y14602460D01*
X12692329Y14598345D01*
X12695275Y14594484D01*
X12698577Y14590877D01*
X12702184Y14587575D01*
X12706045Y14584629D01*
X12710160Y14581987D01*
X12714478Y14579752D01*
X12718999Y14577872D01*
X12723622Y14576399D01*
X12728397Y14575332D01*
X12733223Y14574723D01*
X12738303Y14574469D01*
X15060218Y14574469D01*
X15064130Y14573707D01*
X15067432Y14571522D01*
X15095423Y14543532D01*
X15097709Y14539925D01*
X15098369Y14535759D01*
X15097251Y14531644D01*
X15094559Y14528393D01*
X15090800Y14526463D01*
X15086533Y14526310D01*
X15082570Y14527885D01*
X15077084Y14531543D01*
X15064689Y14537690D01*
X15051532Y14542109D01*
X15037968Y14544852D01*
X15024150Y14545716D01*
X15010333Y14544852D01*
X14996769Y14542109D01*
X14983612Y14537690D01*
X14971217Y14531543D01*
X14959685Y14523872D01*
X14949271Y14514728D01*
X14940127Y14504314D01*
X14932456Y14492782D01*
X14926310Y14480387D01*
X14921890Y14467281D01*
X14919147Y14453666D01*
X14918283Y14439849D01*
X14919147Y14426031D01*
X14921890Y14412468D01*
X14926310Y14399310D01*
X14932456Y14386915D01*
X14940127Y14375384D01*
X14949271Y14364969D01*
X14959685Y14355826D01*
X14971217Y14348155D01*
X14983612Y14342008D01*
X14996769Y14337588D01*
X15010333Y14334896D01*
X15024150Y14333982D01*
X15037968Y14334896D01*
X15051532Y14337588D01*
X15064689Y14342008D01*
X15077084Y14348155D01*
X15082316Y14351660D01*
X15086279Y14353235D01*
X15090495Y14353032D01*
X15094305Y14351152D01*
X15096998Y14347850D01*
X15098115Y14343786D01*
X15097455Y14339569D01*
X15095169Y14336013D01*
X13962532Y13203377D01*
X13959230Y13201192D01*
X13955318Y13200430D01*
X12331903Y13200430D01*
X12326823Y13200176D01*
X12321997Y13199567D01*
X12317222Y13198500D01*
X12312599Y13197027D01*
X12308078Y13195147D01*
X12303760Y13192912D01*
X12299645Y13190270D01*
X12295784Y13187324D01*
X12292025Y13183869D01*
X12216130Y13107974D01*
X12212675Y13104215D01*
X12209729Y13100354D01*
X12207087Y13096240D01*
X12204852Y13091921D01*
X12202972Y13087400D01*
X12201499Y13082778D01*
X12200432Y13078002D01*
X12199823Y13073176D01*
X12199569Y13068096D01*
X12199569Y12789103D01*
X12199823Y12784023D01*
X12200432Y12779197D01*
X12201499Y12774422D01*
X12202972Y12769799D01*
X12204852Y12765278D01*
X12207087Y12760960D01*
X12209729Y12756845D01*
X12212675Y12752984D01*
X12216130Y12749225D01*
X12234773Y12730530D01*
X12237008Y12727279D01*
X12237770Y12723368D01*
X12237008Y12719456D01*
X12234773Y12716205D01*
X12231471Y12713970D01*
X12227610Y12713208D01*
G37*

%LPC*%
G36*
X11722608Y13563092D02*
G01*
X12407392Y13563092D01*
X12415418Y13563904D01*
X12422632Y13566089D01*
X12429337Y13569645D01*
X12435535Y13574776D01*
X13199110Y14338300D01*
X13202208Y14340433D01*
X13205815Y14341246D01*
X13209524Y14340738D01*
X13218718Y14337639D01*
X13232282Y14334947D01*
X13246100Y14334032D01*
X13259917Y14334947D01*
X13273532Y14337639D01*
X13286638Y14342059D01*
X13299033Y14348206D01*
X13310565Y14355876D01*
X13320979Y14365020D01*
X13330123Y14375434D01*
X13337794Y14386966D01*
X13343940Y14399361D01*
X13348360Y14412518D01*
X13351103Y14426082D01*
X13351967Y14439900D01*
X13351103Y14453717D01*
X13348360Y14467332D01*
X13343940Y14480438D01*
X13337794Y14492833D01*
X13330123Y14504365D01*
X13320979Y14514779D01*
X13310565Y14523923D01*
X13299033Y14531594D01*
X13286638Y14537740D01*
X13273532Y14542160D01*
X13259917Y14544903D01*
X13246100Y14545767D01*
X13232282Y14544903D01*
X13218718Y14542160D01*
X13205561Y14537740D01*
X13193166Y14531594D01*
X13181634Y14523923D01*
X13171220Y14514779D01*
X13162076Y14504365D01*
X13154406Y14492833D01*
X13148259Y14480438D01*
X13143839Y14467332D01*
X13141147Y14453717D01*
X13140232Y14439900D01*
X13141147Y14426082D01*
X13143839Y14412518D01*
X13146938Y14403324D01*
X13147446Y14399615D01*
X13146633Y14396008D01*
X13144500Y14392910D01*
X12394895Y13643305D01*
X12391593Y13641069D01*
X12387681Y13640307D01*
X11775948Y13640307D01*
X11772036Y13641069D01*
X11768785Y13643305D01*
X11766550Y13646556D01*
X11765788Y13650468D01*
X11765788Y13702792D01*
X11766600Y13706703D01*
X11768836Y13710005D01*
X11772188Y13712190D01*
X11776049Y13713713D01*
X11788698Y13720673D01*
X11800332Y13729157D01*
X11810847Y13739012D01*
X11820042Y13750137D01*
X11827764Y13762278D01*
X11833910Y13775334D01*
X11838381Y13789050D01*
X11841073Y13803223D01*
X11841988Y13817600D01*
X11841073Y13831976D01*
X11838381Y13846149D01*
X11833910Y13859865D01*
X11827764Y13872921D01*
X11820042Y13885062D01*
X11810847Y13896187D01*
X11800332Y13906042D01*
X11788698Y13914526D01*
X11776049Y13921486D01*
X11762638Y13926769D01*
X11748668Y13930376D01*
X11734393Y13932154D01*
X11719966Y13932154D01*
X11705691Y13930376D01*
X11691721Y13926769D01*
X11678310Y13921486D01*
X11665661Y13914526D01*
X11654028Y13906042D01*
X11643512Y13896187D01*
X11634317Y13885062D01*
X11626596Y13872921D01*
X11620449Y13859865D01*
X11615978Y13846149D01*
X11613286Y13831976D01*
X11612372Y13817600D01*
X11613286Y13803223D01*
X11615978Y13789050D01*
X11620449Y13775334D01*
X11626596Y13762278D01*
X11634317Y13750137D01*
X11643512Y13739012D01*
X11654028Y13729157D01*
X11665661Y13720673D01*
X11678310Y13713713D01*
X11682171Y13712190D01*
X11685524Y13710005D01*
X11687759Y13706703D01*
X11688572Y13702792D01*
X11688572Y13622934D01*
X11688267Y13620445D01*
X11686489Y13616432D01*
X11684304Y13609218D01*
X11683542Y13601700D01*
X11684304Y13594181D01*
X11686489Y13586968D01*
X11690045Y13580262D01*
X11694820Y13574420D01*
X11700662Y13569645D01*
X11707368Y13566089D01*
X11714581Y13563904D01*
G37*
G36*
X12370206Y13703046D02*
G01*
X12384633Y13703046D01*
X12398908Y13704824D01*
X12412878Y13708430D01*
X12426289Y13713713D01*
X12438938Y13720673D01*
X12450572Y13729157D01*
X12461087Y13739012D01*
X12470282Y13750137D01*
X12478004Y13762278D01*
X12484150Y13775334D01*
X12488621Y13789050D01*
X12491313Y13803223D01*
X12492228Y13817600D01*
X12491313Y13831976D01*
X12488621Y13846149D01*
X12484150Y13859865D01*
X12478004Y13872921D01*
X12470282Y13885062D01*
X12461087Y13896187D01*
X12450572Y13906042D01*
X12438938Y13914526D01*
X12426289Y13921486D01*
X12412878Y13926769D01*
X12398908Y13930376D01*
X12384633Y13932154D01*
X12370206Y13932154D01*
X12355931Y13930376D01*
X12341961Y13926769D01*
X12328550Y13921486D01*
X12315901Y13914526D01*
X12304268Y13906042D01*
X12293752Y13896187D01*
X12284557Y13885062D01*
X12276836Y13872921D01*
X12270689Y13859865D01*
X12266218Y13846149D01*
X12263526Y13831976D01*
X12262612Y13817600D01*
X12263526Y13803223D01*
X12266218Y13789050D01*
X12270689Y13775334D01*
X12276836Y13762278D01*
X12284557Y13750137D01*
X12293752Y13739012D01*
X12304268Y13729157D01*
X12315901Y13720673D01*
X12328550Y13713713D01*
X12341961Y13708430D01*
X12355931Y13704824D01*
G37*
G36*
X14008150Y14333982D02*
G01*
X14021968Y14334896D01*
X14035532Y14337588D01*
X14048689Y14342008D01*
X14061084Y14348155D01*
X14072616Y14355826D01*
X14083030Y14364969D01*
X14092174Y14375384D01*
X14099844Y14386915D01*
X14105991Y14399310D01*
X14110411Y14412468D01*
X14113154Y14426031D01*
X14114018Y14439849D01*
X14113154Y14453666D01*
X14110411Y14467281D01*
X14105991Y14480387D01*
X14099844Y14492782D01*
X14092174Y14504314D01*
X14083030Y14514728D01*
X14072616Y14523872D01*
X14061084Y14531543D01*
X14048689Y14537690D01*
X14035532Y14542109D01*
X14021968Y14544852D01*
X14008150Y14545716D01*
X13994333Y14544852D01*
X13980769Y14542109D01*
X13967612Y14537690D01*
X13955217Y14531543D01*
X13943685Y14523872D01*
X13933271Y14514728D01*
X13924127Y14504314D01*
X13916456Y14492782D01*
X13910310Y14480387D01*
X13905890Y14467281D01*
X13903147Y14453666D01*
X13902283Y14439849D01*
X13903147Y14426031D01*
X13905890Y14412468D01*
X13910310Y14399310D01*
X13916456Y14386915D01*
X13924127Y14375384D01*
X13933271Y14364969D01*
X13943685Y14355826D01*
X13955217Y14348155D01*
X13967612Y14342008D01*
X13980769Y14337588D01*
X13994333Y14334896D01*
G37*
G36*
X13500150Y14333982D02*
G01*
X13513968Y14334896D01*
X13527532Y14337588D01*
X13540689Y14342008D01*
X13553084Y14348155D01*
X13564616Y14355826D01*
X13575030Y14364969D01*
X13584174Y14375384D01*
X13591844Y14386915D01*
X13597991Y14399310D01*
X13602411Y14412468D01*
X13605154Y14426031D01*
X13606018Y14439849D01*
X13605154Y14453666D01*
X13602411Y14467281D01*
X13597991Y14480387D01*
X13591844Y14492782D01*
X13584174Y14504314D01*
X13575030Y14514728D01*
X13564616Y14523872D01*
X13553084Y14531543D01*
X13540689Y14537690D01*
X13527532Y14542109D01*
X13513968Y14544852D01*
X13500150Y14545716D01*
X13486333Y14544852D01*
X13472769Y14542109D01*
X13459612Y14537690D01*
X13447217Y14531543D01*
X13435685Y14523872D01*
X13425271Y14514728D01*
X13416127Y14504314D01*
X13408456Y14492782D01*
X13402310Y14480387D01*
X13397890Y14467281D01*
X13395147Y14453666D01*
X13394283Y14439849D01*
X13395147Y14426031D01*
X13397890Y14412468D01*
X13402310Y14399310D01*
X13408456Y14386915D01*
X13416127Y14375384D01*
X13425271Y14364969D01*
X13435685Y14355826D01*
X13447217Y14348155D01*
X13459612Y14342008D01*
X13472769Y14337588D01*
X13486333Y14334896D01*
G37*
G36*
X14516150Y14333982D02*
G01*
X14529968Y14334896D01*
X14543582Y14337588D01*
X14556689Y14342008D01*
X14569084Y14348155D01*
X14580616Y14355826D01*
X14591030Y14364969D01*
X14600174Y14375384D01*
X14607844Y14386915D01*
X14613991Y14399310D01*
X14618411Y14412468D01*
X14621154Y14426031D01*
X14622018Y14439849D01*
X14621154Y14453666D01*
X14618411Y14467281D01*
X14613991Y14480387D01*
X14607844Y14492782D01*
X14600174Y14504314D01*
X14591030Y14514728D01*
X14580616Y14523872D01*
X14569084Y14531543D01*
X14556689Y14537690D01*
X14543582Y14542109D01*
X14529968Y14544852D01*
X14516150Y14545716D01*
X14502333Y14544852D01*
X14488769Y14542109D01*
X14475612Y14537690D01*
X14463217Y14531543D01*
X14451685Y14523872D01*
X14441271Y14514728D01*
X14432127Y14504314D01*
X14424456Y14492782D01*
X14418310Y14480387D01*
X14413890Y14467281D01*
X14411198Y14453666D01*
X14410283Y14439849D01*
X14411198Y14426031D01*
X14413890Y14412468D01*
X14418310Y14399310D01*
X14424456Y14386915D01*
X14432127Y14375384D01*
X14441271Y14364969D01*
X14451685Y14355826D01*
X14463217Y14348155D01*
X14475612Y14342008D01*
X14488769Y14337588D01*
X14502333Y14334896D01*
G37*
G36*
X12992150Y14333982D02*
G01*
X13005968Y14334896D01*
X13019532Y14337588D01*
X13032689Y14342008D01*
X13045084Y14348155D01*
X13056615Y14355826D01*
X13067030Y14364969D01*
X13076174Y14375384D01*
X13083844Y14386915D01*
X13089991Y14399310D01*
X13094411Y14412468D01*
X13097154Y14426031D01*
X13098018Y14439849D01*
X13097154Y14453666D01*
X13094411Y14467281D01*
X13089991Y14480387D01*
X13083844Y14492782D01*
X13076174Y14504314D01*
X13067030Y14514728D01*
X13056615Y14523872D01*
X13045084Y14531543D01*
X13032689Y14537690D01*
X13019532Y14542109D01*
X13005968Y14544852D01*
X12992150Y14545716D01*
X12978333Y14544852D01*
X12964769Y14542109D01*
X12951612Y14537690D01*
X12939217Y14531543D01*
X12927685Y14523872D01*
X12917271Y14514728D01*
X12908127Y14504314D01*
X12900456Y14492782D01*
X12894310Y14480387D01*
X12889890Y14467281D01*
X12887147Y14453666D01*
X12886283Y14439849D01*
X12887147Y14426031D01*
X12889890Y14412468D01*
X12894310Y14399310D01*
X12900456Y14386915D01*
X12908127Y14375384D01*
X12917271Y14364969D01*
X12927685Y14355826D01*
X12939217Y14348155D01*
X12951612Y14342008D01*
X12964769Y14337588D01*
X12978333Y14334896D01*
G37*
G36*
X13754100Y14334032D02*
G01*
X13767917Y14334947D01*
X13781532Y14337639D01*
X13794638Y14342059D01*
X13807033Y14348206D01*
X13818565Y14355876D01*
X13828979Y14365020D01*
X13838123Y14375434D01*
X13845794Y14386966D01*
X13851940Y14399361D01*
X13856360Y14412518D01*
X13859103Y14426082D01*
X13859967Y14439900D01*
X13859103Y14453717D01*
X13856360Y14467332D01*
X13851940Y14480438D01*
X13845794Y14492833D01*
X13838123Y14504365D01*
X13828979Y14514779D01*
X13818565Y14523923D01*
X13807033Y14531594D01*
X13794638Y14537740D01*
X13781532Y14542160D01*
X13767917Y14544903D01*
X13754100Y14545767D01*
X13740282Y14544903D01*
X13726718Y14542160D01*
X13713561Y14537740D01*
X13701166Y14531594D01*
X13689634Y14523923D01*
X13679220Y14514779D01*
X13670076Y14504365D01*
X13662406Y14492833D01*
X13656259Y14480438D01*
X13651839Y14467332D01*
X13649147Y14453717D01*
X13648232Y14439900D01*
X13649147Y14426082D01*
X13651839Y14412518D01*
X13656259Y14399361D01*
X13662406Y14386966D01*
X13670076Y14375434D01*
X13679220Y14365020D01*
X13689634Y14355876D01*
X13701166Y14348206D01*
X13713561Y14342059D01*
X13726718Y14337639D01*
X13740282Y14334947D01*
G37*
G36*
X12738100Y14334032D02*
G01*
X12751917Y14334947D01*
X12765532Y14337639D01*
X12778638Y14342059D01*
X12791033Y14348206D01*
X12802565Y14355876D01*
X12812979Y14365020D01*
X12822123Y14375434D01*
X12829794Y14386966D01*
X12835940Y14399361D01*
X12840360Y14412518D01*
X12843103Y14426082D01*
X12843967Y14439900D01*
X12843103Y14453717D01*
X12840360Y14467332D01*
X12835940Y14480438D01*
X12829794Y14492833D01*
X12822123Y14504365D01*
X12812979Y14514779D01*
X12802565Y14523923D01*
X12791033Y14531594D01*
X12778638Y14537740D01*
X12765532Y14542160D01*
X12751917Y14544903D01*
X12738100Y14545767D01*
X12724282Y14544903D01*
X12710718Y14542160D01*
X12697561Y14537740D01*
X12685166Y14531594D01*
X12673634Y14523923D01*
X12663220Y14514779D01*
X12654076Y14504365D01*
X12646406Y14492833D01*
X12640259Y14480438D01*
X12635839Y14467332D01*
X12633147Y14453717D01*
X12632232Y14439900D01*
X12633147Y14426082D01*
X12635839Y14412518D01*
X12640259Y14399361D01*
X12646406Y14386966D01*
X12654076Y14375434D01*
X12663220Y14365020D01*
X12673634Y14355876D01*
X12685166Y14348206D01*
X12697561Y14342059D01*
X12710718Y14337639D01*
X12724282Y14334947D01*
G37*
G36*
X14262100Y14334032D02*
G01*
X14275917Y14334947D01*
X14289532Y14337639D01*
X14302638Y14342059D01*
X14315033Y14348206D01*
X14326565Y14355876D01*
X14336979Y14365020D01*
X14346123Y14375434D01*
X14353794Y14386966D01*
X14359940Y14399361D01*
X14364360Y14412518D01*
X14367103Y14426082D01*
X14367967Y14439900D01*
X14367103Y14453717D01*
X14364360Y14467332D01*
X14359940Y14480438D01*
X14353794Y14492833D01*
X14346123Y14504365D01*
X14336979Y14514779D01*
X14326565Y14523923D01*
X14315033Y14531594D01*
X14302638Y14537740D01*
X14289532Y14542160D01*
X14275917Y14544903D01*
X14262100Y14545767D01*
X14248282Y14544903D01*
X14234718Y14542160D01*
X14221561Y14537740D01*
X14209166Y14531594D01*
X14197634Y14523923D01*
X14187220Y14514779D01*
X14178076Y14504365D01*
X14170406Y14492833D01*
X14164259Y14480438D01*
X14159839Y14467332D01*
X14157147Y14453717D01*
X14156232Y14439900D01*
X14157147Y14426082D01*
X14159839Y14412518D01*
X14164259Y14399361D01*
X14170406Y14386966D01*
X14178076Y14375434D01*
X14187220Y14365020D01*
X14197634Y14355876D01*
X14209166Y14348206D01*
X14221561Y14342059D01*
X14234718Y14337639D01*
X14248282Y14334947D01*
G37*
G36*
X14770100Y14334032D02*
G01*
X14783917Y14334947D01*
X14797481Y14337639D01*
X14810638Y14342059D01*
X14823033Y14348206D01*
X14834565Y14355876D01*
X14844979Y14365020D01*
X14854123Y14375434D01*
X14861794Y14386966D01*
X14867940Y14399361D01*
X14872360Y14412518D01*
X14875103Y14426082D01*
X14875967Y14439900D01*
X14875103Y14453717D01*
X14872360Y14467332D01*
X14867940Y14480438D01*
X14861794Y14492833D01*
X14854123Y14504365D01*
X14844979Y14514779D01*
X14834565Y14523923D01*
X14823033Y14531594D01*
X14810638Y14537740D01*
X14797481Y14542160D01*
X14783917Y14544903D01*
X14770100Y14545767D01*
X14756282Y14544903D01*
X14742718Y14542160D01*
X14729561Y14537740D01*
X14717166Y14531594D01*
X14705634Y14523923D01*
X14695220Y14514779D01*
X14686076Y14504365D01*
X14678406Y14492833D01*
X14672259Y14480438D01*
X14667839Y14467332D01*
X14665096Y14453717D01*
X14664232Y14439900D01*
X14665096Y14426082D01*
X14667839Y14412518D01*
X14672259Y14399361D01*
X14678406Y14386966D01*
X14686076Y14375434D01*
X14695220Y14365020D01*
X14705634Y14355876D01*
X14717166Y14348206D01*
X14729561Y14342059D01*
X14742718Y14337639D01*
X14756282Y14334947D01*
G37*
G36*
X12484100Y14334032D02*
G01*
X12497917Y14334896D01*
X12511481Y14337639D01*
X12524638Y14342059D01*
X12537033Y14348206D01*
X12548565Y14355876D01*
X12558979Y14365020D01*
X12568123Y14375434D01*
X12575794Y14386966D01*
X12581940Y14399361D01*
X12586360Y14412518D01*
X12589103Y14426082D01*
X12589967Y14439900D01*
X12589103Y14453717D01*
X12586360Y14467281D01*
X12581940Y14480438D01*
X12575794Y14492833D01*
X12568123Y14504365D01*
X12558979Y14514779D01*
X12548565Y14523923D01*
X12537033Y14531594D01*
X12524638Y14537740D01*
X12511481Y14542160D01*
X12497917Y14544903D01*
X12484100Y14545767D01*
X12470282Y14544903D01*
X12456718Y14542160D01*
X12443561Y14537740D01*
X12431166Y14531594D01*
X12419634Y14523923D01*
X12409220Y14514779D01*
X12400076Y14504365D01*
X12392406Y14492833D01*
X12386259Y14480438D01*
X12381839Y14467281D01*
X12379096Y14453717D01*
X12378232Y14439900D01*
X12379096Y14426082D01*
X12381839Y14412518D01*
X12386259Y14399361D01*
X12392406Y14386966D01*
X12400076Y14375434D01*
X12409220Y14365020D01*
X12419634Y14355876D01*
X12431166Y14348206D01*
X12443561Y14342059D01*
X12456718Y14337639D01*
X12470282Y14334896D01*
G37*
G36*
X12153900Y14934692D02*
G01*
X12169292Y14935657D01*
X12184430Y14938400D01*
X12199112Y14942972D01*
X12213132Y14949322D01*
X12226340Y14957298D01*
X12238431Y14966797D01*
X12249302Y14977668D01*
X12258802Y14989759D01*
X12266777Y15002967D01*
X12273127Y15016988D01*
X12277699Y15031669D01*
X12280442Y15046807D01*
X12281408Y15062200D01*
X12280442Y15077592D01*
X12277699Y15092730D01*
X12273127Y15107412D01*
X12266777Y15121432D01*
X12258802Y15134640D01*
X12249302Y15146731D01*
X12238431Y15157602D01*
X12226340Y15167101D01*
X12213132Y15175077D01*
X12199112Y15181427D01*
X12184430Y15185999D01*
X12169292Y15188742D01*
X12153900Y15189707D01*
X12138507Y15188742D01*
X12123369Y15185999D01*
X12108688Y15181427D01*
X12094667Y15175077D01*
X12081459Y15167101D01*
X12069368Y15157602D01*
X12058497Y15146731D01*
X12048998Y15134640D01*
X12041022Y15121432D01*
X12034672Y15107412D01*
X12030100Y15092730D01*
X12027357Y15077592D01*
X12026392Y15062200D01*
X12027357Y15046807D01*
X12030100Y15031669D01*
X12034672Y15016988D01*
X12041022Y15002967D01*
X12048998Y14989759D01*
X12058497Y14977668D01*
X12069368Y14966797D01*
X12081459Y14957298D01*
X12094667Y14949322D01*
X12108688Y14942972D01*
X12123369Y14938400D01*
X12138507Y14935657D01*
G37*

%LPD*%
G36*
X14018768Y10706608D02*
G01*
X14014856Y10707370D01*
X14011605Y10709605D01*
X14009369Y10712856D01*
X14008607Y10716768D01*
X14008607Y11188090D01*
X14007795Y11194592D01*
X14005712Y11200130D01*
X14002156Y11205260D01*
X13999159Y11208308D01*
X13995552Y11210950D01*
X13990015Y11213439D01*
X13982547Y11214608D01*
X13498068Y11214608D01*
X13494156Y11215370D01*
X13490905Y11217605D01*
X13488669Y11220856D01*
X13487907Y11224768D01*
X13487907Y11696090D01*
X13487400Y11700357D01*
X13488009Y11705031D01*
X13485469Y11707418D01*
X13481456Y11713260D01*
X13478459Y11716308D01*
X13474852Y11718950D01*
X13469315Y11721439D01*
X13461847Y11722608D01*
X13015468Y11722608D01*
X13011556Y11723370D01*
X13008305Y11725605D01*
X13006069Y11728856D01*
X13005308Y11732768D01*
X13005308Y12204090D01*
X13004495Y12210592D01*
X13002412Y12216130D01*
X12998856Y12221260D01*
X12995859Y12224308D01*
X12992252Y12226950D01*
X12986715Y12229439D01*
X12979247Y12230608D01*
X12507468Y12230608D01*
X12503556Y12231370D01*
X12500305Y12233605D01*
X12498070Y12236856D01*
X12497308Y12240768D01*
X12497308Y12684709D01*
X12498070Y12688620D01*
X12500305Y12691922D01*
X12503556Y12694107D01*
X12507468Y12694869D01*
X12685318Y12694869D01*
X12689230Y12694107D01*
X12692532Y12691922D01*
X13079272Y12305131D01*
X13083032Y12301728D01*
X13086892Y12298730D01*
X13091007Y12296140D01*
X13095325Y12293854D01*
X13099846Y12291974D01*
X13104520Y12290552D01*
X13109244Y12289485D01*
X13114121Y12288824D01*
X13119201Y12288621D01*
X13871803Y12288621D01*
X13875054Y12288062D01*
X13878001Y12286538D01*
X13880236Y12284100D01*
X13883995Y12278512D01*
X13893342Y12267844D01*
X13904010Y12258497D01*
X13915796Y12250623D01*
X13928496Y12244374D01*
X13941907Y12239802D01*
X13955826Y12237059D01*
X13970000Y12236094D01*
X13984122Y12237059D01*
X13998041Y12239802D01*
X14011452Y12244374D01*
X14024203Y12250623D01*
X14035989Y12258497D01*
X14046606Y12267844D01*
X14055953Y12278512D01*
X14063827Y12290298D01*
X14070126Y12302998D01*
X14074698Y12316460D01*
X14077442Y12330328D01*
X14078356Y12344501D01*
X14077442Y12358624D01*
X14074698Y12372543D01*
X14070126Y12385954D01*
X14063827Y12398705D01*
X14055953Y12410490D01*
X14046606Y12421158D01*
X14035989Y12430506D01*
X14024203Y12438380D01*
X14011452Y12444628D01*
X13998041Y12449200D01*
X13984122Y12451943D01*
X13970000Y12452858D01*
X13955826Y12451943D01*
X13941907Y12449200D01*
X13928496Y12444628D01*
X13915796Y12438380D01*
X13904010Y12430506D01*
X13893342Y12421158D01*
X13883995Y12410490D01*
X13880287Y12404953D01*
X13878051Y12402515D01*
X13875105Y12400991D01*
X13871854Y12400432D01*
X13146328Y12400432D01*
X13142468Y12401194D01*
X13139166Y12403429D01*
X12752374Y12790170D01*
X12748514Y12793726D01*
X12745974Y12797383D01*
X12745212Y12801752D01*
X12746431Y12806019D01*
X12749326Y12809372D01*
X12753390Y12811201D01*
X12765430Y12813588D01*
X12778587Y12818008D01*
X12790982Y12824155D01*
X12802514Y12831826D01*
X12812928Y12840970D01*
X12822072Y12851384D01*
X12829743Y12862915D01*
X12835890Y12875310D01*
X12840309Y12888468D01*
X12843002Y12902031D01*
X12843916Y12915849D01*
X12843002Y12929666D01*
X12840309Y12943281D01*
X12835890Y12956387D01*
X12829743Y12968782D01*
X12822072Y12980314D01*
X12812928Y12990728D01*
X12802514Y12999872D01*
X12790982Y13007543D01*
X12778587Y13013690D01*
X12765430Y13018109D01*
X12751866Y13020852D01*
X12738049Y13021716D01*
X12724231Y13020852D01*
X12710617Y13018109D01*
X12697510Y13013690D01*
X12685115Y13007543D01*
X12673584Y12999872D01*
X12663170Y12990728D01*
X12654026Y12980314D01*
X12646355Y12968782D01*
X12640208Y12956387D01*
X12635788Y12943281D01*
X12633045Y12929666D01*
X12632182Y12915849D01*
X12633045Y12902031D01*
X12635788Y12888468D01*
X12640208Y12875310D01*
X12646355Y12862915D01*
X12654026Y12851384D01*
X12663170Y12840970D01*
X12673584Y12831826D01*
X12683388Y12825323D01*
X12686334Y12822224D01*
X12687808Y12818211D01*
X12687452Y12813893D01*
X12685369Y12810185D01*
X12681915Y12807594D01*
X12677698Y12806730D01*
X12544348Y12806730D01*
X12540183Y12807594D01*
X12536728Y12810185D01*
X12534646Y12813893D01*
X12534290Y12818211D01*
X12535712Y12822224D01*
X12538710Y12825323D01*
X12548565Y12831876D01*
X12558979Y12841020D01*
X12568123Y12851434D01*
X12575794Y12862966D01*
X12581940Y12875361D01*
X12586360Y12888518D01*
X12589052Y12902082D01*
X12589967Y12915900D01*
X12589052Y12929717D01*
X12586360Y12943332D01*
X12581940Y12956438D01*
X12575794Y12968833D01*
X12568123Y12980365D01*
X12558979Y12990779D01*
X12548565Y12999923D01*
X12537033Y13007594D01*
X12524638Y13013740D01*
X12511481Y13018160D01*
X12497917Y13020903D01*
X12484100Y13021767D01*
X12470282Y13020903D01*
X12456668Y13018160D01*
X12443561Y13013740D01*
X12431166Y13007594D01*
X12419634Y12999923D01*
X12409220Y12990779D01*
X12400076Y12980365D01*
X12392406Y12968833D01*
X12386259Y12956438D01*
X12381839Y12943332D01*
X12379096Y12929717D01*
X12378232Y12915900D01*
X12379096Y12902082D01*
X12381839Y12888518D01*
X12386259Y12875361D01*
X12392406Y12862966D01*
X12400076Y12851434D01*
X12409220Y12841020D01*
X12419634Y12831876D01*
X12429490Y12825323D01*
X12432487Y12822224D01*
X12433909Y12818211D01*
X12433554Y12813893D01*
X12431471Y12810185D01*
X12428016Y12807594D01*
X12423851Y12806730D01*
X12321590Y12806730D01*
X12317679Y12807492D01*
X12314377Y12809677D01*
X12312192Y12812979D01*
X12311430Y12816890D01*
X12311430Y13040918D01*
X12312192Y13044830D01*
X12314377Y13048132D01*
X12351867Y13085622D01*
X12355169Y13087807D01*
X12359081Y13088569D01*
X13982496Y13088569D01*
X13987576Y13088823D01*
X13992402Y13089432D01*
X13997178Y13090499D01*
X14001800Y13091972D01*
X14006322Y13093852D01*
X14010640Y13096087D01*
X14014754Y13098729D01*
X14018615Y13101675D01*
X14022374Y13105130D01*
X15250363Y14333067D01*
X15253055Y14334998D01*
X15256205Y14335963D01*
X15259507Y14335861D01*
X15264282Y14334947D01*
X15278100Y14334032D01*
X15291917Y14334947D01*
X15305481Y14337639D01*
X15318638Y14342059D01*
X15331033Y14348206D01*
X15342565Y14355876D01*
X15352979Y14365020D01*
X15362123Y14375434D01*
X15369794Y14386966D01*
X15375940Y14399361D01*
X15380360Y14412518D01*
X15383103Y14426082D01*
X15383967Y14439900D01*
X15383103Y14453717D01*
X15380360Y14467332D01*
X15375940Y14480438D01*
X15369794Y14492833D01*
X15362123Y14504365D01*
X15352979Y14514779D01*
X15342565Y14523923D01*
X15331033Y14531594D01*
X15318638Y14537740D01*
X15305481Y14542160D01*
X15291917Y14544903D01*
X15278100Y14545767D01*
X15264282Y14544903D01*
X15259507Y14543938D01*
X15256205Y14543836D01*
X15253055Y14544801D01*
X15250363Y14546732D01*
X15127274Y14669769D01*
X15123515Y14673224D01*
X15119654Y14676170D01*
X15115540Y14678812D01*
X15111222Y14681047D01*
X15106700Y14682927D01*
X15102078Y14684400D01*
X15097302Y14685467D01*
X15092476Y14686076D01*
X15087396Y14686330D01*
X14482419Y14686330D01*
X14478152Y14687245D01*
X14474698Y14689886D01*
X14472615Y14693696D01*
X14472361Y14698014D01*
X14473936Y14702078D01*
X14477085Y14705126D01*
X14481200Y14706549D01*
X14483892Y14706904D01*
X14489430Y14708987D01*
X14494560Y14712543D01*
X14497608Y14715540D01*
X14500250Y14719147D01*
X14502739Y14724684D01*
X14503907Y14732152D01*
X14503907Y15216632D01*
X14504669Y15220543D01*
X14506905Y15223794D01*
X14510156Y15226030D01*
X14514068Y15226792D01*
X14972690Y15226792D01*
X14979192Y15227604D01*
X14984730Y15229687D01*
X14989860Y15233243D01*
X14992908Y15236240D01*
X14995550Y15239847D01*
X14998039Y15245384D01*
X14999207Y15252852D01*
X14999207Y15711932D01*
X14999969Y15715843D01*
X15002205Y15719094D01*
X15005456Y15721330D01*
X15009368Y15722092D01*
X15953232Y15722092D01*
X15957143Y15721330D01*
X15960394Y15719094D01*
X15962630Y15715843D01*
X15963392Y15711932D01*
X15963392Y15253309D01*
X15964204Y15246807D01*
X15966287Y15241269D01*
X15969843Y15236139D01*
X15972840Y15233091D01*
X15976447Y15230449D01*
X15981984Y15227960D01*
X15989452Y15226792D01*
X16461232Y15226792D01*
X16465143Y15226030D01*
X16468394Y15223794D01*
X16470630Y15220543D01*
X16471392Y15216632D01*
X16471392Y14745309D01*
X16472204Y14738807D01*
X16474287Y14733269D01*
X16477843Y14728139D01*
X16480840Y14725091D01*
X16484447Y14722449D01*
X16489984Y14719960D01*
X16497452Y14718792D01*
X16981932Y14718792D01*
X16985843Y14718030D01*
X16989094Y14715794D01*
X16991330Y14712543D01*
X16992092Y14708632D01*
X16992092Y13256768D01*
X16991330Y13252856D01*
X16989094Y13249605D01*
X16985843Y13247369D01*
X16981932Y13246607D01*
X16497909Y13246607D01*
X16491407Y13245795D01*
X16485869Y13243712D01*
X16480739Y13240156D01*
X16477691Y13237159D01*
X16475049Y13233552D01*
X16472560Y13228015D01*
X16471392Y13220547D01*
X16471392Y12736068D01*
X16470630Y12732156D01*
X16468394Y12728905D01*
X16465143Y12726670D01*
X16461232Y12725908D01*
X16002609Y12725908D01*
X15996107Y12725095D01*
X15990569Y12723012D01*
X15985439Y12719456D01*
X15982391Y12716459D01*
X15979749Y12712852D01*
X15977260Y12707315D01*
X15976092Y12699847D01*
X15976092Y12253468D01*
X15975330Y12249556D01*
X15973094Y12246305D01*
X15969843Y12244070D01*
X15965932Y12243308D01*
X15494609Y12243308D01*
X15488107Y12242495D01*
X15482569Y12240412D01*
X15477439Y12236856D01*
X15474391Y12233859D01*
X15471749Y12230252D01*
X15469260Y12224715D01*
X15468092Y12217247D01*
X15468092Y11720068D01*
X15467330Y11716156D01*
X15465094Y11712905D01*
X15461843Y11710670D01*
X15457932Y11709908D01*
X14986609Y11709908D01*
X14980107Y11709095D01*
X14974569Y11707012D01*
X14969439Y11703456D01*
X14966391Y11700459D01*
X14963749Y11696852D01*
X14961260Y11691315D01*
X14960092Y11683847D01*
X14960092Y11237468D01*
X14959330Y11233556D01*
X14957094Y11230305D01*
X14953843Y11228070D01*
X14949932Y11227308D01*
X14478609Y11227308D01*
X14472107Y11226495D01*
X14466569Y11224412D01*
X14461439Y11220856D01*
X14458391Y11217859D01*
X14455749Y11214252D01*
X14453260Y11208715D01*
X14452092Y11201247D01*
X14452092Y10716768D01*
X14451330Y10712856D01*
X14449094Y10709605D01*
X14445843Y10707370D01*
X14441932Y10706608D01*
G37*

%LPC*%
G36*
X14576704Y11331244D02*
G01*
X14587778Y11332108D01*
X14598599Y11334699D01*
X14608860Y11338966D01*
X14618360Y11344757D01*
X14626844Y11351971D01*
X14634057Y11360454D01*
X14639848Y11369954D01*
X14644116Y11380216D01*
X14646706Y11391036D01*
X14647570Y11402110D01*
X14646706Y11413185D01*
X14644116Y11424005D01*
X14639848Y11434267D01*
X14634057Y11443766D01*
X14626844Y11452250D01*
X14618360Y11459464D01*
X14608860Y11465255D01*
X14598599Y11469522D01*
X14587778Y11472113D01*
X14576704Y11472976D01*
X14565630Y11472113D01*
X14554809Y11469522D01*
X14544548Y11465255D01*
X14535048Y11459464D01*
X14526564Y11452250D01*
X14519351Y11443766D01*
X14513560Y11434267D01*
X14509292Y11424005D01*
X14506701Y11413185D01*
X14505838Y11402110D01*
X14506701Y11391036D01*
X14509292Y11380216D01*
X14513560Y11369954D01*
X14519351Y11360454D01*
X14526564Y11351971D01*
X14535048Y11344757D01*
X14544548Y11338966D01*
X14554809Y11334699D01*
X14565630Y11332108D01*
G37*
G36*
X13896695Y11331244D02*
G01*
X13907769Y11332108D01*
X13918590Y11334699D01*
X13928851Y11338966D01*
X13938351Y11344757D01*
X13946835Y11351971D01*
X13954048Y11360454D01*
X13959840Y11369954D01*
X13964107Y11380216D01*
X13966698Y11391036D01*
X13967561Y11402110D01*
X13966698Y11413185D01*
X13964107Y11424005D01*
X13959840Y11434267D01*
X13954048Y11443766D01*
X13946835Y11452250D01*
X13938351Y11459464D01*
X13928851Y11465255D01*
X13918590Y11469522D01*
X13907769Y11472113D01*
X13896695Y11472976D01*
X13885621Y11472113D01*
X13874800Y11469522D01*
X13864539Y11465255D01*
X13855039Y11459464D01*
X13846556Y11452250D01*
X13839342Y11443766D01*
X13833551Y11434267D01*
X13829284Y11424005D01*
X13826693Y11413185D01*
X13825829Y11402110D01*
X13826693Y11391036D01*
X13829284Y11380216D01*
X13833551Y11369954D01*
X13839342Y11360454D01*
X13846556Y11351971D01*
X13855039Y11344757D01*
X13864539Y11338966D01*
X13874800Y11334699D01*
X13885621Y11332108D01*
G37*
G36*
X13627100Y11619992D02*
G01*
X13642492Y11620957D01*
X13657630Y11623700D01*
X13672312Y11628272D01*
X13686332Y11634622D01*
X13699540Y11642598D01*
X13711631Y11652097D01*
X13722502Y11662968D01*
X13732001Y11675059D01*
X13739977Y11688267D01*
X13746327Y11702288D01*
X13750899Y11716969D01*
X13753642Y11732107D01*
X13754607Y11747500D01*
X13753642Y11762892D01*
X13750899Y11778030D01*
X13746327Y11792712D01*
X13739977Y11806732D01*
X13732001Y11819940D01*
X13722502Y11832031D01*
X13711631Y11842902D01*
X13699540Y11852402D01*
X13686332Y11860377D01*
X13672312Y11866727D01*
X13657630Y11871299D01*
X13642492Y11874042D01*
X13627100Y11875008D01*
X13611707Y11874042D01*
X13596569Y11871299D01*
X13581888Y11866727D01*
X13567867Y11860377D01*
X13554659Y11852402D01*
X13542568Y11842902D01*
X13531697Y11832031D01*
X13522198Y11819940D01*
X13514222Y11806732D01*
X13507872Y11792712D01*
X13503300Y11778030D01*
X13500557Y11762892D01*
X13499592Y11747500D01*
X13500557Y11732107D01*
X13503300Y11716969D01*
X13503960Y11712143D01*
X13503198Y11709704D01*
X13505078Y11708333D01*
X13507161Y11704624D01*
X13507872Y11702288D01*
X13514222Y11688267D01*
X13522198Y11675059D01*
X13531697Y11662968D01*
X13542568Y11652097D01*
X13554659Y11642598D01*
X13567867Y11634622D01*
X13581888Y11628272D01*
X13596569Y11623700D01*
X13611707Y11620957D01*
G37*
G36*
X14820900Y11632692D02*
G01*
X14836292Y11633657D01*
X14851430Y11636400D01*
X14866112Y11640972D01*
X14880132Y11647322D01*
X14893340Y11655298D01*
X14905431Y11664797D01*
X14916302Y11675668D01*
X14925801Y11687759D01*
X14933777Y11700967D01*
X14940127Y11714988D01*
X14944699Y11729669D01*
X14947442Y11744807D01*
X14948407Y11760200D01*
X14947442Y11775592D01*
X14944699Y11790730D01*
X14940127Y11805412D01*
X14933777Y11819432D01*
X14925801Y11832640D01*
X14916302Y11844731D01*
X14905431Y11855602D01*
X14893340Y11865102D01*
X14880132Y11873077D01*
X14866112Y11879427D01*
X14851430Y11883999D01*
X14836292Y11886742D01*
X14820900Y11887708D01*
X14805507Y11886742D01*
X14790369Y11883999D01*
X14775688Y11879427D01*
X14761667Y11873077D01*
X14748459Y11865102D01*
X14736368Y11855602D01*
X14725497Y11844731D01*
X14715998Y11832640D01*
X14708022Y11819432D01*
X14701672Y11805412D01*
X14697100Y11790730D01*
X14694357Y11775592D01*
X14693392Y11760200D01*
X14694357Y11744807D01*
X14697100Y11729669D01*
X14701672Y11714988D01*
X14708022Y11700967D01*
X14715998Y11687759D01*
X14725497Y11675668D01*
X14736368Y11664797D01*
X14748459Y11655298D01*
X14761667Y11647322D01*
X14775688Y11640972D01*
X14790369Y11636400D01*
X14805507Y11633657D01*
G37*
G36*
X14489125Y11665254D02*
G01*
X14498675Y11666524D01*
X14507870Y11669318D01*
X14516506Y11673687D01*
X14524278Y11679428D01*
X14530933Y11686387D01*
X14536318Y11694363D01*
X14540331Y11703151D01*
X14542719Y11712498D01*
X14543582Y11722100D01*
X14542566Y11733580D01*
X14542566Y12081357D01*
X14542363Y12086488D01*
X14541754Y12091314D01*
X14540687Y12096038D01*
X14539213Y12100712D01*
X14537334Y12105233D01*
X14535099Y12109551D01*
X14532457Y12113666D01*
X14529511Y12117527D01*
X14526056Y12121286D01*
X14414347Y12232944D01*
X14412112Y12236348D01*
X14411401Y12240361D01*
X14412264Y12244324D01*
X14414652Y12247575D01*
X14418106Y12249708D01*
X14422119Y12250318D01*
X14426031Y12249251D01*
X14436496Y12244120D01*
X14449907Y12239548D01*
X14463826Y12236805D01*
X14478000Y12235840D01*
X14492122Y12236805D01*
X14506041Y12239548D01*
X14519452Y12244120D01*
X14532203Y12250369D01*
X14543989Y12258243D01*
X14554606Y12267590D01*
X14563953Y12278258D01*
X14571827Y12290044D01*
X14578126Y12302744D01*
X14582698Y12316206D01*
X14585442Y12330074D01*
X14586356Y12344247D01*
X14585442Y12358370D01*
X14582698Y12372289D01*
X14578126Y12385700D01*
X14571827Y12398451D01*
X14563953Y12410236D01*
X14554606Y12420904D01*
X14543989Y12430252D01*
X14532203Y12438126D01*
X14519452Y12444374D01*
X14506041Y12448946D01*
X14492122Y12451689D01*
X14478000Y12452604D01*
X14463826Y12451689D01*
X14449907Y12448946D01*
X14436496Y12444374D01*
X14423796Y12438126D01*
X14412010Y12430252D01*
X14401342Y12420904D01*
X14391995Y12410236D01*
X14384121Y12398451D01*
X14377873Y12385700D01*
X14373301Y12372289D01*
X14370507Y12358370D01*
X14369592Y12344247D01*
X14370507Y12330074D01*
X14373301Y12316206D01*
X14377873Y12302744D01*
X14383004Y12292330D01*
X14384019Y12288367D01*
X14383461Y12284354D01*
X14381327Y12280900D01*
X14378025Y12278563D01*
X14374063Y12277648D01*
X14370100Y12278410D01*
X14366697Y12280646D01*
X14332915Y12314428D01*
X14330984Y12317120D01*
X14330019Y12320270D01*
X14330172Y12323572D01*
X14331442Y12330074D01*
X14332356Y12344247D01*
X14331442Y12358370D01*
X14328698Y12372289D01*
X14324126Y12385700D01*
X14317827Y12398451D01*
X14312747Y12406020D01*
X14311376Y12409220D01*
X14311122Y12412675D01*
X14312036Y12416028D01*
X14314017Y12418872D01*
X14536267Y12641122D01*
X14539569Y12643307D01*
X14543481Y12644069D01*
X15277642Y12644069D01*
X15287802Y12644983D01*
X15297200Y12647523D01*
X15306040Y12651638D01*
X15314015Y12657226D01*
X15320873Y12664084D01*
X15326461Y12672060D01*
X15330576Y12680899D01*
X15333116Y12690297D01*
X15334030Y12700457D01*
X15334030Y12820751D01*
X15334538Y12824002D01*
X15336113Y12826949D01*
X15338501Y12829184D01*
X15342514Y12831826D01*
X15352928Y12840970D01*
X15362072Y12851384D01*
X15369743Y12862915D01*
X15375890Y12875310D01*
X15380309Y12888468D01*
X15383001Y12902031D01*
X15383916Y12915849D01*
X15383001Y12929666D01*
X15380309Y12943281D01*
X15375890Y12956387D01*
X15369743Y12968782D01*
X15362072Y12980314D01*
X15352928Y12990728D01*
X15342514Y12999872D01*
X15330982Y13007543D01*
X15318587Y13013690D01*
X15305430Y13018109D01*
X15291866Y13020852D01*
X15278049Y13021716D01*
X15264231Y13020852D01*
X15250617Y13018109D01*
X15237510Y13013690D01*
X15225115Y13007543D01*
X15213584Y12999872D01*
X15203169Y12990728D01*
X15194026Y12980314D01*
X15186355Y12968782D01*
X15180208Y12956387D01*
X15175788Y12943281D01*
X15173045Y12929666D01*
X15172182Y12915849D01*
X15173045Y12902031D01*
X15175788Y12888468D01*
X15180208Y12875310D01*
X15186355Y12862915D01*
X15194026Y12851384D01*
X15203169Y12840970D01*
X15213584Y12831826D01*
X15217698Y12829133D01*
X15220086Y12826847D01*
X15221661Y12823952D01*
X15222169Y12820650D01*
X15222169Y12766090D01*
X15221407Y12762179D01*
X15219222Y12758877D01*
X15215920Y12756692D01*
X15212009Y12755930D01*
X14516303Y12755930D01*
X14511223Y12755676D01*
X14506397Y12755067D01*
X14501622Y12754000D01*
X14496999Y12752527D01*
X14492478Y12750647D01*
X14488160Y12748412D01*
X14484045Y12745770D01*
X14480184Y12742824D01*
X14476425Y12739370D01*
X14184731Y12447676D01*
X14182750Y12445390D01*
X14179550Y12442901D01*
X14169796Y12438126D01*
X14158010Y12430252D01*
X14147342Y12420904D01*
X14137995Y12410236D01*
X14130121Y12398451D01*
X14123873Y12385700D01*
X14119301Y12372289D01*
X14116507Y12358370D01*
X14115592Y12344247D01*
X14116507Y12330074D01*
X14119301Y12316206D01*
X14123873Y12302744D01*
X14130121Y12290044D01*
X14137995Y12278258D01*
X14147342Y12267590D01*
X14158010Y12258243D01*
X14169796Y12250369D01*
X14182496Y12244120D01*
X14195907Y12239548D01*
X14209826Y12236805D01*
X14224000Y12235840D01*
X14238122Y12236805D01*
X14244726Y12238075D01*
X14248028Y12238228D01*
X14251178Y12237262D01*
X14253870Y12235332D01*
X14427809Y12061393D01*
X14429994Y12058091D01*
X14430756Y12054230D01*
X14430756Y11732209D01*
X14430044Y11726926D01*
X14430044Y11717274D01*
X14431670Y11707774D01*
X14434870Y11698681D01*
X14439544Y11690248D01*
X14445640Y11682730D01*
X14452854Y11676380D01*
X14461083Y11671300D01*
X14470024Y11667744D01*
X14479473Y11665712D01*
G37*
G36*
X15032482Y11753189D02*
G01*
X15171318Y11753189D01*
X15177668Y11753900D01*
X15183104Y11755831D01*
X15188031Y11758879D01*
X15192095Y11762994D01*
X15195194Y11767870D01*
X15197074Y11773357D01*
X15197785Y11779656D01*
X15197785Y11800382D01*
X15198801Y11804751D01*
X15201544Y11808256D01*
X15205557Y11810238D01*
X15210028Y11810339D01*
X15214092Y11808460D01*
X15216987Y11805056D01*
X15219984Y11799265D01*
X15227503Y11788597D01*
X15236444Y11779046D01*
X15246604Y11770766D01*
X15257780Y11763959D01*
X15269768Y11758726D01*
X15282367Y11755221D01*
X15295372Y11753443D01*
X15308427Y11753443D01*
X15321432Y11755221D01*
X15334030Y11758726D01*
X15346019Y11763959D01*
X15357195Y11770766D01*
X15367355Y11779046D01*
X15376296Y11788597D01*
X15383814Y11799265D01*
X15389860Y11810898D01*
X15394228Y11823242D01*
X15396870Y11836044D01*
X15397784Y11849100D01*
X15396870Y11862155D01*
X15394228Y11874957D01*
X15389860Y11887301D01*
X15383814Y11898934D01*
X15376296Y11909602D01*
X15367355Y11919153D01*
X15357195Y11927433D01*
X15346019Y11934240D01*
X15334030Y11939422D01*
X15321432Y11942978D01*
X15308427Y11944756D01*
X15295372Y11944756D01*
X15282367Y11942978D01*
X15269768Y11939422D01*
X15257780Y11934240D01*
X15246604Y11927433D01*
X15236444Y11919153D01*
X15227503Y11909602D01*
X15219984Y11898934D01*
X15216987Y11893143D01*
X15214092Y11889740D01*
X15210028Y11887860D01*
X15205557Y11887962D01*
X15201544Y11889943D01*
X15198801Y11893448D01*
X15197785Y11897817D01*
X15197785Y11918543D01*
X15197074Y11924842D01*
X15195194Y11930329D01*
X15192095Y11935206D01*
X15188031Y11939320D01*
X15183104Y11942368D01*
X15177668Y11944299D01*
X15171318Y11945010D01*
X15032482Y11945010D01*
X15026132Y11944299D01*
X15020696Y11942368D01*
X15015768Y11939320D01*
X15011704Y11935206D01*
X15008606Y11930329D01*
X15006726Y11924842D01*
X15006015Y11918543D01*
X15006015Y11779656D01*
X15006726Y11773357D01*
X15008606Y11767870D01*
X15011704Y11762994D01*
X15015768Y11758879D01*
X15020696Y11755831D01*
X15026132Y11753900D01*
G37*
G36*
X14732000Y12235840D02*
G01*
X14746122Y12236805D01*
X14760041Y12239548D01*
X14773452Y12244120D01*
X14786203Y12250369D01*
X14797989Y12258243D01*
X14808606Y12267590D01*
X14817953Y12278258D01*
X14825827Y12290044D01*
X14832126Y12302744D01*
X14836698Y12316206D01*
X14839442Y12330074D01*
X14840356Y12344247D01*
X14839442Y12358370D01*
X14836698Y12372289D01*
X14832126Y12385700D01*
X14825827Y12398451D01*
X14817953Y12410236D01*
X14808606Y12420904D01*
X14797989Y12430252D01*
X14786203Y12438126D01*
X14773452Y12444374D01*
X14760041Y12448946D01*
X14746122Y12451689D01*
X14732000Y12452604D01*
X14717826Y12451689D01*
X14703907Y12448946D01*
X14690496Y12444374D01*
X14677796Y12438126D01*
X14666010Y12430252D01*
X14655342Y12420904D01*
X14645995Y12410236D01*
X14638121Y12398451D01*
X14631873Y12385700D01*
X14627301Y12372289D01*
X14624507Y12358370D01*
X14623592Y12344247D01*
X14624507Y12330074D01*
X14627301Y12316206D01*
X14631873Y12302744D01*
X14638121Y12290044D01*
X14645995Y12278258D01*
X14655342Y12267590D01*
X14666010Y12258243D01*
X14677796Y12250369D01*
X14690496Y12244120D01*
X14703907Y12239548D01*
X14717826Y12236805D01*
G37*
G36*
X14262049Y12809982D02*
G01*
X14275866Y12810896D01*
X14289430Y12813588D01*
X14302587Y12818008D01*
X14314982Y12824155D01*
X14326514Y12831826D01*
X14336928Y12840970D01*
X14346072Y12851384D01*
X14353743Y12862915D01*
X14359890Y12875310D01*
X14364309Y12888468D01*
X14367001Y12902031D01*
X14367916Y12915849D01*
X14367001Y12929666D01*
X14364309Y12943281D01*
X14359890Y12956387D01*
X14353743Y12968782D01*
X14346072Y12980314D01*
X14336928Y12990728D01*
X14326514Y12999872D01*
X14314982Y13007543D01*
X14302587Y13013690D01*
X14289430Y13018109D01*
X14275866Y13020852D01*
X14262049Y13021716D01*
X14248231Y13020852D01*
X14234617Y13018109D01*
X14221510Y13013690D01*
X14209115Y13007543D01*
X14197584Y12999872D01*
X14187169Y12990728D01*
X14178026Y12980314D01*
X14170355Y12968782D01*
X14164208Y12956387D01*
X14159788Y12943281D01*
X14157045Y12929666D01*
X14156182Y12915849D01*
X14157045Y12902031D01*
X14159788Y12888468D01*
X14164208Y12875310D01*
X14170355Y12862915D01*
X14178026Y12851384D01*
X14187169Y12840970D01*
X14197584Y12831826D01*
X14209115Y12824155D01*
X14221510Y12818008D01*
X14234617Y12813588D01*
X14248231Y12810896D01*
G37*
G36*
X13754049Y12809982D02*
G01*
X13767866Y12810896D01*
X13781430Y12813588D01*
X13794587Y12818008D01*
X13806982Y12824155D01*
X13818514Y12831826D01*
X13828928Y12840970D01*
X13838072Y12851384D01*
X13845743Y12862915D01*
X13851890Y12875310D01*
X13856309Y12888468D01*
X13859001Y12902031D01*
X13859916Y12915849D01*
X13859001Y12929666D01*
X13856309Y12943281D01*
X13851890Y12956387D01*
X13845743Y12968782D01*
X13838072Y12980314D01*
X13828928Y12990728D01*
X13818514Y12999872D01*
X13806982Y13007543D01*
X13794587Y13013690D01*
X13781430Y13018109D01*
X13767866Y13020852D01*
X13754049Y13021716D01*
X13740231Y13020852D01*
X13726617Y13018109D01*
X13713510Y13013690D01*
X13701115Y13007543D01*
X13689584Y12999872D01*
X13679169Y12990728D01*
X13670026Y12980314D01*
X13662355Y12968782D01*
X13656208Y12956387D01*
X13651788Y12943281D01*
X13649045Y12929666D01*
X13648182Y12915849D01*
X13649045Y12902031D01*
X13651788Y12888468D01*
X13656208Y12875310D01*
X13662355Y12862915D01*
X13670026Y12851384D01*
X13679169Y12840970D01*
X13689584Y12831826D01*
X13701115Y12824155D01*
X13713510Y12818008D01*
X13726617Y12813588D01*
X13740231Y12810896D01*
G37*
G36*
X14770049Y12809982D02*
G01*
X14783866Y12810896D01*
X14797430Y12813588D01*
X14810587Y12818008D01*
X14822982Y12824155D01*
X14834514Y12831826D01*
X14844928Y12840970D01*
X14854072Y12851384D01*
X14861743Y12862915D01*
X14867890Y12875310D01*
X14872309Y12888468D01*
X14875001Y12902031D01*
X14875916Y12915849D01*
X14875001Y12929666D01*
X14872309Y12943281D01*
X14867890Y12956387D01*
X14861743Y12968782D01*
X14854072Y12980314D01*
X14844928Y12990728D01*
X14834514Y12999872D01*
X14822982Y13007543D01*
X14810587Y13013690D01*
X14797430Y13018109D01*
X14783866Y13020852D01*
X14770049Y13021716D01*
X14756231Y13020852D01*
X14742617Y13018109D01*
X14729510Y13013690D01*
X14717115Y13007543D01*
X14705584Y12999872D01*
X14695169Y12990728D01*
X14686026Y12980314D01*
X14678355Y12968782D01*
X14672208Y12956387D01*
X14667788Y12943281D01*
X14665045Y12929666D01*
X14664182Y12915849D01*
X14665045Y12902031D01*
X14667788Y12888468D01*
X14672208Y12875310D01*
X14678355Y12862915D01*
X14686026Y12851384D01*
X14695169Y12840970D01*
X14705584Y12831826D01*
X14717115Y12824155D01*
X14729510Y12818008D01*
X14742617Y12813588D01*
X14756231Y12810896D01*
G37*
G36*
X13246049Y12809982D02*
G01*
X13259866Y12810896D01*
X13273430Y12813588D01*
X13286587Y12818008D01*
X13298982Y12824155D01*
X13310514Y12831826D01*
X13320928Y12840970D01*
X13330072Y12851384D01*
X13337743Y12862915D01*
X13343890Y12875310D01*
X13348309Y12888468D01*
X13351001Y12902031D01*
X13351916Y12915849D01*
X13351001Y12929666D01*
X13348309Y12943281D01*
X13343890Y12956387D01*
X13337743Y12968782D01*
X13330072Y12980314D01*
X13320928Y12990728D01*
X13310514Y12999872D01*
X13298982Y13007543D01*
X13286587Y13013690D01*
X13273430Y13018109D01*
X13259866Y13020852D01*
X13246049Y13021716D01*
X13232231Y13020852D01*
X13218617Y13018109D01*
X13205510Y13013690D01*
X13193115Y13007543D01*
X13181584Y12999872D01*
X13171169Y12990728D01*
X13162026Y12980314D01*
X13154355Y12968782D01*
X13148208Y12956387D01*
X13143788Y12943281D01*
X13141045Y12929666D01*
X13140182Y12915849D01*
X13141045Y12902031D01*
X13143788Y12888468D01*
X13148208Y12875310D01*
X13154355Y12862915D01*
X13162026Y12851384D01*
X13171169Y12840970D01*
X13181584Y12831826D01*
X13193115Y12824155D01*
X13205510Y12818008D01*
X13218617Y12813588D01*
X13232231Y12810896D01*
G37*
G36*
X15960648Y12809982D02*
G01*
X16119551Y12809982D01*
X16125850Y12810693D01*
X16131336Y12812623D01*
X16136213Y12815671D01*
X16140328Y12819786D01*
X16143376Y12824663D01*
X16145306Y12830149D01*
X16146018Y12836448D01*
X16146018Y12995351D01*
X16145306Y13001650D01*
X16143376Y13007136D01*
X16140328Y13012013D01*
X16136213Y13016128D01*
X16131336Y13019176D01*
X16125850Y13021106D01*
X16119551Y13021818D01*
X15960648Y13021818D01*
X15954349Y13021106D01*
X15948863Y13019176D01*
X15943986Y13016128D01*
X15939871Y13012013D01*
X15936823Y13007136D01*
X15934893Y13001650D01*
X15934182Y12995351D01*
X15934182Y12836448D01*
X15934893Y12830149D01*
X15936823Y12824663D01*
X15939871Y12819786D01*
X15943986Y12815671D01*
X15948863Y12812623D01*
X15954349Y12810693D01*
G37*
G36*
X15786100Y12810032D02*
G01*
X15799917Y12810896D01*
X15813481Y12813639D01*
X15826638Y12818059D01*
X15839033Y12824206D01*
X15850565Y12831876D01*
X15860979Y12841020D01*
X15870123Y12851434D01*
X15877794Y12862966D01*
X15883940Y12875361D01*
X15888360Y12888518D01*
X15891103Y12902082D01*
X15891967Y12915900D01*
X15891103Y12929717D01*
X15888360Y12943281D01*
X15883940Y12956438D01*
X15877794Y12968833D01*
X15870123Y12980365D01*
X15860979Y12990779D01*
X15850565Y12999923D01*
X15839033Y13007594D01*
X15826638Y13013740D01*
X15813481Y13018160D01*
X15799917Y13020903D01*
X15786100Y13021767D01*
X15772282Y13020903D01*
X15758718Y13018160D01*
X15745561Y13013740D01*
X15733166Y13007594D01*
X15721634Y12999923D01*
X15711220Y12990779D01*
X15702076Y12980365D01*
X15694406Y12968833D01*
X15688259Y12956438D01*
X15683839Y12943281D01*
X15681096Y12929717D01*
X15680232Y12915900D01*
X15681096Y12902082D01*
X15683839Y12888518D01*
X15688259Y12875361D01*
X15694406Y12862966D01*
X15702076Y12851434D01*
X15711220Y12841020D01*
X15721634Y12831876D01*
X15733166Y12824206D01*
X15745561Y12818059D01*
X15758718Y12813639D01*
X15772282Y12810896D01*
G37*
G36*
X13500100Y12810032D02*
G01*
X13513917Y12810947D01*
X13527481Y12813639D01*
X13540638Y12818059D01*
X13553033Y12824206D01*
X13564565Y12831876D01*
X13574979Y12841020D01*
X13584123Y12851434D01*
X13591794Y12862966D01*
X13597940Y12875361D01*
X13602360Y12888518D01*
X13605052Y12902082D01*
X13605967Y12915900D01*
X13605052Y12929717D01*
X13602360Y12943332D01*
X13597940Y12956438D01*
X13591794Y12968833D01*
X13584123Y12980365D01*
X13574979Y12990779D01*
X13564565Y12999923D01*
X13553033Y13007594D01*
X13540638Y13013740D01*
X13527481Y13018160D01*
X13513917Y13020903D01*
X13500100Y13021767D01*
X13486282Y13020903D01*
X13472668Y13018160D01*
X13459561Y13013740D01*
X13447166Y13007594D01*
X13435634Y12999923D01*
X13425220Y12990779D01*
X13416076Y12980365D01*
X13408406Y12968833D01*
X13402259Y12956438D01*
X13397839Y12943332D01*
X13395096Y12929717D01*
X13394232Y12915900D01*
X13395096Y12902082D01*
X13397839Y12888518D01*
X13402259Y12875361D01*
X13408406Y12862966D01*
X13416076Y12851434D01*
X13425220Y12841020D01*
X13435634Y12831876D01*
X13447166Y12824206D01*
X13459561Y12818059D01*
X13472668Y12813639D01*
X13486282Y12810947D01*
G37*
G36*
X15532100Y12810032D02*
G01*
X15545917Y12810947D01*
X15559481Y12813639D01*
X15572638Y12818059D01*
X15585033Y12824206D01*
X15596565Y12831876D01*
X15606979Y12841020D01*
X15616072Y12851434D01*
X15623794Y12862966D01*
X15629940Y12875361D01*
X15634360Y12888518D01*
X15637052Y12902082D01*
X15637967Y12915900D01*
X15637052Y12929717D01*
X15634360Y12943332D01*
X15629940Y12956438D01*
X15623794Y12968833D01*
X15616072Y12980365D01*
X15606979Y12990779D01*
X15596565Y12999923D01*
X15585033Y13007594D01*
X15572638Y13013740D01*
X15559481Y13018160D01*
X15545917Y13020903D01*
X15532100Y13021767D01*
X15518282Y13020903D01*
X15504668Y13018160D01*
X15491561Y13013740D01*
X15479166Y13007594D01*
X15467634Y12999923D01*
X15457220Y12990779D01*
X15448076Y12980365D01*
X15440406Y12968833D01*
X15434259Y12956438D01*
X15429839Y12943332D01*
X15427096Y12929717D01*
X15426182Y12915900D01*
X15427096Y12902082D01*
X15429839Y12888518D01*
X15434259Y12875361D01*
X15440406Y12862966D01*
X15448076Y12851434D01*
X15457220Y12841020D01*
X15467634Y12831876D01*
X15479166Y12824206D01*
X15491561Y12818059D01*
X15504668Y12813639D01*
X15518282Y12810947D01*
G37*
G36*
X15024100Y12810032D02*
G01*
X15037917Y12810947D01*
X15051481Y12813639D01*
X15064638Y12818059D01*
X15077033Y12824206D01*
X15088565Y12831876D01*
X15098979Y12841020D01*
X15108123Y12851434D01*
X15115794Y12862966D01*
X15121940Y12875361D01*
X15126360Y12888518D01*
X15129052Y12902082D01*
X15129967Y12915900D01*
X15129052Y12929717D01*
X15126360Y12943332D01*
X15121940Y12956438D01*
X15115794Y12968833D01*
X15108123Y12980365D01*
X15098979Y12990779D01*
X15088565Y12999923D01*
X15077033Y13007594D01*
X15064638Y13013740D01*
X15051481Y13018160D01*
X15037917Y13020903D01*
X15024100Y13021767D01*
X15010282Y13020903D01*
X14996668Y13018160D01*
X14983561Y13013740D01*
X14971166Y13007594D01*
X14959634Y12999923D01*
X14949220Y12990779D01*
X14940076Y12980365D01*
X14932406Y12968833D01*
X14926259Y12956438D01*
X14921839Y12943332D01*
X14919096Y12929717D01*
X14918232Y12915900D01*
X14919096Y12902082D01*
X14921839Y12888518D01*
X14926259Y12875361D01*
X14932406Y12862966D01*
X14940076Y12851434D01*
X14949220Y12841020D01*
X14959634Y12831876D01*
X14971166Y12824206D01*
X14983561Y12818059D01*
X14996668Y12813639D01*
X15010282Y12810947D01*
G37*
G36*
X14516100Y12810032D02*
G01*
X14529917Y12810947D01*
X14543481Y12813639D01*
X14556638Y12818059D01*
X14569033Y12824206D01*
X14580565Y12831876D01*
X14590979Y12841020D01*
X14600123Y12851434D01*
X14607794Y12862966D01*
X14613940Y12875361D01*
X14618360Y12888518D01*
X14621052Y12902082D01*
X14621967Y12915900D01*
X14621052Y12929717D01*
X14618360Y12943332D01*
X14613940Y12956438D01*
X14607794Y12968833D01*
X14600123Y12980365D01*
X14590979Y12990779D01*
X14580565Y12999923D01*
X14569033Y13007594D01*
X14556638Y13013740D01*
X14543481Y13018160D01*
X14529917Y13020903D01*
X14516100Y13021767D01*
X14502282Y13020903D01*
X14488668Y13018160D01*
X14475561Y13013740D01*
X14463166Y13007594D01*
X14451634Y12999923D01*
X14441220Y12990779D01*
X14432076Y12980365D01*
X14424406Y12968833D01*
X14418259Y12956438D01*
X14413839Y12943332D01*
X14411096Y12929717D01*
X14410232Y12915900D01*
X14411096Y12902082D01*
X14413839Y12888518D01*
X14418259Y12875361D01*
X14424406Y12862966D01*
X14432076Y12851434D01*
X14441220Y12841020D01*
X14451634Y12831876D01*
X14463166Y12824206D01*
X14475561Y12818059D01*
X14488668Y12813639D01*
X14502282Y12810947D01*
G37*
G36*
X14008100Y12810032D02*
G01*
X14021917Y12810947D01*
X14035481Y12813639D01*
X14048638Y12818059D01*
X14061033Y12824206D01*
X14072565Y12831876D01*
X14082979Y12841020D01*
X14092123Y12851434D01*
X14099794Y12862966D01*
X14105940Y12875361D01*
X14110360Y12888518D01*
X14113052Y12902082D01*
X14113967Y12915900D01*
X14113052Y12929717D01*
X14110360Y12943332D01*
X14105940Y12956438D01*
X14099794Y12968833D01*
X14092123Y12980365D01*
X14082979Y12990779D01*
X14072565Y12999923D01*
X14061033Y13007594D01*
X14048638Y13013740D01*
X14035481Y13018160D01*
X14021917Y13020903D01*
X14008100Y13021767D01*
X13994282Y13020903D01*
X13980668Y13018160D01*
X13967561Y13013740D01*
X13955166Y13007594D01*
X13943634Y12999923D01*
X13933220Y12990779D01*
X13924076Y12980365D01*
X13916406Y12968833D01*
X13910259Y12956438D01*
X13905839Y12943332D01*
X13903096Y12929717D01*
X13902232Y12915900D01*
X13903096Y12902082D01*
X13905839Y12888518D01*
X13910259Y12875361D01*
X13916406Y12862966D01*
X13924076Y12851434D01*
X13933220Y12841020D01*
X13943634Y12831876D01*
X13955166Y12824206D01*
X13967561Y12818059D01*
X13980668Y12813639D01*
X13994282Y12810947D01*
G37*
G36*
X12992100Y12810032D02*
G01*
X13005917Y12810947D01*
X13019481Y12813639D01*
X13032638Y12818059D01*
X13045033Y12824206D01*
X13056565Y12831876D01*
X13066979Y12841020D01*
X13076123Y12851434D01*
X13083794Y12862966D01*
X13089940Y12875361D01*
X13094360Y12888518D01*
X13097052Y12902082D01*
X13097967Y12915900D01*
X13097052Y12929717D01*
X13094360Y12943332D01*
X13089940Y12956438D01*
X13083794Y12968833D01*
X13076123Y12980365D01*
X13066979Y12990779D01*
X13056565Y12999923D01*
X13045033Y13007594D01*
X13032638Y13013740D01*
X13019481Y13018160D01*
X13005917Y13020903D01*
X12992100Y13021767D01*
X12978282Y13020903D01*
X12964668Y13018160D01*
X12951561Y13013740D01*
X12939166Y13007594D01*
X12927634Y12999923D01*
X12917220Y12990779D01*
X12908076Y12980365D01*
X12900406Y12968833D01*
X12894259Y12956438D01*
X12889839Y12943332D01*
X12887096Y12929717D01*
X12886232Y12915900D01*
X12887096Y12902082D01*
X12889839Y12888518D01*
X12894259Y12875361D01*
X12900406Y12862966D01*
X12908076Y12851434D01*
X12917220Y12841020D01*
X12927634Y12831876D01*
X12939166Y12824206D01*
X12951561Y12818059D01*
X12964668Y12813639D01*
X12978282Y12810947D01*
G37*
G36*
X15532150Y14333982D02*
G01*
X15545968Y14334896D01*
X15559532Y14337588D01*
X15572689Y14342008D01*
X15585084Y14348155D01*
X15596616Y14355826D01*
X15607030Y14364969D01*
X15616174Y14375384D01*
X15623844Y14386915D01*
X15629991Y14399310D01*
X15634411Y14412468D01*
X15637103Y14426031D01*
X15638018Y14439849D01*
X15637103Y14453666D01*
X15634411Y14467281D01*
X15629991Y14480387D01*
X15623844Y14492782D01*
X15616174Y14504314D01*
X15607030Y14514728D01*
X15596616Y14523872D01*
X15585084Y14531543D01*
X15572689Y14537690D01*
X15559532Y14542109D01*
X15545968Y14544852D01*
X15532150Y14545716D01*
X15518333Y14544852D01*
X15504718Y14542109D01*
X15491612Y14537690D01*
X15479217Y14531543D01*
X15467685Y14523872D01*
X15457271Y14514728D01*
X15448127Y14504314D01*
X15440456Y14492782D01*
X15434310Y14480387D01*
X15429890Y14467281D01*
X15427147Y14453666D01*
X15426283Y14439849D01*
X15427147Y14426031D01*
X15429890Y14412468D01*
X15434310Y14399310D01*
X15440456Y14386915D01*
X15448127Y14375384D01*
X15457271Y14364969D01*
X15467685Y14355826D01*
X15479217Y14348155D01*
X15491612Y14342008D01*
X15504718Y14337588D01*
X15518333Y14334896D01*
G37*
G36*
X15960648Y14333982D02*
G01*
X16119551Y14333982D01*
X16125850Y14334693D01*
X16131336Y14336623D01*
X16136213Y14339671D01*
X16140328Y14343786D01*
X16143376Y14348663D01*
X16145306Y14354149D01*
X16146018Y14360448D01*
X16146018Y14519351D01*
X16145306Y14525650D01*
X16143376Y14531136D01*
X16140328Y14536013D01*
X16136213Y14540128D01*
X16131336Y14543176D01*
X16125850Y14545106D01*
X16119551Y14545818D01*
X15960648Y14545818D01*
X15954349Y14545106D01*
X15948863Y14543176D01*
X15943986Y14540128D01*
X15939871Y14536013D01*
X15936823Y14531136D01*
X15934893Y14525650D01*
X15934182Y14519351D01*
X15934182Y14360448D01*
X15934893Y14354149D01*
X15936823Y14348663D01*
X15939871Y14343786D01*
X15943986Y14339671D01*
X15948863Y14336623D01*
X15954349Y14334693D01*
G37*
G36*
X15786100Y14334032D02*
G01*
X15799917Y14334947D01*
X15813481Y14337639D01*
X15826638Y14342059D01*
X15839033Y14348206D01*
X15850565Y14355876D01*
X15860979Y14365020D01*
X15870123Y14375434D01*
X15877794Y14386966D01*
X15883940Y14399361D01*
X15888360Y14412518D01*
X15891103Y14426082D01*
X15891967Y14439900D01*
X15891103Y14453717D01*
X15888360Y14467332D01*
X15883940Y14480438D01*
X15877794Y14492833D01*
X15870123Y14504365D01*
X15860979Y14514779D01*
X15850565Y14523923D01*
X15839033Y14531594D01*
X15826638Y14537740D01*
X15813481Y14542160D01*
X15799917Y14544903D01*
X15786100Y14545767D01*
X15772282Y14544903D01*
X15758718Y14542160D01*
X15745561Y14537740D01*
X15733166Y14531594D01*
X15721634Y14523923D01*
X15711220Y14514779D01*
X15702076Y14504365D01*
X15694406Y14492833D01*
X15688259Y14480438D01*
X15683839Y14467332D01*
X15681096Y14453717D01*
X15680232Y14439900D01*
X15681096Y14426082D01*
X15683839Y14412518D01*
X15688259Y14399361D01*
X15694406Y14386966D01*
X15702076Y14375434D01*
X15711220Y14365020D01*
X15721634Y14355876D01*
X15733166Y14348206D01*
X15745561Y14342059D01*
X15758718Y14337639D01*
X15772282Y14334947D01*
G37*
G36*
X16319500Y14947392D02*
G01*
X16334892Y14948357D01*
X16350030Y14951100D01*
X16364712Y14955672D01*
X16378732Y14962022D01*
X16391940Y14969998D01*
X16404031Y14979497D01*
X16414902Y14990368D01*
X16424401Y15002459D01*
X16432377Y15015667D01*
X16438727Y15029688D01*
X16443299Y15044369D01*
X16446042Y15059507D01*
X16447007Y15074900D01*
X16446042Y15090292D01*
X16443299Y15105430D01*
X16438727Y15120112D01*
X16432377Y15134132D01*
X16424401Y15147340D01*
X16414902Y15159431D01*
X16404031Y15170302D01*
X16391940Y15179801D01*
X16378732Y15187777D01*
X16364712Y15194127D01*
X16350030Y15198699D01*
X16334892Y15201442D01*
X16319500Y15202407D01*
X16304107Y15201442D01*
X16288969Y15198699D01*
X16274288Y15194127D01*
X16260267Y15187777D01*
X16247059Y15179801D01*
X16234968Y15170302D01*
X16224097Y15159431D01*
X16214598Y15147340D01*
X16206622Y15134132D01*
X16200272Y15120112D01*
X16195700Y15105430D01*
X16192957Y15090292D01*
X16191992Y15074900D01*
X16192957Y15059507D01*
X16195700Y15044369D01*
X16200272Y15029688D01*
X16206622Y15015667D01*
X16214598Y15002459D01*
X16224097Y14990368D01*
X16234968Y14979497D01*
X16247059Y14969998D01*
X16260267Y14962022D01*
X16274288Y14955672D01*
X16288969Y14951100D01*
X16304107Y14948357D01*
G37*

%LPD*%
D10*
X14486681Y11722100D02*
G01*
X14486681Y12081591D01*
X14224000Y12344272D01*
D11*
X13246100Y14439900D02*
G01*
X12407900Y13601700D01*
X11722100Y13601700D01*
X11727179Y13606779D01*
X11727179Y13817600D01*
D10*
X15278100Y14439900D02*
G01*
X13982700Y13144500D01*
X12331700Y13144500D01*
X12255500Y13068300D01*
X12255500Y12788900D01*
X12293600Y12750800D01*
X12712700Y12750800D01*
X13118972Y12344527D01*
X13970000Y12344527D01*
X15278100Y14439900D02*
G01*
X15087600Y14630400D01*
X12738100Y14630400D01*
X12741694Y14633994D01*
X12741694Y14781911D01*
X14224000Y12344272D02*
G01*
X14224000Y12407900D01*
X14516100Y12700000D01*
X15278100Y12700000D01*
X15278100Y12915900D01*
D12*
G01*
X15101900Y11849100D03*
D13*
G01*
X15301899Y11849100D03*
D14*
G01*
X16040100Y14439900D03*
D15*
G01*
X15786100Y12915900D03*
G01*
X15278100Y12915900D03*
G01*
X14770100Y12915900D03*
G01*
X14262100Y12915900D03*
G01*
X13754100Y12915900D03*
G01*
X13246100Y12915900D03*
G01*
X12738100Y12915900D03*
G01*
X12484100Y14439900D03*
G01*
X12992100Y14439900D03*
G01*
X13500100Y14439900D03*
G01*
X14008100Y14439900D03*
G01*
X14516100Y14439900D03*
G01*
X15024100Y14439900D03*
G01*
X15532100Y14439900D03*
G01*
X15786100Y14439900D03*
G01*
X15278100Y14439900D03*
G01*
X14770100Y14439900D03*
G01*
X14262100Y14439900D03*
G01*
X13754100Y14439900D03*
G01*
X13246100Y14439900D03*
G01*
X12738100Y14439900D03*
G01*
X12484100Y12915900D03*
G01*
X12992100Y12915900D03*
G01*
X13500100Y12915900D03*
G01*
X14008100Y12915900D03*
G01*
X14516100Y12915900D03*
G01*
X15024100Y12915900D03*
G01*
X15532100Y12915900D03*
D14*
G01*
X16040100Y12915900D03*
D16*
G01*
X14732000Y12344272D03*
G01*
X14478000Y12344272D03*
G01*
X14224000Y12344272D03*
G01*
X13970000Y12344527D03*
D17*
G01*
X12377420Y13817600D03*
G01*
X11727179Y13817600D03*
D18*
G01*
X14486686Y11722100D03*
G01*
X12741706Y14781911D03*
M02*
