G04 Layer: BottomSilkscreenLayer*
G04 EasyEDA v6.5.51, 2026-10-07 05:10:36*
G04 197882fafefe4d2ba97ff6944c954397,10*
G04 Gerber Generator version 0.2*
G04 Scale: 100 percent, Rotated: No, Reflected: No *
G04 Dimensions in millimeters *
G04 leading zeros omitted , absolute positions ,4 integer and 5 decimal *
%FSLAX45Y45*%
%MOMM*%

%ADD10C,0.2540*%
%ADD11C,0.0131*%

%LPD*%
G36*
X14290243Y14469313D02*
G01*
X14278610Y14452396D01*
X14269364Y14434413D01*
X14267129Y14425726D01*
X14263420Y14420392D01*
X14244472Y14379498D01*
X14234820Y14361668D01*
X14217700Y14327276D01*
X14217700Y14324990D01*
X14209064Y14310106D01*
X14198193Y14285823D01*
X14187220Y14267840D01*
X14175841Y14242542D01*
X14169085Y14228318D01*
X14166697Y14224762D01*
X14154556Y14198041D01*
X14137690Y14164462D01*
X14137690Y14160652D01*
X14131645Y14147393D01*
X14131645Y14142313D01*
X14129257Y14141145D01*
X14113967Y14110919D01*
X14099997Y14076476D01*
X14099997Y14073835D01*
X14095780Y14068247D01*
X14082166Y14036192D01*
X14080388Y14030858D01*
X14071396Y14013078D01*
X14039697Y13938402D01*
X14026083Y13909903D01*
X14012214Y13877899D01*
X14008607Y13870279D01*
X14005356Y13865453D01*
X13989557Y13828115D01*
X13976654Y13801445D01*
X13957757Y13758722D01*
X13952321Y13749629D01*
X13950289Y13740079D01*
X13947800Y13740079D01*
X13945717Y13732052D01*
X13938859Y13721232D01*
X13927988Y13696645D01*
X13927988Y13690447D01*
X13924940Y13688263D01*
X13924940Y13679627D01*
X13935201Y13671600D01*
X13951356Y13658138D01*
X13974013Y13638784D01*
X13999159Y13618210D01*
X14013281Y13607542D01*
X14023420Y13598651D01*
X14125244Y13598651D01*
X14125549Y13618006D01*
X14130629Y13630656D01*
X14152880Y13678712D01*
X14155674Y13684046D01*
X14198041Y13775893D01*
X14198041Y13780973D01*
X14201190Y13780973D01*
X14203121Y13787170D01*
X14209623Y13799667D01*
X14224304Y13833449D01*
X14247317Y13881455D01*
X14261236Y13913459D01*
X14272107Y13936624D01*
X14286738Y13971320D01*
X14293850Y13983716D01*
X14295374Y13983665D01*
X14298777Y13981074D01*
X14304518Y13968628D01*
X14312341Y13954251D01*
X14322196Y13931239D01*
X14346936Y13881455D01*
X14365020Y13842339D01*
X14400987Y13767866D01*
X14421357Y13727430D01*
X14421357Y13725855D01*
X14457578Y13650976D01*
X14457578Y13648131D01*
X14467230Y13632434D01*
X14478457Y13607542D01*
X14521230Y13516863D01*
X14534388Y13491260D01*
X14544100Y13469721D01*
X14747290Y13469721D01*
X14747290Y13466419D01*
X14752574Y13464794D01*
X14745766Y13464387D01*
X14745766Y13469721D01*
X14544100Y13469721D01*
X14548979Y13459053D01*
X14740737Y13459053D01*
X14742718Y13461390D01*
X14742718Y13456666D01*
X14740737Y13459053D01*
X14548979Y13459053D01*
X14558772Y13440968D01*
X14574215Y13406577D01*
X14579447Y13397687D01*
X14584273Y13385241D01*
X14588083Y13378129D01*
X14590217Y13376249D01*
X14596877Y13361212D01*
X14656257Y13361212D01*
X14658187Y13358926D01*
X14656562Y13355878D01*
X14650719Y13355878D01*
X14650719Y13361212D01*
X14596877Y13361212D01*
X14605341Y13342010D01*
X14635835Y13342010D01*
X14637461Y13346988D01*
X14637867Y13346887D01*
X14642002Y13343178D01*
X14685365Y13343178D01*
X14688210Y13345261D01*
X14689988Y13341908D01*
X14687143Y13339826D01*
X14685365Y13343178D01*
X14642002Y13343178D01*
X14643150Y13342162D01*
X14643150Y13330275D01*
X14635835Y13342010D01*
X14605341Y13342010D01*
X14610588Y13330072D01*
X14621256Y13312292D01*
X14628825Y13294868D01*
X14637105Y13283946D01*
X14637105Y13279272D01*
X14642846Y13266064D01*
X14650364Y13257784D01*
X14648840Y13250926D01*
X14643252Y13250926D01*
X14618258Y13265708D01*
X14607286Y13275818D01*
X14604796Y13275818D01*
X14588032Y13289737D01*
X14543125Y13316915D01*
X14535302Y13323417D01*
X14505127Y13342162D01*
X14464385Y13369645D01*
X14439442Y13384377D01*
X14420596Y13397941D01*
X14381378Y13422274D01*
X14362582Y13435838D01*
X14355114Y13438022D01*
X14351609Y13443051D01*
X14349069Y13443051D01*
X14314982Y13464844D01*
X14301419Y13473836D01*
X14264640Y13496188D01*
X14253108Y13504621D01*
X14227505Y13518591D01*
X14200327Y13536422D01*
X14174673Y13550646D01*
X14143075Y13571524D01*
X14131290Y13582650D01*
X14125244Y13598651D01*
X14023420Y13598651D01*
X14047927Y13577163D01*
X14064538Y13563955D01*
X14098422Y13535507D01*
X14133931Y13506196D01*
X14152067Y13489940D01*
X14189760Y13458901D01*
X14227505Y13426897D01*
X14245590Y13410793D01*
X14275765Y13385546D01*
X14292376Y13372236D01*
X14304568Y13363397D01*
X14327124Y13342010D01*
X14346529Y13328599D01*
X14375942Y13303402D01*
X14404967Y13279069D01*
X14558873Y13279069D01*
X14560702Y13281151D01*
X14563191Y13281151D01*
X14563191Y13276072D01*
X14560499Y13274090D01*
X14558873Y13279069D01*
X14404967Y13279069D01*
X14407032Y13277342D01*
X14414251Y13272262D01*
X14574875Y13272262D01*
X14579803Y13279983D01*
X14579803Y13272262D01*
X14414251Y13272262D01*
X14419304Y13268706D01*
X14568220Y13268706D01*
X14566188Y13266369D01*
X14564207Y13268706D01*
X14419304Y13268706D01*
X14431984Y13259816D01*
X14559940Y13259816D01*
X14561464Y13264286D01*
X14561464Y13255396D01*
X14559940Y13259816D01*
X14431984Y13259816D01*
X14437207Y13256158D01*
X14441059Y13252704D01*
X14573910Y13252704D01*
X14572081Y13249148D01*
X14567916Y13249148D01*
X14566036Y13252704D01*
X14441059Y13252704D01*
X14449958Y13244728D01*
X14467382Y13230098D01*
X14479473Y13223494D01*
X14484946Y13217144D01*
X14511731Y13217144D01*
X14513204Y13214299D01*
X14510410Y13209168D01*
X14510359Y13217144D01*
X14484946Y13217144D01*
X14487245Y13214451D01*
X14510359Y13201142D01*
X14510359Y13197586D01*
X14514931Y13197586D01*
X14514931Y13192658D01*
X14522856Y13190270D01*
X14532559Y13181584D01*
X14540585Y13181584D01*
X14540585Y13176504D01*
X14546580Y13174218D01*
X14546580Y13170916D01*
X14549323Y13170916D01*
X14547748Y13178028D01*
X14545310Y13178028D01*
X14532762Y13192251D01*
X14529816Y13192251D01*
X14530679Y13198449D01*
X14528292Y13202919D01*
X14522450Y13202919D01*
X14522450Y13209473D01*
X14540585Y13215924D01*
X14552218Y13211810D01*
X14556943Y13211810D01*
X14560296Y13223900D01*
X14568474Y13227710D01*
X14576551Y13229894D01*
X14581682Y13236600D01*
X14579904Y13247065D01*
X14584324Y13251383D01*
X14584324Y13254228D01*
X14577517Y13255396D01*
X14577517Y13258952D01*
X14584324Y13260069D01*
X14584324Y13255751D01*
X14608454Y13257733D01*
X14608454Y13255294D01*
X14631822Y13246709D01*
X14638782Y13240512D01*
X14647722Y13238175D01*
X14650821Y13231368D01*
X14655088Y13231368D01*
X14662657Y13235432D01*
X14663623Y13241172D01*
X14653717Y13262000D01*
X14651888Y13270534D01*
X14642896Y13278104D01*
X14650719Y13286638D01*
X14650669Y13289178D01*
X14647976Y13294156D01*
X14642084Y13292328D01*
X14643506Y13307313D01*
X14632279Y13315492D01*
X14629282Y13325652D01*
X14623846Y13325652D01*
X14625370Y13332663D01*
X14629384Y13336524D01*
X14633041Y13328497D01*
X14640153Y13319455D01*
X14640153Y13317321D01*
X14647672Y13313308D01*
X14654479Y13316356D01*
X14646452Y13320725D01*
X14645030Y13327024D01*
X14647519Y13331748D01*
X14664080Y13330936D01*
X14679777Y13327430D01*
X14689175Y13327380D01*
X14697811Y13322096D01*
X14701824Y13322096D01*
X14706549Y13329970D01*
X14706549Y13339063D01*
X14701824Y13346988D01*
X14694052Y13346988D01*
X14695881Y13360095D01*
X14710816Y13378129D01*
X14720620Y13400481D01*
X14715744Y13412520D01*
X14720316Y13416991D01*
X14730120Y13412774D01*
X14737537Y13412774D01*
X14741245Y13424255D01*
X14750796Y13411911D01*
X14752980Y13421461D01*
X14757806Y13429589D01*
X14757806Y13439495D01*
X14762124Y13439495D01*
X14763292Y13433247D01*
X14760854Y13422680D01*
X14765375Y13417346D01*
X14765375Y13424814D01*
X14769642Y13428980D01*
X14771624Y13418108D01*
X14774418Y13418108D01*
X14774418Y13413181D01*
X14778177Y13411403D01*
X14784222Y13397687D01*
X14794026Y13379957D01*
X14794026Y13374116D01*
X14798497Y13369747D01*
X14800376Y13357758D01*
X14806117Y13355624D01*
X14807946Y13346938D01*
X14819680Y13325500D01*
X14819680Y13322604D01*
X14828723Y13307872D01*
X14828723Y13302742D01*
X14831822Y13300506D01*
X14840305Y13278510D01*
X14857425Y13247878D01*
X14857425Y13244220D01*
X14868093Y13219836D01*
X14880793Y13194436D01*
X14884196Y13189559D01*
X14896541Y13161111D01*
X14904364Y13140740D01*
X14915134Y13122300D01*
X14952929Y13036600D01*
X14956993Y13029590D01*
X14956993Y13023748D01*
X14970302Y13000380D01*
X14986660Y12961924D01*
X14999716Y12933476D01*
X15009368Y12915646D01*
X15014194Y12904978D01*
X15029484Y12868554D01*
X15036850Y12862915D01*
X15040203Y12865354D01*
X15038324Y12874193D01*
X15030348Y12888976D01*
X15023439Y12903200D01*
X15005557Y12946329D01*
X14995956Y12961924D01*
X14987371Y12983260D01*
X14976195Y13006374D01*
X14947493Y13072211D01*
X14939772Y13086435D01*
X14934539Y13097103D01*
X14922042Y13127024D01*
X14919147Y13134441D01*
X14903043Y13166445D01*
X14885771Y13205612D01*
X14883384Y13209168D01*
X14857374Y13268909D01*
X14852345Y13278510D01*
X14839645Y13301624D01*
X14829739Y13329869D01*
X14817699Y13351256D01*
X14797328Y13398144D01*
X14788997Y13413689D01*
X14769541Y13458139D01*
X14765477Y13463625D01*
X14747748Y13504418D01*
X14734844Y13532866D01*
X14730882Y13538200D01*
X14704872Y13598601D01*
X14700859Y13603986D01*
X14683435Y13643101D01*
X14673326Y13661948D01*
X14653717Y13707160D01*
X14641423Y13733830D01*
X14631365Y13753388D01*
X14616988Y13787018D01*
X14599157Y13822426D01*
X14596618Y13830249D01*
X14581835Y13861897D01*
X14564309Y13901013D01*
X14560499Y13906347D01*
X14544548Y13941958D01*
X14534540Y13961516D01*
X14534540Y13964615D01*
X14518284Y13997076D01*
X14487448Y14064640D01*
X14464893Y14112697D01*
X14448891Y14148257D01*
X14428571Y14190929D01*
X14406219Y14239900D01*
X14392706Y14266824D01*
X14392706Y14268450D01*
X14373555Y14308328D01*
X14363547Y14333219D01*
X14356334Y14346783D01*
X14338198Y14390166D01*
X14328444Y14411502D01*
X14310715Y14443506D01*
X14303298Y14461286D01*
X14297101Y14469313D01*
G37*
G36*
X13670737Y14131239D02*
G01*
X13643559Y14128038D01*
X13622426Y14124228D01*
X13603681Y14118793D01*
X13592708Y14113357D01*
X13577163Y14101470D01*
X13565886Y14087805D01*
X13565886Y14083334D01*
X13563549Y14083334D01*
X13553694Y14065605D01*
X13550493Y14048638D01*
X13549071Y14034414D01*
X13553490Y13995146D01*
X13563295Y13965936D01*
X13565886Y13965936D01*
X13565886Y13960398D01*
X13572185Y13943736D01*
X13581380Y13921486D01*
X13583970Y13921486D01*
X13583970Y13914272D01*
X13588492Y13912189D01*
X13588492Y13908024D01*
X13606830Y13874343D01*
X13610590Y13870787D01*
X13613384Y13864996D01*
X13623950Y13849604D01*
X13629233Y13843203D01*
X13629233Y13841628D01*
X13638530Y13825372D01*
X13655040Y13805306D01*
X13661491Y13794333D01*
X13674344Y13778280D01*
X13688060Y13759535D01*
X13713002Y13729766D01*
X13752982Y13681456D01*
X13752982Y13678407D01*
X13760297Y13673785D01*
X13761974Y13665707D01*
X13770660Y13662151D01*
X13782903Y13647572D01*
X13787678Y13647572D01*
X13787678Y13640206D01*
X13809218Y13615568D01*
X13813942Y13615568D01*
X13832179Y13600633D01*
X13834567Y13596010D01*
X13838986Y13596010D01*
X13844269Y13588593D01*
X13862354Y13576554D01*
X13870940Y13568426D01*
X13875054Y13563854D01*
X13887450Y13558723D01*
X13906093Y13545312D01*
X13923263Y13530173D01*
X13926007Y13530173D01*
X13931696Y13522756D01*
X13940790Y13518134D01*
X13947952Y13510107D01*
X13962989Y13498169D01*
X13965174Y13498169D01*
X13981836Y13483031D01*
X14008201Y13463473D01*
X14017751Y13455599D01*
X14035836Y13441426D01*
X14047927Y13431062D01*
X14082623Y13406628D01*
X14109801Y13383818D01*
X14130811Y13370102D01*
X14196720Y13370102D01*
X14195044Y13366902D01*
X14188998Y13368731D01*
X14188998Y13370102D01*
X14130811Y13370102D01*
X14133931Y13368070D01*
X14138706Y13362990D01*
X14142059Y13362990D01*
X14144015Y13359434D01*
X14172438Y13359434D01*
X14172438Y13357656D01*
X14170913Y13357656D01*
X14170913Y13359434D01*
X14144015Y13359434D01*
X14144498Y13358571D01*
X14149868Y13354100D01*
X14176959Y13354100D01*
X14176959Y13352322D01*
X14175435Y13352322D01*
X14175435Y13354100D01*
X14149868Y13354100D01*
X14154251Y13350494D01*
X14161516Y13347242D01*
X14166230Y13343432D01*
X14195044Y13343432D01*
X14195044Y13341654D01*
X14193519Y13341654D01*
X14193519Y13343432D01*
X14166230Y13343432D01*
X14181632Y13330986D01*
X14183715Y13330986D01*
X14209369Y13311225D01*
X14215414Y13304621D01*
X14221849Y13300760D01*
X14240306Y13300760D01*
X14240306Y13298982D01*
X14238782Y13298982D01*
X14238782Y13300760D01*
X14221849Y13300760D01*
X14237207Y13291464D01*
X14244980Y13282980D01*
X14250517Y13282980D01*
X14252244Y13290702D01*
X14250669Y13293648D01*
X14246504Y13293648D01*
X14245590Y13308736D01*
X14237309Y13309854D01*
X14237309Y13323671D01*
X14233651Y13326313D01*
X14223695Y13325551D01*
X14223746Y13333628D01*
X14226387Y13338556D01*
X14233601Y13336473D01*
X14239951Y13329462D01*
X14242999Y13337387D01*
X14239240Y13343432D01*
X14236547Y13343432D01*
X14230502Y13354100D01*
X14223898Y13354100D01*
X14219936Y13344347D01*
X14213128Y13340791D01*
X14213128Y13331393D01*
X14207845Y13329767D01*
X14204238Y13331240D01*
X14207236Y13340486D01*
X14211401Y13344347D01*
X14212417Y13354862D01*
X14205356Y13359028D01*
X14208607Y13361416D01*
X14208607Y13363956D01*
X14201851Y13367461D01*
X14200784Y13374573D01*
X14195806Y13381126D01*
X14186763Y13386612D01*
X14174673Y13398754D01*
X14170812Y13402360D01*
X14153438Y13415975D01*
X14149425Y13421715D01*
X14145260Y13421715D01*
X14132560Y13436193D01*
X14123365Y13441730D01*
X14106804Y13458088D01*
X14104366Y13462609D01*
X14099794Y13462609D01*
X14087144Y13473328D01*
X14074698Y13484809D01*
X14061490Y13497763D01*
X14035836Y13518184D01*
X14032839Y13522299D01*
X14013281Y13539978D01*
X13993469Y13555980D01*
X13954404Y13591438D01*
X13951356Y13595299D01*
X13929817Y13617346D01*
X13926464Y13617346D01*
X13910513Y13636040D01*
X13883843Y13660932D01*
X13873175Y13674242D01*
X13867942Y13684046D01*
X13853312Y13700556D01*
X13823137Y13736116D01*
X13815568Y13740841D01*
X13805255Y13745210D01*
X13793469Y13747546D01*
X13767917Y13768019D01*
X13740130Y13798245D01*
X13715593Y13823492D01*
X13694867Y13850569D01*
X13678255Y13870533D01*
X13657935Y13901013D01*
X13646607Y13918641D01*
X13633856Y13941958D01*
X13622019Y13970660D01*
X13613688Y13997076D01*
X13613384Y14039748D01*
X13617448Y14053210D01*
X13627760Y14071295D01*
X13640562Y14082674D01*
X13655598Y14092478D01*
X13674801Y14101521D01*
X13693343Y14104416D01*
X13726566Y14110411D01*
X13768781Y14108531D01*
X13811046Y14103045D01*
X13845743Y14096085D01*
X13866876Y14089075D01*
X13878153Y14087144D01*
X13879880Y14090446D01*
X13874343Y14090446D01*
X13868247Y14095476D01*
X13857020Y14097965D01*
X13855496Y14100911D01*
X13841222Y14103197D01*
X13827099Y14108430D01*
X13798956Y14115592D01*
X13780871Y14118945D01*
X13771829Y14122603D01*
X13747699Y14124533D01*
X13740079Y14127886D01*
X13716000Y14130680D01*
G37*
G36*
X13866876Y13542568D02*
G01*
X13862608Y13541756D01*
X13855141Y13525754D01*
X13847165Y13511530D01*
X13835888Y13483031D01*
X13832179Y13475969D01*
X13824610Y13463473D01*
X13812062Y13436803D01*
X13796314Y13401243D01*
X13792200Y13395604D01*
X13792200Y13391489D01*
X13780668Y13369239D01*
X13772591Y13349681D01*
X13766546Y13338962D01*
X13747292Y13292734D01*
X13745311Y13287400D01*
X13725804Y13249351D01*
X13725733Y13247369D01*
X13946073Y13247369D01*
X13946073Y13245592D01*
X13944600Y13245592D01*
X13944600Y13247369D01*
X13725733Y13247369D01*
X13725702Y13246506D01*
X13719860Y13232282D01*
X13719759Y13229539D01*
X13711682Y13214502D01*
X13671905Y13121995D01*
X13650620Y13075361D01*
X13623645Y13011708D01*
X13614095Y12992811D01*
X13599007Y12955371D01*
X13590422Y12940588D01*
X13583919Y12925450D01*
X13585799Y12916509D01*
X13588390Y12914630D01*
X13596975Y12919862D01*
X13601039Y12934340D01*
X13605103Y12934340D01*
X13605103Y12940284D01*
X13610386Y12953796D01*
X13614247Y12953898D01*
X13622426Y12970205D01*
X13629487Y12979298D01*
X13627557Y12991388D01*
X13633754Y12986867D01*
X13639038Y12990677D01*
X13642898Y12999974D01*
X13650366Y13006882D01*
X13650366Y13010540D01*
X13660221Y13017703D01*
X13667028Y13028574D01*
X13675664Y13033806D01*
X13677595Y13042849D01*
X13690346Y13042849D01*
X13689279Y13059156D01*
X13692632Y13063118D01*
X13692632Y13047268D01*
X13695273Y13042392D01*
X13698423Y13044678D01*
X13700302Y13054736D01*
X13713002Y13062965D01*
X13728496Y13078358D01*
X13730274Y13086892D01*
X13735608Y13089077D01*
X13739215Y13091109D01*
X13745972Y13081965D01*
X13748867Y13081965D01*
X13758418Y13093547D01*
X13782954Y13107314D01*
X13783868Y13106044D01*
X13791336Y13112191D01*
X13797737Y13112191D01*
X13803223Y13119303D01*
X13795705Y13119303D01*
X13795705Y13124891D01*
X13804188Y13126872D01*
X13802766Y13129615D01*
X13809522Y13131698D01*
X13817803Y13131749D01*
X13831112Y13135965D01*
X13836040Y13130123D01*
X13841222Y13132307D01*
X13848232Y13139775D01*
X13841222Y13142112D01*
X13829131Y13142518D01*
X13825270Y13145414D01*
X13836700Y13149681D01*
X13845743Y13150646D01*
X13858494Y13155422D01*
X13856868Y13158520D01*
X13853922Y13156387D01*
X13846454Y13162127D01*
X13841577Y13158927D01*
X13835938Y13160654D01*
X13835938Y13167360D01*
X13877036Y13170712D01*
X13878407Y13172389D01*
X13883792Y13184225D01*
X13894054Y13188188D01*
X13897965Y13197586D01*
X13900962Y13197586D01*
X13907973Y13188696D01*
X13915898Y13188696D01*
X13915898Y13193572D01*
X13920114Y13197687D01*
X13918590Y13204647D01*
X13927937Y13214959D01*
X13931239Y13233146D01*
X13937030Y13233146D01*
X13936980Y13226948D01*
X13934389Y13213943D01*
X13936472Y13210032D01*
X13945463Y13219836D01*
X13952829Y13238480D01*
X13955166Y13238480D01*
X13966799Y13267842D01*
X13972692Y13275005D01*
X13976248Y13287044D01*
X13987170Y13306958D01*
X13995501Y13321182D01*
X14006779Y13352322D01*
X14009471Y13352322D01*
X14009471Y13360552D01*
X14013891Y13367461D01*
X14013992Y13372236D01*
X14020038Y13381278D01*
X14020038Y13393216D01*
X14017244Y13393216D01*
X14013281Y13382701D01*
X14005661Y13384885D01*
X14004798Y13387425D01*
X13998143Y13403021D01*
X13991691Y13406678D01*
X13984376Y13417245D01*
X13985544Y13423493D01*
X13992656Y13423493D01*
X13994790Y13415467D01*
X13998143Y13412876D01*
X14004391Y13412774D01*
X14013180Y13401954D01*
X14017955Y13403427D01*
X14022019Y13392607D01*
X14024356Y13400024D01*
X14022679Y13407440D01*
X14016990Y13407440D01*
X14011706Y13412876D01*
X14000784Y13423493D01*
X13996060Y13423493D01*
X13991031Y13433450D01*
X13985748Y13436803D01*
X13972489Y13447471D01*
X13949070Y13469823D01*
X13937792Y13477544D01*
X13897051Y13514374D01*
X13884046Y13525754D01*
X13878712Y13532002D01*
G37*
G36*
X14769693Y13414654D02*
G01*
X14766848Y13412571D01*
X14768576Y13409168D01*
X14771471Y13411250D01*
G37*
G36*
X14753285Y13407440D02*
G01*
X14753285Y13405916D01*
X14756130Y13403834D01*
X14758009Y13407440D01*
G37*
G36*
X14252397Y13332764D02*
G01*
X14247113Y13332663D01*
X14241576Y13327735D01*
X14242592Y13320166D01*
X14245488Y13319810D01*
X14248587Y13326516D01*
X14252397Y13329361D01*
G37*
G36*
X14254988Y13279424D02*
G01*
X14262658Y13272262D01*
X14267942Y13272262D01*
X14262455Y13279424D01*
G37*
G36*
X14270685Y13270484D02*
G01*
X14268805Y13266928D01*
X14277289Y13267182D01*
G37*
G36*
X14284045Y13259816D02*
G01*
X14284045Y13256260D01*
X14290852Y13256513D01*
G37*
G36*
X14604136Y13254482D02*
G01*
X14602460Y13251332D01*
X14606879Y13249300D01*
X14608352Y13252246D01*
X14606422Y13254482D01*
G37*
G36*
X14297660Y13249148D02*
G01*
X14297660Y13245846D01*
X14303654Y13243610D01*
X14306753Y13245846D01*
X14305026Y13249148D01*
G37*
G36*
X14315744Y13236701D02*
G01*
X14315744Y13234924D01*
X14317268Y13234924D01*
X14317268Y13236701D01*
G37*
G36*
X14329511Y13227812D02*
G01*
X14327632Y13224256D01*
X14332508Y13224256D01*
X14330680Y13227812D01*
G37*
G36*
X13932458Y13205612D02*
G01*
X13923467Y13193522D01*
X13923467Y13189508D01*
X13916660Y13186003D01*
X13915847Y13177113D01*
X13914424Y13169544D01*
X13908379Y13167664D01*
X13908379Y13156133D01*
X13914323Y13162483D01*
X13916101Y13169138D01*
X13923467Y13171271D01*
X13923467Y13177113D01*
X13932407Y13196671D01*
G37*
G36*
X14551101Y13195807D02*
G01*
X14551101Y13194030D01*
X14552625Y13194030D01*
X14552625Y13195807D01*
G37*
G36*
X13900810Y13185343D02*
G01*
X13897914Y13183260D01*
X13899642Y13178028D01*
X13900810Y13178028D01*
G37*
G36*
X14555673Y13167360D02*
G01*
X14555673Y13165582D01*
X14557146Y13165582D01*
X14557146Y13167360D01*
G37*
G36*
X14588337Y13140690D02*
G01*
X14590166Y13138505D01*
X14594128Y13140385D01*
G37*
G36*
X13692632Y13041680D02*
G01*
X13690600Y13039293D01*
X13692632Y13036905D01*
G37*
G36*
X13605103Y12932562D02*
G01*
X13605103Y12930784D01*
X13606627Y12930784D01*
X13606627Y12932562D01*
G37*
G36*
X13703909Y12705232D02*
G01*
X13670737Y12701219D01*
X13649045Y12694310D01*
X13621512Y12677597D01*
X13613231Y12664897D01*
X13602411Y12638227D01*
X13596061Y12608204D01*
X13596061Y12570409D01*
X13603122Y12538354D01*
X13613384Y12513818D01*
X13634516Y12488621D01*
X13651788Y12477038D01*
X13678255Y12468148D01*
X13709192Y12466066D01*
X13712596Y12461240D01*
X13697915Y12444120D01*
X13685519Y12428321D01*
X13658646Y12397994D01*
X13628065Y12360757D01*
X13608913Y12339370D01*
X13602055Y12327686D01*
X13602055Y12321997D01*
X13635329Y12324486D01*
X13679271Y12324283D01*
X13685824Y12328347D01*
X13737132Y12389662D01*
X13759891Y12417653D01*
X13802258Y12466574D01*
X13912443Y12466574D01*
X13918184Y12459106D01*
X13919707Y12328144D01*
X13921841Y12325604D01*
X13978432Y12326264D01*
X13982293Y12330023D01*
X13982293Y12517932D01*
X13985189Y12526924D01*
X13978636Y12532360D01*
X13725042Y12532461D01*
X13688009Y12535662D01*
X13674598Y12544907D01*
X13665504Y12556388D01*
X13659408Y12577521D01*
X13659459Y12588392D01*
X13665098Y12610338D01*
X13673074Y12622631D01*
X13691869Y12634671D01*
X13983512Y12635636D01*
X13986560Y12640005D01*
X13987576Y12699288D01*
X13985087Y12702235D01*
X13933271Y12704013D01*
G37*
G36*
X13199973Y12704876D02*
G01*
X13172338Y12699593D01*
X13154710Y12694208D01*
X13153694Y12690652D01*
X13145109Y12690652D01*
X13126059Y12678918D01*
X13102183Y12659563D01*
X13088924Y12643916D01*
X13076936Y12622733D01*
X13063423Y12589306D01*
X13063423Y12584430D01*
X13057327Y12568123D01*
X13054126Y12547498D01*
X13050316Y12542164D01*
X13048437Y12535916D01*
X13042747Y12535916D01*
X13035534Y12528448D01*
X13021614Y12520117D01*
X13000837Y12515850D01*
X12991439Y12509957D01*
X13020548Y12505893D01*
X13040563Y12494818D01*
X13044169Y12489688D01*
X13049097Y12489586D01*
X13053720Y12481712D01*
X13055819Y12473787D01*
X13116458Y12473787D01*
X13118998Y12484201D01*
X13124434Y12495022D01*
X13132511Y12495022D01*
X13134390Y12500711D01*
X13138962Y12498679D01*
X13156234Y12504369D01*
X13195452Y12509195D01*
X13199821Y12510160D01*
X13192251Y12516002D01*
X13159232Y12520015D01*
X13150189Y12520371D01*
X13135101Y12525451D01*
X13120979Y12532868D01*
X13117372Y12543028D01*
X13118642Y12563703D01*
X13129056Y12587325D01*
X13142620Y12606680D01*
X13157962Y12619837D01*
X13175843Y12628016D01*
X13203529Y12635534D01*
X13344804Y12635280D01*
X13347852Y12634163D01*
X13371982Y12628016D01*
X13396264Y12614452D01*
X13414756Y12592710D01*
X13425017Y12574168D01*
X13431469Y12551054D01*
X13435177Y12511328D01*
X13431824Y12477394D01*
X13425169Y12453213D01*
X13417600Y12434773D01*
X13402208Y12416282D01*
X13378027Y12397892D01*
X13356894Y12390983D01*
X13190931Y12390983D01*
X13172795Y12397486D01*
X13154710Y12408509D01*
X13143941Y12417704D01*
X13135000Y12430099D01*
X13126618Y12445492D01*
X13116458Y12473787D01*
X13055819Y12473787D01*
X13060578Y12456007D01*
X13063423Y12453924D01*
X13063423Y12447879D01*
X13076377Y12414097D01*
X13089534Y12390983D01*
X13113969Y12362891D01*
X13138251Y12344196D01*
X13150189Y12338151D01*
X13172795Y12329566D01*
X13208050Y12322302D01*
X13344804Y12323673D01*
X13378027Y12329566D01*
X13408202Y12343993D01*
X13424662Y12354204D01*
X13442899Y12371171D01*
X13460323Y12394641D01*
X13474750Y12422987D01*
X13482980Y12444069D01*
X13488822Y12472771D01*
X13493394Y12509398D01*
X13489127Y12561722D01*
X13477138Y12601448D01*
X13463117Y12633350D01*
X13436346Y12665608D01*
X13420090Y12677902D01*
X13402157Y12688773D01*
X13388594Y12694412D01*
X13367461Y12701727D01*
X13344804Y12704419D01*
G37*
G36*
X14140484Y12704013D02*
G01*
X14136522Y12697612D01*
X14138249Y12689890D01*
X14160246Y12638481D01*
X14164106Y12635585D01*
X14504162Y12635534D01*
X14508886Y12641122D01*
X14508835Y12696901D01*
X14505990Y12702235D01*
X14465858Y12704013D01*
G37*
G36*
X15298419Y12703149D02*
G01*
X15289682Y12699492D01*
X15271597Y12664795D01*
X15260878Y12647117D01*
X15257119Y12638227D01*
X15244673Y12613284D01*
X15228925Y12584836D01*
X15213634Y12552832D01*
X15210891Y12549073D01*
X15190317Y12508382D01*
X15171470Y12474549D01*
X15167559Y12463881D01*
X15138552Y12410541D01*
X15127325Y12387427D01*
X15104618Y12344704D01*
X15098826Y12329312D01*
X15098826Y12324892D01*
X15118842Y12327737D01*
X15149779Y12326264D01*
X15158313Y12328956D01*
X15169286Y12348362D01*
X15189250Y12385649D01*
X15198445Y12406172D01*
X15208910Y12425426D01*
X15211704Y12427458D01*
X15230856Y12466116D01*
X15239898Y12480544D01*
X15245943Y12482525D01*
X15263368Y12482576D01*
X15265298Y12488519D01*
X15260269Y12505283D01*
X15260269Y12514783D01*
X15264993Y12525552D01*
X15298166Y12586614D01*
X15303754Y12589052D01*
X15330373Y12536830D01*
X15333624Y12533274D01*
X15343378Y12517272D01*
X15382060Y12448794D01*
X15411145Y12448794D01*
X15413431Y12448387D01*
X15418714Y12446711D01*
X15416987Y12443460D01*
X15411145Y12443460D01*
X15411145Y12448794D01*
X15382060Y12448794D01*
X15383075Y12447016D01*
X15396565Y12447016D01*
X15394533Y12444628D01*
X15392552Y12447016D01*
X15383075Y12447016D01*
X15391238Y12432792D01*
X15401848Y12432792D01*
X15403372Y12437211D01*
X15403372Y12431014D01*
X15424200Y12431014D01*
X15426232Y12433350D01*
X15426232Y12428626D01*
X15424200Y12431014D01*
X15403372Y12431014D01*
X15403372Y12428321D01*
X15401848Y12432792D01*
X15391238Y12432792D01*
X15393263Y12425680D01*
X15395803Y12425680D01*
X15398551Y12420346D01*
X15421711Y12420346D01*
X15421711Y12418568D01*
X15437104Y12418568D01*
X15438678Y12425680D01*
X15439796Y12425680D01*
X15439796Y12418568D01*
X15421711Y12418568D01*
X15421711Y12407849D01*
X15420289Y12407849D01*
X15415463Y12418822D01*
X15411145Y12416891D01*
X15411145Y12420346D01*
X15398551Y12420346D01*
X15402763Y12412319D01*
X15409621Y12405817D01*
X15409621Y12401651D01*
X15412232Y12395403D01*
X15422981Y12395403D01*
X15424150Y12399670D01*
X15426994Y12400686D01*
X15431465Y12397333D01*
X15427960Y12393168D01*
X15422981Y12395403D01*
X15412232Y12395403D01*
X15420949Y12374372D01*
X15429230Y12368530D01*
X15429230Y12363958D01*
X15434767Y12358065D01*
X15436799Y12360452D01*
X15436799Y12372035D01*
X15430500Y12374422D01*
X15426029Y12386970D01*
X15427807Y12392355D01*
X15440558Y12390424D01*
X15446501Y12393066D01*
X15438323Y12395504D01*
X15438323Y12402616D01*
X15448483Y12415672D01*
X15453360Y12404547D01*
X15458846Y12402515D01*
X15462148Y12392761D01*
X15462453Y12402159D01*
X15457932Y12404191D01*
X15457932Y12411456D01*
X15455087Y12411456D01*
X15448483Y12432792D01*
X15445689Y12432792D01*
X15439948Y12447981D01*
X15432582Y12456160D01*
X15427248Y12472771D01*
X15420340Y12485268D01*
X15407792Y12506604D01*
X15398597Y12527940D01*
X15380868Y12559080D01*
X15371114Y12581280D01*
X15347899Y12622377D01*
X15344851Y12631877D01*
X15324683Y12668453D01*
X15309697Y12698679D01*
X15304973Y12703149D01*
G37*
G36*
X14640763Y12703149D02*
G01*
X14637105Y12698831D01*
X14637105Y12691770D01*
X14642795Y12684455D01*
X14658543Y12657785D01*
X14674799Y12629337D01*
X14686534Y12609728D01*
X14706650Y12574168D01*
X14715693Y12559944D01*
X14718385Y12552832D01*
X14778177Y12448997D01*
X14787168Y12431877D01*
X14809114Y12396622D01*
X14809114Y12393523D01*
X14847773Y12326924D01*
X14857831Y12325807D01*
X14864384Y12327737D01*
X14874748Y12344654D01*
X14877796Y12350902D01*
X14893645Y12380315D01*
X14913356Y12415774D01*
X14919248Y12423241D01*
X14919248Y12425324D01*
X14948560Y12476327D01*
X14963800Y12502438D01*
X14966797Y12508230D01*
X14990775Y12551054D01*
X15008351Y12581280D01*
X15036800Y12631115D01*
X15070886Y12689230D01*
X15074646Y12696901D01*
X15068296Y12703149D01*
X15008504Y12703149D01*
X15000986Y12699746D01*
X14983409Y12667488D01*
X14961666Y12629337D01*
X14941499Y12590170D01*
X14930170Y12570612D01*
X14915946Y12542469D01*
X14868499Y12456769D01*
X14859863Y12438989D01*
X14854834Y12431115D01*
X14848941Y12438989D01*
X14829790Y12474549D01*
X14806879Y12516053D01*
X14720112Y12675565D01*
X14712442Y12693345D01*
X14703450Y12703149D01*
G37*
G36*
X14498319Y12545720D02*
G01*
X14144498Y12544958D01*
X14138046Y12543078D01*
X14136522Y12536068D01*
X14149019Y12510160D01*
X14161058Y12482576D01*
X14167154Y12480239D01*
X14502079Y12480848D01*
X14507362Y12482830D01*
X14507718Y12538608D01*
X14507362Y12542926D01*
G37*
G36*
X15463977Y12393625D02*
G01*
X15464180Y12390983D01*
X15466771Y12383871D01*
X15466974Y12393625D01*
G37*
G36*
X14465858Y12389307D02*
G01*
X14145056Y12389205D01*
X14141602Y12382093D01*
X14142466Y12328702D01*
X14147495Y12324080D01*
X14477949Y12326162D01*
X14502739Y12328144D01*
X14504669Y12335459D01*
X14504771Y12371425D01*
X14507260Y12381636D01*
X14504314Y12388189D01*
G37*
G36*
X15477337Y12366955D02*
G01*
X15479420Y12359132D01*
X15483332Y12354509D01*
X15485059Y12354509D01*
X15485059Y12359843D01*
X15479776Y12366650D01*
G37*
G36*
X15488107Y12349175D02*
G01*
X15488107Y12343841D01*
X15491002Y12343841D01*
X15489275Y12349175D01*
G37*
G36*
X15494152Y12340894D02*
G01*
X15492323Y12338710D01*
X15493898Y12334036D01*
G37*
G36*
X14298422Y12177826D02*
G01*
X14289328Y12174931D01*
X14282572Y12165787D01*
X14282216Y12157964D01*
X14282826Y12149074D01*
X14290649Y12139320D01*
X14305026Y12139320D01*
X14312798Y12143486D01*
X14314627Y12151969D01*
X14313103Y12167920D01*
X14307718Y12174931D01*
G37*
G36*
X13663168Y12159183D02*
G01*
X13609472Y12153544D01*
X13545515Y12152731D01*
X14049451Y12150852D01*
X14167154Y12152630D01*
X14129410Y12155373D01*
X14069060Y12158573D01*
X13974013Y12157049D01*
X13691869Y12156897D01*
G37*
G36*
X14689429Y12158878D02*
G01*
X14586559Y12158827D01*
X14441728Y12153595D01*
X14423644Y12152680D01*
X14597126Y12150852D01*
X14917013Y12152630D01*
X14834006Y12155830D01*
X14691207Y12156795D01*
G37*
G36*
X14480946Y12032945D02*
G01*
X14448840Y12030913D01*
X14441169Y12026798D01*
X14437563Y12016435D01*
X14438402Y12007799D01*
X14450009Y12007799D01*
X14450009Y12014250D01*
X14455546Y12020143D01*
X14470786Y12020143D01*
X14474951Y12014250D01*
X14473885Y12006783D01*
X14470532Y12002008D01*
X14455546Y12004344D01*
X14450009Y12007799D01*
X14438402Y12007799D01*
X14439341Y11998655D01*
X14433921Y11988139D01*
X14447774Y11988139D01*
X14461337Y11992660D01*
X14470380Y11991390D01*
X14475663Y11985802D01*
X14475663Y11979757D01*
X14470176Y11973864D01*
X14455292Y11973915D01*
X14447774Y11978436D01*
X14446808Y11988139D01*
X14433921Y11988139D01*
X14433448Y11987225D01*
X14433448Y11980824D01*
X14438020Y11970359D01*
X14449907Y11963196D01*
X14481149Y11963196D01*
X14486077Y11967667D01*
X14486890Y12027662D01*
G37*
G36*
X14379905Y12032742D02*
G01*
X14376095Y12026544D01*
X14375434Y12008561D01*
X14376146Y11992254D01*
X14371574Y11979300D01*
X14364766Y11974169D01*
X14357248Y11973255D01*
X14348104Y11975795D01*
X14343684Y11983669D01*
X14342160Y12025985D01*
X14337284Y12029592D01*
X14332356Y12027357D01*
X14332356Y11979503D01*
X14340230Y11968429D01*
X14349679Y11962536D01*
X14371015Y11962333D01*
X14381784Y11970969D01*
X14386661Y11989308D01*
X14386661Y12025325D01*
G37*
G36*
X14761057Y12032589D02*
G01*
X14756333Y12027001D01*
X14756333Y12022277D01*
X14761108Y12020143D01*
X14771065Y12020143D01*
X14774773Y12014860D01*
X14775637Y11994337D01*
X14775942Y11970308D01*
X14782546Y11962536D01*
X14786356Y11973001D01*
X14786508Y12013641D01*
X14791486Y12020143D01*
X14798141Y12020143D01*
X14807793Y12024106D01*
X14802764Y12030608D01*
X14794788Y12032030D01*
G37*
G36*
X14701367Y12032589D02*
G01*
X14667230Y12032335D01*
X14661235Y12024766D01*
X14664436Y12021007D01*
X14690699Y12019788D01*
X14695982Y12014250D01*
X14695982Y12008104D01*
X14691004Y12003227D01*
X14668042Y12001449D01*
X14668042Y11992559D01*
X14693188Y11990781D01*
X14697456Y11983872D01*
X14697456Y11979757D01*
X14692071Y11974017D01*
X14663521Y11973001D01*
X14662607Y11965432D01*
X14667280Y11963349D01*
X14702637Y11962841D01*
X14708022Y11970715D01*
X14708022Y12027052D01*
G37*
G36*
X15058847Y12032538D02*
G01*
X15042235Y12022785D01*
X15035580Y12006783D01*
X15035479Y11994083D01*
X15037089Y11988393D01*
X15046756Y11988393D01*
X15047061Y12003684D01*
X15053462Y12015927D01*
X15060371Y12019838D01*
X15067889Y12021515D01*
X15077236Y12018365D01*
X15084856Y12009424D01*
X15086736Y11998350D01*
X15086736Y11987682D01*
X15075458Y11974423D01*
X15063876Y11971883D01*
X15052954Y11978589D01*
X15046756Y11988393D01*
X15037089Y11988393D01*
X15040101Y11977979D01*
X15049347Y11966854D01*
X15060371Y11963247D01*
X15075814Y11963196D01*
X15086482Y11968480D01*
X15095880Y11981891D01*
X15099030Y11995658D01*
X15097048Y12010339D01*
X15090851Y12021210D01*
X15080691Y12029084D01*
X15069413Y12032234D01*
G37*
G36*
X14114322Y12032538D02*
G01*
X14088363Y12031065D01*
X14078051Y12025985D01*
X14068551Y12013234D01*
X14066519Y11994032D01*
X14067342Y11991187D01*
X14078864Y11991187D01*
X14078864Y12000992D01*
X14085366Y12014657D01*
X14095171Y12020143D01*
X14108938Y12020143D01*
X14112036Y12013234D01*
X14112036Y11982551D01*
X14108938Y11975693D01*
X14090751Y11975693D01*
X14085163Y11979198D01*
X14078864Y11991187D01*
X14067342Y11991187D01*
X14071346Y11977166D01*
X14080896Y11967667D01*
X14088973Y11963603D01*
X14112798Y11962739D01*
X14119402Y11963196D01*
X14124127Y11968784D01*
X14124127Y12024918D01*
X14118844Y12030354D01*
G37*
G36*
X15366898Y12030811D02*
G01*
X15361361Y12024918D01*
X15361361Y11969699D01*
X15366238Y11963349D01*
X15371927Y11966905D01*
X15371927Y12026544D01*
X15368320Y12030811D01*
G37*
G36*
X15298216Y12030811D02*
G01*
X15289479Y12022124D01*
X15280792Y12006783D01*
X15268701Y11991695D01*
X15261793Y11991695D01*
X15261793Y12025020D01*
X15257475Y12029287D01*
X15253309Y12021007D01*
X15253716Y11971223D01*
X15256052Y11964974D01*
X15263113Y11964974D01*
X15283637Y11992305D01*
X15291968Y12002617D01*
X15295727Y12001195D01*
X15298724Y11968683D01*
X15302534Y11964263D01*
X15306954Y11969445D01*
X15307818Y12024918D01*
X15303652Y12030811D01*
G37*
G36*
X15152369Y12030811D02*
G01*
X15147848Y12029897D01*
X15146172Y11985447D01*
X15147544Y11964670D01*
X15151912Y11962688D01*
X15161513Y11968124D01*
X15170404Y11983669D01*
X15180818Y11997893D01*
X15189504Y12004548D01*
X15190673Y12003125D01*
X15192095Y11968175D01*
X15195600Y11964111D01*
X15199918Y11971020D01*
X15199918Y12027052D01*
X15194635Y12030710D01*
X15190469Y12030811D01*
X15175890Y12012117D01*
X15164358Y11992559D01*
X15158415Y11992559D01*
X15156891Y12027408D01*
G37*
G36*
X14940788Y12030811D02*
G01*
X14937130Y12025630D01*
X14939314Y12017451D01*
X14956993Y11973509D01*
X14956993Y11970969D01*
X14964105Y11963095D01*
X14971318Y11966397D01*
X14984120Y11996115D01*
X14994229Y12024715D01*
X14990978Y12030811D01*
X14985441Y12030811D01*
X14968728Y11989003D01*
X14965273Y11986412D01*
X14963343Y11986361D01*
X14957501Y11997994D01*
X14955316Y12008205D01*
X14946630Y12030811D01*
G37*
G36*
X14870785Y12030811D02*
G01*
X14864842Y12027052D01*
X14852531Y11995505D01*
X14866467Y11995505D01*
X14866467Y12000382D01*
X14873274Y12009678D01*
X14878557Y11999112D01*
X14878557Y11992051D01*
X14873782Y11989917D01*
X14871192Y11989917D01*
X14866467Y11995505D01*
X14852531Y11995505D01*
X14842337Y11972594D01*
X14842337Y11965381D01*
X14847112Y11963196D01*
X14850821Y11963196D01*
X14855901Y11975744D01*
X14863622Y11979249D01*
X14883841Y11979148D01*
X14886990Y11976557D01*
X14893848Y11964974D01*
X14899436Y11964974D01*
X14900605Y11971223D01*
X14890292Y11997893D01*
X14887549Y12008916D01*
X14881555Y12015368D01*
X14881555Y12019838D01*
X14873732Y12030811D01*
G37*
G36*
X14210792Y12030811D02*
G01*
X14203832Y12025071D01*
X14204848Y11978944D01*
X14199006Y11973864D01*
X14178686Y11973864D01*
X14173911Y11971731D01*
X14173911Y11964924D01*
X14180870Y11961774D01*
X14212925Y11964111D01*
X14215414Y11967057D01*
X14216430Y12022429D01*
X14212620Y12030811D01*
G37*
G36*
X13885011Y12029186D02*
G01*
X13856309Y12026798D01*
X13853668Y12023953D01*
X13864132Y12021616D01*
X13868400Y12022328D01*
X13879474Y12021921D01*
X13884249Y12016333D01*
X13884198Y12006783D01*
X13881658Y12002160D01*
X13863878Y12000331D01*
X13856969Y11998706D01*
X13858748Y11995251D01*
X13878306Y11995251D01*
X13885722Y11986514D01*
X13885722Y11976862D01*
X13880947Y11970613D01*
X13881963Y11965076D01*
X13889532Y11969750D01*
X13888821Y11973661D01*
X13888923Y11983669D01*
X13890548Y12024360D01*
G37*
G36*
X14270837Y12029033D02*
G01*
X14267535Y12024309D01*
X14267637Y11990781D01*
X14269313Y11964974D01*
X14277695Y11964974D01*
X14279524Y11970613D01*
X14279524Y12023394D01*
X14277695Y12029033D01*
G37*
G36*
X13377062Y12029033D02*
G01*
X13370813Y12025071D01*
X13374979Y12021972D01*
X13386257Y12021921D01*
X13387832Y12013895D01*
X13391184Y11989003D01*
X13393419Y11969445D01*
X13393877Y12005005D01*
X13397128Y12019229D01*
X13402005Y12023699D01*
X13412469Y12023699D01*
X13410234Y12026341D01*
X13391591Y12028474D01*
G37*
G36*
X13691869Y12028779D02*
G01*
X13664692Y12027001D01*
X13658646Y12024766D01*
X13670737Y12022124D01*
X13688974Y12021921D01*
X13692632Y12017654D01*
X13692632Y12006173D01*
X13687856Y12000585D01*
X13668705Y12000585D01*
X13663980Y11998401D01*
X13665606Y11995251D01*
X13686180Y11995251D01*
X13694105Y11987885D01*
X13694105Y11974068D01*
X13689076Y11970766D01*
X13695934Y11968175D01*
X13698474Y11971223D01*
X13699185Y12019229D01*
X13697000Y12027001D01*
G37*
G36*
X13312140Y12027509D02*
G01*
X13279272Y12026138D01*
X13277646Y12024207D01*
X13303605Y12022074D01*
X13307872Y12017908D01*
X13307872Y12006173D01*
X13303097Y12000585D01*
X13283946Y12000585D01*
X13278916Y11998299D01*
X13282980Y11995302D01*
X13303097Y11995251D01*
X13308177Y11989257D01*
X13306907Y11968530D01*
X13312190Y11968530D01*
X13314070Y11972086D01*
X13314121Y12019991D01*
G37*
G36*
X13481557Y12025477D02*
G01*
X13474242Y12017451D01*
X13464794Y11988292D01*
X13464794Y11979402D01*
X13483640Y11986818D01*
X13476376Y11989104D01*
X13473226Y11994997D01*
X13476782Y12003227D01*
X13479830Y12013082D01*
X13488924Y12015266D01*
X13488924Y12023090D01*
X13486892Y12025477D01*
G37*
G36*
X13602055Y12025426D02*
G01*
X13596061Y12019330D01*
X13596061Y12011253D01*
X13602055Y12018365D01*
G37*
G36*
X13555116Y12021921D02*
G01*
X13557097Y12013895D01*
X13564362Y11995454D01*
X13564362Y11991695D01*
X13567460Y11991695D01*
X13570204Y11983669D01*
X13570407Y11990476D01*
X13565327Y12009475D01*
X13563193Y12009475D01*
X13561212Y12021921D01*
G37*
G36*
X13789507Y12020143D02*
G01*
X13787780Y12005005D01*
X13785850Y11985091D01*
X13792200Y11983110D01*
X13792200Y12020143D01*
G37*
G36*
X13591540Y12009475D02*
G01*
X13591540Y12004548D01*
X13587374Y12000484D01*
X13585596Y11987580D01*
X13587323Y11984278D01*
X13594435Y12001449D01*
X13594537Y12009475D01*
G37*
G36*
X13491921Y12009475D02*
G01*
X13491921Y12000331D01*
X13494664Y12002363D01*
X13493089Y12009475D01*
G37*
G36*
X13495274Y12000585D02*
G01*
X13490752Y11987225D01*
X13498728Y11981027D01*
X13502487Y11981027D01*
X13502487Y11987987D01*
X13497407Y12000585D01*
G37*
G36*
X13572439Y11982754D02*
G01*
X13573760Y11971985D01*
X13579500Y11968378D01*
X13582091Y11976557D01*
X13580668Y11979452D01*
X13574166Y11982551D01*
G37*
G36*
X14604034Y11977420D02*
G01*
X14601291Y11971223D01*
X14603831Y11963196D01*
X14609775Y11963196D01*
X14614601Y11971223D01*
X14608098Y11977420D01*
G37*
G36*
X14016075Y11977420D02*
G01*
X14010589Y11972747D01*
X14012672Y11964974D01*
X14018056Y11961622D01*
X14024559Y11966956D01*
X14024559Y11973712D01*
X14019276Y11977319D01*
G37*
G36*
X13760500Y11972696D02*
G01*
X13758468Y11970308D01*
X13760500Y11967972D01*
G37*
G36*
X13786154Y11972086D02*
G01*
X13786154Y11970308D01*
X13787678Y11970308D01*
X13787678Y11972086D01*
G37*
G36*
X13505535Y11972086D02*
G01*
X13505535Y11970308D01*
X13507008Y11970308D01*
X13507008Y11972086D01*
G37*
D10*
X15050747Y15094318D02*
G01*
X15851103Y15094318D01*
X13650696Y14894420D02*
G01*
X15050747Y14894420D01*
X15050747Y15094221D02*
G01*
X15050747Y14894318D01*
X13650742Y15094318D02*
G01*
X13650742Y14894420D01*
X14096748Y12839560D02*
G01*
X14096748Y12204560D01*
X14350748Y12194275D02*
G01*
X14350748Y12839560D01*
X14604748Y12839560D02*
G01*
X14604748Y12204560D01*
X14875738Y12839560D02*
G01*
X14875738Y12194146D01*
X13825758Y12844261D02*
G01*
X14661131Y12844386D01*
X14875738Y12844261D01*
X13825758Y12194275D02*
G01*
X13825758Y12839560D01*
X12851102Y12194298D02*
G01*
X15550741Y12194298D01*
X13150748Y15094318D02*
G01*
X13650742Y15094318D01*
X15851103Y12494267D02*
G01*
X15851103Y15094272D01*
X12851102Y12194298D02*
G01*
X12851102Y14794270D01*
G75*
G01*
X15550899Y12194146D02*
G03*
X15850870Y12494377I-28J300000D01*
G75*
G01*
X13150853Y15094318D02*
G03*
X12850873Y14794349I20J-299999D01*
G75*
G01
X12641580Y13817600D02*
G03X12641580Y13817600I-589280J0D01*
M02*
